  0
SECTION
  2
BLOCKS
  0
ENDSEC
  0
SECTION
  2
ENTITIES
  0
LINE
  8
0
 10
-63.0389
 20
-66.8
 11
-63.0386
 21
-66.813
  0
LINE
  8
0
 10
-63.0386
 20
-66.813
 11
-63.0314
 21
-67.1061
  0
LINE
  8
0
 10
-63.0314
 20
-67.1061
 11
-63.0305
 21
-67.1191
  0
LINE
  8
0
 10
-63.0305
 20
-67.1191
 11
-63.0089
 21
-67.4115
  0
LINE
  8
0
 10
-63.0089
 20
-67.4115
 11
-62.973
 21
-67.7025
  0
LINE
  8
0
 10
-62.973
 20
-67.7025
 11
-62.9714
 21
-67.7154
  0
LINE
  8
0
 10
-62.9714
 20
-67.7154
 11
-62.9213
 21
-68.0043
  0
LINE
  8
0
 10
-62.9213
 20
-68.0043
 11
-62.9191
 21
-68.0172
  0
LINE
  8
0
 10
-62.9191
 20
-68.0172
 11
-62.8548
 21
-68.3032
  0
LINE
  8
0
 10
-62.8548
 20
-68.3032
 11
-62.852
 21
-68.3159
  0
LINE
  8
0
 10
-62.852
 20
-68.3159
 11
-62.7738
 21
-68.5985
  0
LINE
  8
0
 10
-62.7738
 20
-68.5985
 11
-62.7703
 21
-68.6111
  0
LINE
  8
0
 10
-62.7703
 20
-68.6111
 11
-62.6783
 21
-68.8895
  0
LINE
  8
0
 10
-62.6783
 20
-68.8895
 11
-62.6742
 21
-68.9018
  0
LINE
  8
0
 10
-62.6742
 20
-68.9018
 11
-62.5687
 21
-69.1754
  0
LINE
  8
0
 10
-62.5687
 20
-69.1754
 11
-62.564
 21
-69.1875
  0
LINE
  8
0
 10
-62.564
 20
-69.1875
 11
-62.4452
 21
-69.4556
  0
LINE
  8
0
 10
-62.4452
 20
-69.4556
 11
-62.4399
 21
-69.4675
  0
LINE
  8
0
 10
-62.4399
 20
-69.4675
 11
-62.3081
 21
-69.7294
  0
LINE
  8
0
 10
-62.3081
 20
-69.7294
 11
-62.3023
 21
-69.741
  0
LINE
  8
0
 10
-62.3023
 20
-69.741
 11
-62.1577
 21
-69.9961
  0
LINE
  8
0
 10
-62.1577
 20
-69.9961
 11
-62.1513
 21
-70.0075
  0
LINE
  8
0
 10
-62.1513
 20
-70.0075
 11
-62.1444
 21
-70.0185
  0
LINE
  8
0
 10
-62.1444
 20
-70.0185
 11
-61.9875
 21
-70.2662
  0
LINE
  8
0
 10
-61.9875
 20
-70.2662
 11
-61.8187
 21
-70.5059
  0
LINE
  8
0
 10
-61.8187
 20
-70.5059
 11
-61.8112
 21
-70.5165
  0
LINE
  8
0
 10
-61.8112
 20
-70.5165
 11
-61.8032
 21
-70.5268
  0
LINE
  8
0
 10
-61.8032
 20
-70.5268
 11
-61.6228
 21
-70.7579
  0
LINE
  8
0
 10
-61.6228
 20
-70.7579
 11
-61.4313
 21
-70.98
  0
LINE
  8
0
 10
-61.4313
 20
-70.98
 11
-61.4227
 21
-70.9898
  0
LINE
  8
0
 10
-61.4227
 20
-70.9898
 11
-61.2206
 21
-71.2022
  0
LINE
  8
0
 10
-61.2206
 20
-71.2022
 11
-61.2116
 21
-71.2116
  0
LINE
  8
0
 10
-61.2116
 20
-71.2116
 11
-60.9992
 21
-71.4138
  0
LINE
  8
0
 10
-60.9992
 20
-71.4138
 11
-60.9898
 21
-71.4228
  0
LINE
  8
0
 10
-60.9898
 20
-71.4228
 11
-60.7678
 21
-71.6143
  0
LINE
  8
0
 10
-60.7678
 20
-71.6143
 11
-60.7579
 21
-71.6228
  0
LINE
  8
0
 10
-60.7579
 20
-71.6228
 11
-60.7477
 21
-71.6308
  0
LINE
  8
0
 10
-60.7477
 20
-71.6308
 11
-60.5165
 21
-71.8112
  0
LINE
  8
0
 10
-60.5165
 20
-71.8112
 11
-60.2768
 21
-71.98
  0
LINE
  8
0
 10
-60.2768
 20
-71.98
 11
-60.2662
 21
-71.9875
  0
LINE
  8
0
 10
-60.2662
 20
-71.9875
 11
-60.0185
 21
-72.1444
  0
LINE
  8
0
 10
-60.0185
 20
-72.1444
 11
-60.0075
 21
-72.1513
  0
LINE
  8
0
 10
-60.0075
 20
-72.1513
 11
-59.7523
 21
-72.2958
  0
LINE
  8
0
 10
-59.7523
 20
-72.2958
 11
-59.741
 21
-72.3023
  0
LINE
  8
0
 10
-59.741
 20
-72.3023
 11
-59.4791
 21
-72.4341
  0
LINE
  8
0
 10
-59.4791
 20
-72.4341
 11
-59.4675
 21
-72.4399
  0
LINE
  8
0
 10
-59.4675
 20
-72.4399
 11
-59.1994
 21
-72.5588
  0
LINE
  8
0
 10
-59.1994
 20
-72.5588
 11
-59.1875
 21
-72.564
  0
LINE
  8
0
 10
-59.1875
 20
-72.564
 11
-58.914
 21
-72.6696
  0
LINE
  8
0
 10
-58.914
 20
-72.6696
 11
-58.9018
 21
-72.6742
  0
LINE
  8
0
 10
-58.9018
 20
-72.6742
 11
-58.6234
 21
-72.7662
  0
LINE
  8
0
 10
-58.6234
 20
-72.7662
 11
-58.6111
 21
-72.7703
  0
LINE
  8
0
 10
-58.6111
 20
-72.7703
 11
-58.3285
 21
-72.8485
  0
LINE
  8
0
 10
-58.3285
 20
-72.8485
 11
-58.3159
 21
-72.852
  0
LINE
  8
0
 10
-58.3159
 20
-72.852
 11
-58.0299
 21
-72.9162
  0
LINE
  8
0
 10
-58.0299
 20
-72.9162
 11
-58.0172
 21
-72.9191
  0
LINE
  8
0
 10
-58.0172
 20
-72.9191
 11
-57.7283
 21
-72.9692
  0
LINE
  8
0
 10
-57.7283
 20
-72.9692
 11
-57.7154
 21
-72.9714
  0
LINE
  8
0
 10
-57.7154
 20
-72.9714
 11
-57.4244
 21
-73.0073
  0
LINE
  8
0
 10
-57.4244
 20
-73.0073
 11
-57.4115
 21
-73.0089
  0
LINE
  8
0
 10
-57.4115
 20
-73.0089
 11
-57.1191
 21
-73.0305
  0
LINE
  8
0
 10
-57.1191
 20
-73.0305
 11
-57.1061
 21
-73.0314
  0
LINE
  8
0
 10
-57.1061
 20
-73.0314
 11
-56.813
 21
-73.0386
  0
LINE
  8
0
 10
-56.813
 20
-73.0386
 11
-56.8
 21
-73.0389
  0
LINE
  8
0
 10
-56.8
 20
-73.0389
 11
40.6
 21
-73.0389
  0
LINE
  8
0
 10
40.6
 20
-73.0389
 11
40.613
 21
-73.0386
  0
LINE
  8
0
 10
40.613
 20
-73.0386
 11
40.9061
 21
-73.0314
  0
LINE
  8
0
 10
40.9061
 20
-73.0314
 11
41.1985
 21
-73.0099
  0
LINE
  8
0
 10
41.1985
 20
-73.0099
 11
41.2115
 21
-73.0089
  0
LINE
  8
0
 10
41.2115
 20
-73.0089
 11
41.5025
 21
-72.973
  0
LINE
  8
0
 10
41.5025
 20
-72.973
 11
41.5154
 21
-72.9714
  0
LINE
  8
0
 10
41.5154
 20
-72.9714
 11
41.5283
 21
-72.9692
  0
LINE
  8
0
 10
41.5283
 20
-72.9692
 11
41.8172
 21
-72.9191
  0
LINE
  8
0
 10
41.8172
 20
-72.9191
 11
42.1032
 21
-72.8548
  0
LINE
  8
0
 10
42.1032
 20
-72.8548
 11
42.1159
 21
-72.852
  0
LINE
  8
0
 10
42.1159
 20
-72.852
 11
42.1285
 21
-72.8485
  0
LINE
  8
0
 10
42.1285
 20
-72.8485
 11
42.4111
 21
-72.7703
  0
LINE
  8
0
 10
42.4111
 20
-72.7703
 11
42.6895
 21
-72.6783
  0
LINE
  8
0
 10
42.6895
 20
-72.6783
 11
42.7018
 21
-72.6742
  0
LINE
  8
0
 10
42.7018
 20
-72.6742
 11
42.714
 21
-72.6696
  0
LINE
  8
0
 10
42.714
 20
-72.6696
 11
42.9875
 21
-72.564
  0
LINE
  8
0
 10
42.9875
 20
-72.564
 11
42.9994
 21
-72.5588
  0
LINE
  8
0
 10
42.9994
 20
-72.5588
 11
43.2675
 21
-72.4399
  0
LINE
  8
0
 10
43.2675
 20
-72.4399
 11
43.5294
 21
-72.3081
  0
LINE
  8
0
 10
43.5294
 20
-72.3081
 11
43.541
 21
-72.3023
  0
LINE
  8
0
 10
43.541
 20
-72.3023
 11
43.5523
 21
-72.2958
  0
LINE
  8
0
 10
43.5523
 20
-72.2958
 11
43.8075
 21
-72.1513
  0
LINE
  8
0
 10
43.8075
 20
-72.1513
 11
44.0552
 21
-71.9945
  0
LINE
  8
0
 10
44.0552
 20
-71.9945
 11
44.0662
 21
-71.9875
  0
LINE
  8
0
 10
44.0662
 20
-71.9875
 11
44.3059
 21
-71.8187
  0
LINE
  8
0
 10
44.3059
 20
-71.8187
 11
44.3165
 21
-71.8112
  0
LINE
  8
0
 10
44.3165
 20
-71.8112
 11
44.5477
 21
-71.6308
  0
LINE
  8
0
 10
44.5477
 20
-71.6308
 11
44.5579
 21
-71.6228
  0
LINE
  8
0
 10
44.5579
 20
-71.6228
 11
44.78
 21
-71.4313
  0
LINE
  8
0
 10
44.78
 20
-71.4313
 11
44.7898
 21
-71.4228
  0
LINE
  8
0
 10
44.7898
 20
-71.4228
 11
45.0022
 21
-71.2206
  0
LINE
  8
0
 10
45.0022
 20
-71.2206
 11
45.0116
 21
-71.2116
  0
LINE
  8
0
 10
45.0116
 20
-71.2116
 11
45.2138
 21
-70.9992
  0
LINE
  8
0
 10
45.2138
 20
-70.9992
 11
45.2228
 21
-70.9898
  0
LINE
  8
0
 10
45.2228
 20
-70.9898
 11
45.4143
 21
-70.7678
  0
LINE
  8
0
 10
45.4143
 20
-70.7678
 11
45.4228
 21
-70.7579
  0
LINE
  8
0
 10
45.4228
 20
-70.7579
 11
45.6032
 21
-70.5268
  0
LINE
  8
0
 10
45.6032
 20
-70.5268
 11
45.6112
 21
-70.5165
  0
LINE
  8
0
 10
45.6112
 20
-70.5165
 11
45.78
 21
-70.2768
  0
LINE
  8
0
 10
45.78
 20
-70.2768
 11
45.7875
 21
-70.2662
  0
LINE
  8
0
 10
45.7875
 20
-70.2662
 11
45.9444
 21
-70.0185
  0
LINE
  8
0
 10
45.9444
 20
-70.0185
 11
45.9513
 21
-70.0075
  0
LINE
  8
0
 10
45.9513
 20
-70.0075
 11
46.0958
 21
-69.7523
  0
LINE
  8
0
 10
46.0958
 20
-69.7523
 11
46.1023
 21
-69.741
  0
LINE
  8
0
 10
46.1023
 20
-69.741
 11
46.1081
 21
-69.7294
  0
LINE
  8
0
 10
46.1081
 20
-69.7294
 11
46.2399
 21
-69.4675
  0
LINE
  8
0
 10
46.2399
 20
-69.4675
 11
46.2452
 21
-69.4556
  0
LINE
  8
0
 10
46.2452
 20
-69.4556
 11
46.364
 21
-69.1875
  0
LINE
  8
0
 10
46.364
 20
-69.1875
 11
46.4696
 21
-68.914
  0
LINE
  8
0
 10
46.4696
 20
-68.914
 11
46.4742
 21
-68.9018
  0
LINE
  8
0
 10
46.4742
 20
-68.9018
 11
46.5662
 21
-68.6234
  0
LINE
  8
0
 10
46.5662
 20
-68.6234
 11
46.5703
 21
-68.6111
  0
LINE
  8
0
 10
46.5703
 20
-68.6111
 11
46.6485
 21
-68.3285
  0
LINE
  8
0
 10
46.6485
 20
-68.3285
 11
46.652
 21
-68.3159
  0
LINE
  8
0
 10
46.652
 20
-68.3159
 11
46.6548
 21
-68.3032
  0
LINE
  8
0
 10
46.6548
 20
-68.3032
 11
46.7191
 21
-68.0172
  0
LINE
  8
0
 10
46.7191
 20
-68.0172
 11
46.7692
 21
-67.7283
  0
LINE
  8
0
 10
46.7692
 20
-67.7283
 11
46.7714
 21
-67.7154
  0
LINE
  8
0
 10
46.7714
 20
-67.7154
 11
46.8073
 21
-67.4244
  0
LINE
  8
0
 10
46.8073
 20
-67.4244
 11
46.8089
 21
-67.4115
  0
LINE
  8
0
 10
46.8089
 20
-67.4115
 11
46.8305
 21
-67.1191
  0
LINE
  8
0
 10
46.8305
 20
-67.1191
 11
46.8314
 21
-67.1061
  0
LINE
  8
0
 10
46.8314
 20
-67.1061
 11
46.8386
 21
-66.813
  0
LINE
  8
0
 10
46.8386
 20
-66.813
 11
46.8389
 21
-66.8
  0
LINE
  8
0
 10
46.8389
 20
-66.8
 11
46.8389
 21
110.6
  0
LINE
  8
0
 10
46.8389
 20
110.6
 11
46.8386
 21
110.613
  0
LINE
  8
0
 10
46.8386
 20
110.613
 11
46.8314
 21
110.906
  0
LINE
  8
0
 10
46.8314
 20
110.906
 11
46.8099
 21
111.199
  0
LINE
  8
0
 10
46.8099
 20
111.199
 11
46.8089
 21
111.212
  0
LINE
  8
0
 10
46.8089
 20
111.212
 11
46.8073
 21
111.224
  0
LINE
  8
0
 10
46.8073
 20
111.224
 11
46.7714
 21
111.515
  0
LINE
  8
0
 10
46.7714
 20
111.515
 11
46.7213
 21
111.804
  0
LINE
  8
0
 10
46.7213
 20
111.804
 11
46.7191
 21
111.817
  0
LINE
  8
0
 10
46.7191
 20
111.817
 11
46.6548
 21
112.103
  0
LINE
  8
0
 10
46.6548
 20
112.103
 11
46.652
 21
112.116
  0
LINE
  8
0
 10
46.652
 20
112.116
 11
46.5738
 21
112.399
  0
LINE
  8
0
 10
46.5738
 20
112.399
 11
46.5703
 21
112.411
  0
LINE
  8
0
 10
46.5703
 20
112.411
 11
46.4783
 21
112.689
  0
LINE
  8
0
 10
46.4783
 20
112.689
 11
46.4742
 21
112.702
  0
LINE
  8
0
 10
46.4742
 20
112.702
 11
46.3687
 21
112.975
  0
LINE
  8
0
 10
46.3687
 20
112.975
 11
46.364
 21
112.988
  0
LINE
  8
0
 10
46.364
 20
112.988
 11
46.2452
 21
113.256
  0
LINE
  8
0
 10
46.2452
 20
113.256
 11
46.2399
 21
113.267
  0
LINE
  8
0
 10
46.2399
 20
113.267
 11
46.1081
 21
113.529
  0
LINE
  8
0
 10
46.1081
 20
113.529
 11
46.1023
 21
113.541
  0
LINE
  8
0
 10
46.1023
 20
113.541
 11
45.9577
 21
113.796
  0
LINE
  8
0
 10
45.9577
 20
113.796
 11
45.9513
 21
113.807
  0
LINE
  8
0
 10
45.9513
 20
113.807
 11
45.7945
 21
114.055
  0
LINE
  8
0
 10
45.7945
 20
114.055
 11
45.7875
 21
114.066
  0
LINE
  8
0
 10
45.7875
 20
114.066
 11
45.6187
 21
114.306
  0
LINE
  8
0
 10
45.6187
 20
114.306
 11
45.6112
 21
114.317
  0
LINE
  8
0
 10
45.6112
 20
114.317
 11
45.4308
 21
114.548
  0
LINE
  8
0
 10
45.4308
 20
114.548
 11
45.4228
 21
114.558
  0
LINE
  8
0
 10
45.4228
 20
114.558
 11
45.2313
 21
114.78
  0
LINE
  8
0
 10
45.2313
 20
114.78
 11
45.2228
 21
114.79
  0
LINE
  8
0
 10
45.2228
 20
114.79
 11
45.0206
 21
115.002
  0
LINE
  8
0
 10
45.0206
 20
115.002
 11
45.0116
 21
115.012
  0
LINE
  8
0
 10
45.0116
 20
115.012
 11
44.7992
 21
115.214
  0
LINE
  8
0
 10
44.7992
 20
115.214
 11
44.7898
 21
115.223
  0
LINE
  8
0
 10
44.7898
 20
115.223
 11
44.78
 21
115.231
  0
LINE
  8
0
 10
44.78
 20
115.231
 11
44.5579
 21
115.423
  0
LINE
  8
0
 10
44.5579
 20
115.423
 11
44.3268
 21
115.603
  0
LINE
  8
0
 10
44.3268
 20
115.603
 11
44.3165
 21
115.611
  0
LINE
  8
0
 10
44.3165
 20
115.611
 11
44.0768
 21
115.78
  0
LINE
  8
0
 10
44.0768
 20
115.78
 11
44.0662
 21
115.787
  0
LINE
  8
0
 10
44.0662
 20
115.787
 11
44.0552
 21
115.794
  0
LINE
  8
0
 10
44.0552
 20
115.794
 11
43.8075
 21
115.951
  0
LINE
  8
0
 10
43.8075
 20
115.951
 11
43.5523
 21
116.096
  0
LINE
  8
0
 10
43.5523
 20
116.096
 11
43.541
 21
116.102
  0
LINE
  8
0
 10
43.541
 20
116.102
 11
43.2791
 21
116.234
  0
LINE
  8
0
 10
43.2791
 20
116.234
 11
43.2675
 21
116.24
  0
LINE
  8
0
 10
43.2675
 20
116.24
 11
42.9994
 21
116.359
  0
LINE
  8
0
 10
42.9994
 20
116.359
 11
42.9875
 21
116.364
  0
LINE
  8
0
 10
42.9875
 20
116.364
 11
42.9754
 21
116.369
  0
LINE
  8
0
 10
42.9754
 20
116.369
 11
42.7018
 21
116.474
  0
LINE
  8
0
 10
42.7018
 20
116.474
 11
42.4234
 21
116.566
  0
LINE
  8
0
 10
42.4234
 20
116.566
 11
42.4111
 21
116.57
  0
LINE
  8
0
 10
42.4111
 20
116.57
 11
42.1285
 21
116.648
  0
LINE
  8
0
 10
42.1285
 20
116.648
 11
42.1159
 21
116.652
  0
LINE
  8
0
 10
42.1159
 20
116.652
 11
41.8299
 21
116.716
  0
LINE
  8
0
 10
41.8299
 20
116.716
 11
41.8172
 21
116.719
  0
LINE
  8
0
 10
41.8172
 20
116.719
 11
41.5283
 21
116.769
  0
LINE
  8
0
 10
41.5283
 20
116.769
 11
41.5154
 21
116.771
  0
LINE
  8
0
 10
41.5154
 20
116.771
 11
41.2244
 21
116.807
  0
LINE
  8
0
 10
41.2244
 20
116.807
 11
41.2115
 21
116.809
  0
LINE
  8
0
 10
41.2115
 20
116.809
 11
40.9191
 21
116.83
  0
LINE
  8
0
 10
40.9191
 20
116.83
 11
40.9061
 21
116.831
  0
LINE
  8
0
 10
40.9061
 20
116.831
 11
40.613
 21
116.839
  0
LINE
  8
0
 10
40.613
 20
116.839
 11
40.6
 21
116.839
  0
LINE
  8
0
 10
40.6
 20
116.839
 11
-56.8
 21
116.839
  0
LINE
  8
0
 10
-56.8
 20
116.839
 11
-56.813
 21
116.839
  0
LINE
  8
0
 10
-56.813
 20
116.839
 11
-57.1061
 21
116.831
  0
LINE
  8
0
 10
-57.1061
 20
116.831
 11
-57.1191
 21
116.83
  0
LINE
  8
0
 10
-57.1191
 20
116.83
 11
-57.4115
 21
116.809
  0
LINE
  8
0
 10
-57.4115
 20
116.809
 11
-57.4244
 21
116.807
  0
LINE
  8
0
 10
-57.4244
 20
116.807
 11
-57.7154
 21
116.771
  0
LINE
  8
0
 10
-57.7154
 20
116.771
 11
-58.0043
 21
116.721
  0
LINE
  8
0
 10
-58.0043
 20
116.721
 11
-58.0172
 21
116.719
  0
LINE
  8
0
 10
-58.0172
 20
116.719
 11
-58.3032
 21
116.655
  0
LINE
  8
0
 10
-58.3032
 20
116.655
 11
-58.3159
 21
116.652
  0
LINE
  8
0
 10
-58.3159
 20
116.652
 11
-58.5985
 21
116.574
  0
LINE
  8
0
 10
-58.5985
 20
116.574
 11
-58.6111
 21
116.57
  0
LINE
  8
0
 10
-58.6111
 20
116.57
 11
-58.8895
 21
116.478
  0
LINE
  8
0
 10
-58.8895
 20
116.478
 11
-58.9018
 21
116.474
  0
LINE
  8
0
 10
-58.9018
 20
116.474
 11
-59.1754
 21
116.369
  0
LINE
  8
0
 10
-59.1754
 20
116.369
 11
-59.1875
 21
116.364
  0
LINE
  8
0
 10
-59.1875
 20
116.364
 11
-59.4556
 21
116.245
  0
LINE
  8
0
 10
-59.4556
 20
116.245
 11
-59.4675
 21
116.24
  0
LINE
  8
0
 10
-59.4675
 20
116.24
 11
-59.7294
 21
116.108
  0
LINE
  8
0
 10
-59.7294
 20
116.108
 11
-59.741
 21
116.102
  0
LINE
  8
0
 10
-59.741
 20
116.102
 11
-59.9961
 21
115.958
  0
LINE
  8
0
 10
-59.9961
 20
115.958
 11
-60.0075
 21
115.951
  0
LINE
  8
0
 10
-60.0075
 20
115.951
 11
-60.0185
 21
115.944
  0
LINE
  8
0
 10
-60.0185
 20
115.944
 11
-60.2662
 21
115.787
  0
LINE
  8
0
 10
-60.2662
 20
115.787
 11
-60.5059
 21
115.619
  0
LINE
  8
0
 10
-60.5059
 20
115.619
 11
-60.5165
 21
115.611
  0
LINE
  8
0
 10
-60.5165
 20
115.611
 11
-60.7477
 21
115.431
  0
LINE
  8
0
 10
-60.7477
 20
115.431
 11
-60.7579
 21
115.423
  0
LINE
  8
0
 10
-60.7579
 20
115.423
 11
-60.98
 21
115.231
  0
LINE
  8
0
 10
-60.98
 20
115.231
 11
-60.9898
 21
115.223
  0
LINE
  8
0
 10
-60.9898
 20
115.223
 11
-61.2022
 21
115.021
  0
LINE
  8
0
 10
-61.2022
 20
115.021
 11
-61.2116
 21
115.012
  0
LINE
  8
0
 10
-61.2116
 20
115.012
 11
-61.2206
 21
115.002
  0
LINE
  8
0
 10
-61.2206
 20
115.002
 11
-61.4227
 21
114.79
  0
LINE
  8
0
 10
-61.4227
 20
114.79
 11
-61.6143
 21
114.568
  0
LINE
  8
0
 10
-61.6143
 20
114.568
 11
-61.6228
 21
114.558
  0
LINE
  8
0
 10
-61.6228
 20
114.558
 11
-61.8032
 21
114.327
  0
LINE
  8
0
 10
-61.8032
 20
114.327
 11
-61.8112
 21
114.317
  0
LINE
  8
0
 10
-61.8112
 20
114.317
 11
-61.8187
 21
114.306
  0
LINE
  8
0
 10
-61.8187
 20
114.306
 11
-61.9875
 21
114.066
  0
LINE
  8
0
 10
-61.9875
 20
114.066
 11
-62.1444
 21
113.818
  0
LINE
  8
0
 10
-62.1444
 20
113.818
 11
-62.1513
 21
113.807
  0
LINE
  8
0
 10
-62.1513
 20
113.807
 11
-62.2958
 21
113.552
  0
LINE
  8
0
 10
-62.2958
 20
113.552
 11
-62.3023
 21
113.541
  0
LINE
  8
0
 10
-62.3023
 20
113.541
 11
-62.3081
 21
113.529
  0
LINE
  8
0
 10
-62.3081
 20
113.529
 11
-62.4399
 21
113.267
  0
LINE
  8
0
 10
-62.4399
 20
113.267
 11
-62.5588
 21
112.999
  0
LINE
  8
0
 10
-62.5588
 20
112.999
 11
-62.564
 21
112.988
  0
LINE
  8
0
 10
-62.564
 20
112.988
 11
-62.6696
 21
112.714
  0
LINE
  8
0
 10
-62.6696
 20
112.714
 11
-62.6742
 21
112.702
  0
LINE
  8
0
 10
-62.6742
 20
112.702
 11
-62.6783
 21
112.689
  0
LINE
  8
0
 10
-62.6783
 20
112.689
 11
-62.7703
 21
112.411
  0
LINE
  8
0
 10
-62.7703
 20
112.411
 11
-62.8485
 21
112.128
  0
LINE
  8
0
 10
-62.8485
 20
112.128
 11
-62.852
 21
112.116
  0
LINE
  8
0
 10
-62.852
 20
112.116
 11
-62.9162
 21
111.83
  0
LINE
  8
0
 10
-62.9162
 20
111.83
 11
-62.9191
 21
111.817
  0
LINE
  8
0
 10
-62.9191
 20
111.817
 11
-62.9692
 21
111.528
  0
LINE
  8
0
 10
-62.9692
 20
111.528
 11
-62.9714
 21
111.515
  0
LINE
  8
0
 10
-62.9714
 20
111.515
 11
-63.0073
 21
111.224
  0
LINE
  8
0
 10
-63.0073
 20
111.224
 11
-63.0089
 21
111.212
  0
LINE
  8
0
 10
-63.0089
 20
111.212
 11
-63.0305
 21
110.919
  0
LINE
  8
0
 10
-63.0305
 20
110.919
 11
-63.0314
 21
110.906
  0
LINE
  8
0
 10
-63.0314
 20
110.906
 11
-63.0386
 21
110.613
  0
LINE
  8
0
 10
-63.0386
 20
110.613
 11
-63.0389
 21
110.6
  0
LINE
  8
0
 10
-63.0389
 20
110.6
 11
-63.0389
 21
-66.8
  0
LINE
  8
0
 10
-57.7
 20
-66.1
 11
-57.6863
 21
-65.8912
  0
LINE
  8
0
 10
-57.6863
 20
-65.8912
 11
-57.6455
 21
-65.6859
  0
LINE
  8
0
 10
-57.6455
 20
-65.6859
 11
-57.5782
 21
-65.4877
  0
LINE
  8
0
 10
-57.5782
 20
-65.4877
 11
-57.4856
 21
-65.3
  0
LINE
  8
0
 10
-57.4856
 20
-65.3
 11
-57.3694
 21
-65.126
  0
LINE
  8
0
 10
-57.3694
 20
-65.126
 11
-57.2314
 21
-64.9686
  0
LINE
  8
0
 10
-57.2314
 20
-64.9686
 11
-57.074
 21
-64.8306
  0
LINE
  8
0
 10
-57.074
 20
-64.8306
 11
-56.9
 21
-64.7144
  0
LINE
  8
0
 10
-56.9
 20
-64.7144
 11
-56.7123
 21
-64.6218
  0
LINE
  8
0
 10
-56.7123
 20
-64.6218
 11
-56.5141
 21
-64.5545
  0
LINE
  8
0
 10
-56.5141
 20
-64.5545
 11
-56.3088
 21
-64.5137
  0
LINE
  8
0
 10
-56.3088
 20
-64.5137
 11
-56.1
 21
-64.5
  0
LINE
  8
0
 10
-56.1
 20
-64.5
 11
-55.8912
 21
-64.5137
  0
LINE
  8
0
 10
-55.8912
 20
-64.5137
 11
-55.6859
 21
-64.5545
  0
LINE
  8
0
 10
-55.6859
 20
-64.5545
 11
-55.4877
 21
-64.6218
  0
LINE
  8
0
 10
-55.4877
 20
-64.6218
 11
-55.3
 21
-64.7144
  0
LINE
  8
0
 10
-55.3
 20
-64.7144
 11
-55.126
 21
-64.8306
  0
LINE
  8
0
 10
-55.126
 20
-64.8306
 11
-54.9686
 21
-64.9686
  0
LINE
  8
0
 10
-54.9686
 20
-64.9686
 11
-54.8306
 21
-65.126
  0
LINE
  8
0
 10
-54.8306
 20
-65.126
 11
-54.7144
 21
-65.3
  0
LINE
  8
0
 10
-54.7144
 20
-65.3
 11
-54.6218
 21
-65.4877
  0
LINE
  8
0
 10
-54.6218
 20
-65.4877
 11
-54.5545
 21
-65.6859
  0
LINE
  8
0
 10
-54.5545
 20
-65.6859
 11
-54.5137
 21
-65.8912
  0
LINE
  8
0
 10
-54.5137
 20
-65.8912
 11
-54.5
 21
-66.1
  0
LINE
  8
0
 10
-54.5
 20
-66.1
 11
-54.5137
 21
-66.3088
  0
LINE
  8
0
 10
-54.5137
 20
-66.3088
 11
-54.5545
 21
-66.5141
  0
LINE
  8
0
 10
-54.5545
 20
-66.5141
 11
-54.6218
 21
-66.7123
  0
LINE
  8
0
 10
-54.6218
 20
-66.7123
 11
-54.7144
 21
-66.9
  0
LINE
  8
0
 10
-54.7144
 20
-66.9
 11
-54.8306
 21
-67.074
  0
LINE
  8
0
 10
-54.8306
 20
-67.074
 11
-54.9686
 21
-67.2314
  0
LINE
  8
0
 10
-54.9686
 20
-67.2314
 11
-55.126
 21
-67.3694
  0
LINE
  8
0
 10
-55.126
 20
-67.3694
 11
-55.3
 21
-67.4856
  0
LINE
  8
0
 10
-55.3
 20
-67.4856
 11
-55.4877
 21
-67.5782
  0
LINE
  8
0
 10
-55.4877
 20
-67.5782
 11
-55.6859
 21
-67.6455
  0
LINE
  8
0
 10
-55.6859
 20
-67.6455
 11
-55.8912
 21
-67.6863
  0
LINE
  8
0
 10
-55.8912
 20
-67.6863
 11
-56.1
 21
-67.7
  0
LINE
  8
0
 10
-56.1
 20
-67.7
 11
-56.3088
 21
-67.6863
  0
LINE
  8
0
 10
-56.3088
 20
-67.6863
 11
-56.5141
 21
-67.6455
  0
LINE
  8
0
 10
-56.5141
 20
-67.6455
 11
-56.7123
 21
-67.5782
  0
LINE
  8
0
 10
-56.7123
 20
-67.5782
 11
-56.9
 21
-67.4856
  0
LINE
  8
0
 10
-56.9
 20
-67.4856
 11
-57.074
 21
-67.3694
  0
LINE
  8
0
 10
-57.074
 20
-67.3694
 11
-57.2314
 21
-67.2314
  0
LINE
  8
0
 10
-57.2314
 20
-67.2314
 11
-57.3694
 21
-67.074
  0
LINE
  8
0
 10
-57.3694
 20
-67.074
 11
-57.4856
 21
-66.9
  0
LINE
  8
0
 10
-57.4856
 20
-66.9
 11
-57.5782
 21
-66.7123
  0
LINE
  8
0
 10
-57.5782
 20
-66.7123
 11
-57.6455
 21
-66.5141
  0
LINE
  8
0
 10
-57.6455
 20
-66.5141
 11
-57.6863
 21
-66.3088
  0
LINE
  8
0
 10
-57.6863
 20
-66.3088
 11
-57.7
 21
-66.1
  0
LINE
  8
0
 10
-57.7
 20
21.9
 11
-57.6863
 21
22.1088
  0
LINE
  8
0
 10
-57.6863
 20
22.1088
 11
-57.6455
 21
22.3141
  0
LINE
  8
0
 10
-57.6455
 20
22.3141
 11
-57.5782
 21
22.5123
  0
LINE
  8
0
 10
-57.5782
 20
22.5123
 11
-57.4856
 21
22.7
  0
LINE
  8
0
 10
-57.4856
 20
22.7
 11
-57.3694
 21
22.874
  0
LINE
  8
0
 10
-57.3694
 20
22.874
 11
-57.2314
 21
23.0314
  0
LINE
  8
0
 10
-57.2314
 20
23.0314
 11
-57.074
 21
23.1694
  0
LINE
  8
0
 10
-57.074
 20
23.1694
 11
-56.9
 21
23.2856
  0
LINE
  8
0
 10
-56.9
 20
23.2856
 11
-56.7123
 21
23.3782
  0
LINE
  8
0
 10
-56.7123
 20
23.3782
 11
-56.5141
 21
23.4455
  0
LINE
  8
0
 10
-56.5141
 20
23.4455
 11
-56.3088
 21
23.4863
  0
LINE
  8
0
 10
-56.3088
 20
23.4863
 11
-56.1
 21
23.5
  0
LINE
  8
0
 10
-56.1
 20
23.5
 11
-55.8912
 21
23.4863
  0
LINE
  8
0
 10
-55.8912
 20
23.4863
 11
-55.6859
 21
23.4455
  0
LINE
  8
0
 10
-55.6859
 20
23.4455
 11
-55.4877
 21
23.3782
  0
LINE
  8
0
 10
-55.4877
 20
23.3782
 11
-55.3
 21
23.2856
  0
LINE
  8
0
 10
-55.3
 20
23.2856
 11
-55.126
 21
23.1694
  0
LINE
  8
0
 10
-55.126
 20
23.1694
 11
-54.9686
 21
23.0314
  0
LINE
  8
0
 10
-54.9686
 20
23.0314
 11
-54.8306
 21
22.874
  0
LINE
  8
0
 10
-54.8306
 20
22.874
 11
-54.7144
 21
22.7
  0
LINE
  8
0
 10
-54.7144
 20
22.7
 11
-54.6218
 21
22.5123
  0
LINE
  8
0
 10
-54.6218
 20
22.5123
 11
-54.5545
 21
22.3141
  0
LINE
  8
0
 10
-54.5545
 20
22.3141
 11
-54.5137
 21
22.1088
  0
LINE
  8
0
 10
-54.5137
 20
22.1088
 11
-54.5
 21
21.9
  0
LINE
  8
0
 10
-54.5
 20
21.9
 11
-54.5137
 21
21.6912
  0
LINE
  8
0
 10
-54.5137
 20
21.6912
 11
-54.5545
 21
21.4859
  0
LINE
  8
0
 10
-54.5545
 20
21.4859
 11
-54.6218
 21
21.2877
  0
LINE
  8
0
 10
-54.6218
 20
21.2877
 11
-54.7144
 21
21.1
  0
LINE
  8
0
 10
-54.7144
 20
21.1
 11
-54.8306
 21
20.926
  0
LINE
  8
0
 10
-54.8306
 20
20.926
 11
-54.9686
 21
20.7686
  0
LINE
  8
0
 10
-54.9686
 20
20.7686
 11
-55.126
 21
20.6306
  0
LINE
  8
0
 10
-55.126
 20
20.6306
 11
-55.3
 21
20.5144
  0
LINE
  8
0
 10
-55.3
 20
20.5144
 11
-55.4877
 21
20.4218
  0
LINE
  8
0
 10
-55.4877
 20
20.4218
 11
-55.6859
 21
20.3545
  0
LINE
  8
0
 10
-55.6859
 20
20.3545
 11
-55.8912
 21
20.3137
  0
LINE
  8
0
 10
-55.8912
 20
20.3137
 11
-56.1
 21
20.3
  0
LINE
  8
0
 10
-56.1
 20
20.3
 11
-56.3088
 21
20.3137
  0
LINE
  8
0
 10
-56.3088
 20
20.3137
 11
-56.5141
 21
20.3545
  0
LINE
  8
0
 10
-56.5141
 20
20.3545
 11
-56.7123
 21
20.4218
  0
LINE
  8
0
 10
-56.7123
 20
20.4218
 11
-56.9
 21
20.5144
  0
LINE
  8
0
 10
-56.9
 20
20.5144
 11
-57.074
 21
20.6306
  0
LINE
  8
0
 10
-57.074
 20
20.6306
 11
-57.2314
 21
20.7686
  0
LINE
  8
0
 10
-57.2314
 20
20.7686
 11
-57.3694
 21
20.926
  0
LINE
  8
0
 10
-57.3694
 20
20.926
 11
-57.4856
 21
21.1
  0
LINE
  8
0
 10
-57.4856
 20
21.1
 11
-57.5782
 21
21.2877
  0
LINE
  8
0
 10
-57.5782
 20
21.2877
 11
-57.6455
 21
21.4859
  0
LINE
  8
0
 10
-57.6455
 20
21.4859
 11
-57.6863
 21
21.6912
  0
LINE
  8
0
 10
-57.6863
 20
21.6912
 11
-57.7
 21
21.9
  0
LINE
  8
0
 10
-57.7
 20
109.9
 11
-57.6863
 21
110.109
  0
LINE
  8
0
 10
-57.6863
 20
110.109
 11
-57.6455
 21
110.314
  0
LINE
  8
0
 10
-57.6455
 20
110.314
 11
-57.5782
 21
110.512
  0
LINE
  8
0
 10
-57.5782
 20
110.512
 11
-57.4856
 21
110.7
  0
LINE
  8
0
 10
-57.4856
 20
110.7
 11
-57.3694
 21
110.874
  0
LINE
  8
0
 10
-57.3694
 20
110.874
 11
-57.2314
 21
111.031
  0
LINE
  8
0
 10
-57.2314
 20
111.031
 11
-57.074
 21
111.169
  0
LINE
  8
0
 10
-57.074
 20
111.169
 11
-56.9
 21
111.286
  0
LINE
  8
0
 10
-56.9
 20
111.286
 11
-56.7123
 21
111.378
  0
LINE
  8
0
 10
-56.7123
 20
111.378
 11
-56.5141
 21
111.445
  0
LINE
  8
0
 10
-56.5141
 20
111.445
 11
-56.3088
 21
111.486
  0
LINE
  8
0
 10
-56.3088
 20
111.486
 11
-56.1
 21
111.5
  0
LINE
  8
0
 10
-56.1
 20
111.5
 11
-55.8912
 21
111.486
  0
LINE
  8
0
 10
-55.8912
 20
111.486
 11
-55.6859
 21
111.445
  0
LINE
  8
0
 10
-55.6859
 20
111.445
 11
-55.4877
 21
111.378
  0
LINE
  8
0
 10
-55.4877
 20
111.378
 11
-55.3
 21
111.286
  0
LINE
  8
0
 10
-55.3
 20
111.286
 11
-55.126
 21
111.169
  0
LINE
  8
0
 10
-55.126
 20
111.169
 11
-54.9686
 21
111.031
  0
LINE
  8
0
 10
-54.9686
 20
111.031
 11
-54.8306
 21
110.874
  0
LINE
  8
0
 10
-54.8306
 20
110.874
 11
-54.7144
 21
110.7
  0
LINE
  8
0
 10
-54.7144
 20
110.7
 11
-54.6218
 21
110.512
  0
LINE
  8
0
 10
-54.6218
 20
110.512
 11
-54.5545
 21
110.314
  0
LINE
  8
0
 10
-54.5545
 20
110.314
 11
-54.5137
 21
110.109
  0
LINE
  8
0
 10
-54.5137
 20
110.109
 11
-54.5
 21
109.9
  0
LINE
  8
0
 10
-54.5
 20
109.9
 11
-54.5137
 21
109.691
  0
LINE
  8
0
 10
-54.5137
 20
109.691
 11
-54.5545
 21
109.486
  0
LINE
  8
0
 10
-54.5545
 20
109.486
 11
-54.6218
 21
109.288
  0
LINE
  8
0
 10
-54.6218
 20
109.288
 11
-54.7144
 21
109.1
  0
LINE
  8
0
 10
-54.7144
 20
109.1
 11
-54.8306
 21
108.926
  0
LINE
  8
0
 10
-54.8306
 20
108.926
 11
-54.9686
 21
108.769
  0
LINE
  8
0
 10
-54.9686
 20
108.769
 11
-55.126
 21
108.631
  0
LINE
  8
0
 10
-55.126
 20
108.631
 11
-55.3
 21
108.514
  0
LINE
  8
0
 10
-55.3
 20
108.514
 11
-55.4877
 21
108.422
  0
LINE
  8
0
 10
-55.4877
 20
108.422
 11
-55.6859
 21
108.355
  0
LINE
  8
0
 10
-55.6859
 20
108.355
 11
-55.8912
 21
108.314
  0
LINE
  8
0
 10
-55.8912
 20
108.314
 11
-56.1
 21
108.3
  0
LINE
  8
0
 10
-56.1
 20
108.3
 11
-56.3088
 21
108.314
  0
LINE
  8
0
 10
-56.3088
 20
108.314
 11
-56.5141
 21
108.355
  0
LINE
  8
0
 10
-56.5141
 20
108.355
 11
-56.7123
 21
108.422
  0
LINE
  8
0
 10
-56.7123
 20
108.422
 11
-56.9
 21
108.514
  0
LINE
  8
0
 10
-56.9
 20
108.514
 11
-57.074
 21
108.631
  0
LINE
  8
0
 10
-57.074
 20
108.631
 11
-57.2314
 21
108.769
  0
LINE
  8
0
 10
-57.2314
 20
108.769
 11
-57.3694
 21
108.926
  0
LINE
  8
0
 10
-57.3694
 20
108.926
 11
-57.4856
 21
109.1
  0
LINE
  8
0
 10
-57.4856
 20
109.1
 11
-57.5782
 21
109.288
  0
LINE
  8
0
 10
-57.5782
 20
109.288
 11
-57.6455
 21
109.486
  0
LINE
  8
0
 10
-57.6455
 20
109.486
 11
-57.6863
 21
109.691
  0
LINE
  8
0
 10
-57.6863
 20
109.691
 11
-57.7
 21
109.9
  0
LINE
  8
0
 10
-53.57
 20
49.76
 11
-53.57
 21
58.26
  0
LINE
  8
0
 10
-53.57
 20
58.26
 11
-28.17
 21
58.26
  0
LINE
  8
0
 10
-28.17
 20
58.26
 11
-28.17
 21
49.76
  0
LINE
  8
0
 10
-28.17
 20
49.76
 11
-34.62
 21
49.76
  0
LINE
  8
0
 10
-34.62
 20
49.76
 11
-34.62
 21
45.12
  0
LINE
  8
0
 10
-34.62
 20
45.12
 11
-47.12
 21
45.12
  0
LINE
  8
0
 10
-47.12
 20
45.12
 11
-47.12
 21
49.76
  0
LINE
  8
0
 10
-47.12
 20
49.76
 11
-53.57
 21
49.76
  0
LINE
  8
0
 10
-53.46
 20
64
 11
-53.46
 21
89
  0
LINE
  8
0
 10
-53.46
 20
89
 11
-28.46
 21
89
  0
LINE
  8
0
 10
-28.46
 20
89
 11
-28.46
 21
64
  0
LINE
  8
0
 10
-28.46
 20
64
 11
-53.46
 21
64
  0
LINE
  8
0
 10
-51.73
 20
47.66
 11
-51.724
 21
47.7514
  0
LINE
  8
0
 10
-51.724
 20
47.7514
 11
-51.7061
 21
47.8412
  0
LINE
  8
0
 10
-51.7061
 20
47.8412
 11
-51.6767
 21
47.9279
  0
LINE
  8
0
 10
-51.6767
 20
47.9279
 11
-51.6362
 21
48.01
  0
LINE
  8
0
 10
-51.6362
 20
48.01
 11
-51.5853
 21
48.0861
  0
LINE
  8
0
 10
-51.5853
 20
48.0861
 11
-51.525
 21
48.155
  0
LINE
  8
0
 10
-51.525
 20
48.155
 11
-51.4561
 21
48.2153
  0
LINE
  8
0
 10
-51.4561
 20
48.2153
 11
-51.38
 21
48.2662
  0
LINE
  8
0
 10
-51.38
 20
48.2662
 11
-51.2979
 21
48.3067
  0
LINE
  8
0
 10
-51.2979
 20
48.3067
 11
-51.2112
 21
48.3361
  0
LINE
  8
0
 10
-51.2112
 20
48.3361
 11
-51.1214
 21
48.354
  0
LINE
  8
0
 10
-51.1214
 20
48.354
 11
-51.03
 21
48.36
  0
LINE
  8
0
 10
-51.03
 20
48.36
 11
-50.9386
 21
48.354
  0
LINE
  8
0
 10
-50.9386
 20
48.354
 11
-50.8488
 21
48.3361
  0
LINE
  8
0
 10
-50.8488
 20
48.3361
 11
-50.7621
 21
48.3067
  0
LINE
  8
0
 10
-50.7621
 20
48.3067
 11
-50.68
 21
48.2662
  0
LINE
  8
0
 10
-50.68
 20
48.2662
 11
-50.6039
 21
48.2153
  0
LINE
  8
0
 10
-50.6039
 20
48.2153
 11
-50.535
 21
48.155
  0
LINE
  8
0
 10
-50.535
 20
48.155
 11
-50.4747
 21
48.0861
  0
LINE
  8
0
 10
-50.4747
 20
48.0861
 11
-50.4238
 21
48.01
  0
LINE
  8
0
 10
-50.4238
 20
48.01
 11
-50.3833
 21
47.9279
  0
LINE
  8
0
 10
-50.3833
 20
47.9279
 11
-50.3539
 21
47.8412
  0
LINE
  8
0
 10
-50.3539
 20
47.8412
 11
-50.336
 21
47.7514
  0
LINE
  8
0
 10
-50.336
 20
47.7514
 11
-50.33
 21
47.66
  0
LINE
  8
0
 10
-50.33
 20
47.66
 11
-50.336
 21
47.5686
  0
LINE
  8
0
 10
-50.336
 20
47.5686
 11
-50.3539
 21
47.4788
  0
LINE
  8
0
 10
-50.3539
 20
47.4788
 11
-50.3833
 21
47.3921
  0
LINE
  8
0
 10
-50.3833
 20
47.3921
 11
-50.4238
 21
47.31
  0
LINE
  8
0
 10
-50.4238
 20
47.31
 11
-50.4747
 21
47.2339
  0
LINE
  8
0
 10
-50.4747
 20
47.2339
 11
-50.535
 21
47.165
  0
LINE
  8
0
 10
-50.535
 20
47.165
 11
-50.6039
 21
47.1047
  0
LINE
  8
0
 10
-50.6039
 20
47.1047
 11
-50.68
 21
47.0538
  0
LINE
  8
0
 10
-50.68
 20
47.0538
 11
-50.7621
 21
47.0133
  0
LINE
  8
0
 10
-50.7621
 20
47.0133
 11
-50.8488
 21
46.9839
  0
LINE
  8
0
 10
-50.8488
 20
46.9839
 11
-50.9386
 21
46.966
  0
LINE
  8
0
 10
-50.9386
 20
46.966
 11
-51.03
 21
46.96
  0
LINE
  8
0
 10
-51.03
 20
46.96
 11
-51.1214
 21
46.966
  0
LINE
  8
0
 10
-51.1214
 20
46.966
 11
-51.2112
 21
46.9839
  0
LINE
  8
0
 10
-51.2112
 20
46.9839
 11
-51.2979
 21
47.0133
  0
LINE
  8
0
 10
-51.2979
 20
47.0133
 11
-51.38
 21
47.0538
  0
LINE
  8
0
 10
-51.38
 20
47.0538
 11
-51.4561
 21
47.1047
  0
LINE
  8
0
 10
-51.4561
 20
47.1047
 11
-51.525
 21
47.165
  0
LINE
  8
0
 10
-51.525
 20
47.165
 11
-51.5853
 21
47.2339
  0
LINE
  8
0
 10
-51.5853
 20
47.2339
 11
-51.6362
 21
47.31
  0
LINE
  8
0
 10
-51.6362
 20
47.31
 11
-51.6767
 21
47.3921
  0
LINE
  8
0
 10
-51.6767
 20
47.3921
 11
-51.7061
 21
47.4788
  0
LINE
  8
0
 10
-51.7061
 20
47.4788
 11
-51.724
 21
47.5686
  0
LINE
  8
0
 10
-51.724
 20
47.5686
 11
-51.73
 21
47.66
  0
LINE
  8
0
 10
-51.73
 20
60.36
 11
-51.724
 21
60.4514
  0
LINE
  8
0
 10
-51.724
 20
60.4514
 11
-51.7061
 21
60.5412
  0
LINE
  8
0
 10
-51.7061
 20
60.5412
 11
-51.6767
 21
60.6279
  0
LINE
  8
0
 10
-51.6767
 20
60.6279
 11
-51.6362
 21
60.71
  0
LINE
  8
0
 10
-51.6362
 20
60.71
 11
-51.5853
 21
60.7861
  0
LINE
  8
0
 10
-51.5853
 20
60.7861
 11
-51.525
 21
60.855
  0
LINE
  8
0
 10
-51.525
 20
60.855
 11
-51.4561
 21
60.9153
  0
LINE
  8
0
 10
-51.4561
 20
60.9153
 11
-51.38
 21
60.9662
  0
LINE
  8
0
 10
-51.38
 20
60.9662
 11
-51.2979
 21
61.0067
  0
LINE
  8
0
 10
-51.2979
 20
61.0067
 11
-51.2112
 21
61.0361
  0
LINE
  8
0
 10
-51.2112
 20
61.0361
 11
-51.1214
 21
61.054
  0
LINE
  8
0
 10
-51.1214
 20
61.054
 11
-51.03
 21
61.06
  0
LINE
  8
0
 10
-51.03
 20
61.06
 11
-50.9386
 21
61.054
  0
LINE
  8
0
 10
-50.9386
 20
61.054
 11
-50.8488
 21
61.0361
  0
LINE
  8
0
 10
-50.8488
 20
61.0361
 11
-50.7621
 21
61.0067
  0
LINE
  8
0
 10
-50.7621
 20
61.0067
 11
-50.68
 21
60.9662
  0
LINE
  8
0
 10
-50.68
 20
60.9662
 11
-50.6039
 21
60.9153
  0
LINE
  8
0
 10
-50.6039
 20
60.9153
 11
-50.535
 21
60.855
  0
LINE
  8
0
 10
-50.535
 20
60.855
 11
-50.4747
 21
60.7861
  0
LINE
  8
0
 10
-50.4747
 20
60.7861
 11
-50.4238
 21
60.71
  0
LINE
  8
0
 10
-50.4238
 20
60.71
 11
-50.3833
 21
60.6279
  0
LINE
  8
0
 10
-50.3833
 20
60.6279
 11
-50.3539
 21
60.5412
  0
LINE
  8
0
 10
-50.3539
 20
60.5412
 11
-50.336
 21
60.4514
  0
LINE
  8
0
 10
-50.336
 20
60.4514
 11
-50.33
 21
60.36
  0
LINE
  8
0
 10
-50.33
 20
60.36
 11
-50.336
 21
60.2686
  0
LINE
  8
0
 10
-50.336
 20
60.2686
 11
-50.3539
 21
60.1788
  0
LINE
  8
0
 10
-50.3539
 20
60.1788
 11
-50.3833
 21
60.0921
  0
LINE
  8
0
 10
-50.3833
 20
60.0921
 11
-50.4238
 21
60.01
  0
LINE
  8
0
 10
-50.4238
 20
60.01
 11
-50.4747
 21
59.9339
  0
LINE
  8
0
 10
-50.4747
 20
59.9339
 11
-50.535
 21
59.865
  0
LINE
  8
0
 10
-50.535
 20
59.865
 11
-50.6039
 21
59.8046
  0
LINE
  8
0
 10
-50.6039
 20
59.8046
 11
-50.68
 21
59.7538
  0
LINE
  8
0
 10
-50.68
 20
59.7538
 11
-50.7621
 21
59.7133
  0
LINE
  8
0
 10
-50.7621
 20
59.7133
 11
-50.8488
 21
59.6838
  0
LINE
  8
0
 10
-50.8488
 20
59.6838
 11
-50.9386
 21
59.666
  0
LINE
  8
0
 10
-50.9386
 20
59.666
 11
-51.03
 21
59.66
  0
LINE
  8
0
 10
-51.03
 20
59.66
 11
-51.1214
 21
59.666
  0
LINE
  8
0
 10
-51.1214
 20
59.666
 11
-51.2112
 21
59.6838
  0
LINE
  8
0
 10
-51.2112
 20
59.6838
 11
-51.2979
 21
59.7133
  0
LINE
  8
0
 10
-51.2979
 20
59.7133
 11
-51.38
 21
59.7538
  0
LINE
  8
0
 10
-51.38
 20
59.7538
 11
-51.4561
 21
59.8046
  0
LINE
  8
0
 10
-51.4561
 20
59.8046
 11
-51.525
 21
59.865
  0
LINE
  8
0
 10
-51.525
 20
59.865
 11
-51.5853
 21
59.9339
  0
LINE
  8
0
 10
-51.5853
 20
59.9339
 11
-51.6362
 21
60.01
  0
LINE
  8
0
 10
-51.6362
 20
60.01
 11
-51.6767
 21
60.0921
  0
LINE
  8
0
 10
-51.6767
 20
60.0921
 11
-51.7061
 21
60.1788
  0
LINE
  8
0
 10
-51.7061
 20
60.1788
 11
-51.724
 21
60.2686
  0
LINE
  8
0
 10
-51.724
 20
60.2686
 11
-51.73
 21
60.36
  0
LINE
  8
0
 10
-51
 20
13.9
 11
-50.9872
 21
14.0958
  0
LINE
  8
0
 10
-50.9872
 20
14.0958
 11
-50.9489
 21
14.2882
  0
LINE
  8
0
 10
-50.9489
 20
14.2882
 11
-50.8858
 21
14.474
  0
LINE
  8
0
 10
-50.8858
 20
14.474
 11
-50.799
 21
14.65
  0
LINE
  8
0
 10
-50.799
 20
14.65
 11
-50.69
 21
14.8131
  0
LINE
  8
0
 10
-50.69
 20
14.8131
 11
-50.5607
 21
14.9607
  0
LINE
  8
0
 10
-50.5607
 20
14.9607
 11
-50.4131
 21
15.09
  0
LINE
  8
0
 10
-50.4131
 20
15.09
 11
-50.25
 21
15.199
  0
LINE
  8
0
 10
-50.25
 20
15.199
 11
-50.074
 21
15.2858
  0
LINE
  8
0
 10
-50.074
 20
15.2858
 11
-49.8882
 21
15.3489
  0
LINE
  8
0
 10
-49.8882
 20
15.3489
 11
-49.6958
 21
15.3872
  0
LINE
  8
0
 10
-49.6958
 20
15.3872
 11
-49.5
 21
15.4
  0
LINE
  8
0
 10
-49.5
 20
15.4
 11
-49.3042
 21
15.3872
  0
LINE
  8
0
 10
-49.3042
 20
15.3872
 11
-49.1118
 21
15.3489
  0
LINE
  8
0
 10
-49.1118
 20
15.3489
 11
-48.926
 21
15.2858
  0
LINE
  8
0
 10
-48.926
 20
15.2858
 11
-48.75
 21
15.199
  0
LINE
  8
0
 10
-48.75
 20
15.199
 11
-48.5869
 21
15.09
  0
LINE
  8
0
 10
-48.5869
 20
15.09
 11
-48.4393
 21
14.9607
  0
LINE
  8
0
 10
-48.4393
 20
14.9607
 11
-48.31
 21
14.8131
  0
LINE
  8
0
 10
-48.31
 20
14.8131
 11
-48.201
 21
14.65
  0
LINE
  8
0
 10
-48.201
 20
14.65
 11
-48.1142
 21
14.474
  0
LINE
  8
0
 10
-48.1142
 20
14.474
 11
-48.0511
 21
14.2882
  0
LINE
  8
0
 10
-48.0511
 20
14.2882
 11
-48.0128
 21
14.0958
  0
LINE
  8
0
 10
-48.0128
 20
14.0958
 11
-48
 21
13.9
  0
LINE
  8
0
 10
-48
 20
13.9
 11
-48.0128
 21
13.7042
  0
LINE
  8
0
 10
-48.0128
 20
13.7042
 11
-48.0511
 21
13.5118
  0
LINE
  8
0
 10
-48.0511
 20
13.5118
 11
-48.1142
 21
13.326
  0
LINE
  8
0
 10
-48.1142
 20
13.326
 11
-48.201
 21
13.15
  0
LINE
  8
0
 10
-48.201
 20
13.15
 11
-48.31
 21
12.9869
  0
LINE
  8
0
 10
-48.31
 20
12.9869
 11
-48.4393
 21
12.8393
  0
LINE
  8
0
 10
-48.4393
 20
12.8393
 11
-48.5869
 21
12.71
  0
LINE
  8
0
 10
-48.5869
 20
12.71
 11
-48.75
 21
12.601
  0
LINE
  8
0
 10
-48.75
 20
12.601
 11
-48.926
 21
12.5142
  0
LINE
  8
0
 10
-48.926
 20
12.5142
 11
-49.1118
 21
12.4511
  0
LINE
  8
0
 10
-49.1118
 20
12.4511
 11
-49.3042
 21
12.4128
  0
LINE
  8
0
 10
-49.3042
 20
12.4128
 11
-49.5
 21
12.4
  0
LINE
  8
0
 10
-49.5
 20
12.4
 11
-49.6958
 21
12.4128
  0
LINE
  8
0
 10
-49.6958
 20
12.4128
 11
-49.8882
 21
12.4511
  0
LINE
  8
0
 10
-49.8882
 20
12.4511
 11
-50.074
 21
12.5142
  0
LINE
  8
0
 10
-50.074
 20
12.5142
 11
-50.25
 21
12.601
  0
LINE
  8
0
 10
-50.25
 20
12.601
 11
-50.4131
 21
12.71
  0
LINE
  8
0
 10
-50.4131
 20
12.71
 11
-50.5607
 21
12.8393
  0
LINE
  8
0
 10
-50.5607
 20
12.8393
 11
-50.69
 21
12.9869
  0
LINE
  8
0
 10
-50.69
 20
12.9869
 11
-50.799
 21
13.15
  0
LINE
  8
0
 10
-50.799
 20
13.15
 11
-50.8858
 21
13.326
  0
LINE
  8
0
 10
-50.8858
 20
13.326
 11
-50.9489
 21
13.5118
  0
LINE
  8
0
 10
-50.9489
 20
13.5118
 11
-50.9872
 21
13.7042
  0
LINE
  8
0
 10
-50.9872
 20
13.7042
 11
-51
 21
13.9
  0
LINE
  8
0
 10
-50.5
 20
-43.1
 11
-50.4914
 21
-42.9695
  0
LINE
  8
0
 10
-50.4914
 20
-42.9695
 11
-50.4659
 21
-42.8412
  0
LINE
  8
0
 10
-50.4659
 20
-42.8412
 11
-50.4239
 21
-42.7173
  0
LINE
  8
0
 10
-50.4239
 20
-42.7173
 11
-50.366
 21
-42.6
  0
LINE
  8
0
 10
-50.366
 20
-42.6
 11
-50.2934
 21
-42.4912
  0
LINE
  8
0
 10
-50.2934
 20
-42.4912
 11
-50.2071
 21
-42.3929
  0
LINE
  8
0
 10
-50.2071
 20
-42.3929
 11
-50.1088
 21
-42.3066
  0
LINE
  8
0
 10
-50.1088
 20
-42.3066
 11
-50
 21
-42.234
  0
LINE
  8
0
 10
-50
 20
-42.234
 11
-49.8827
 21
-42.1761
  0
LINE
  8
0
 10
-49.8827
 20
-42.1761
 11
-49.7588
 21
-42.1341
  0
LINE
  8
0
 10
-49.7588
 20
-42.1341
 11
-49.6305
 21
-42.1086
  0
LINE
  8
0
 10
-49.6305
 20
-42.1086
 11
-49.5
 21
-42.1
  0
LINE
  8
0
 10
-49.5
 20
-42.1
 11
-49.3695
 21
-42.1086
  0
LINE
  8
0
 10
-49.3695
 20
-42.1086
 11
-49.2412
 21
-42.1341
  0
LINE
  8
0
 10
-49.2412
 20
-42.1341
 11
-49.1173
 21
-42.1761
  0
LINE
  8
0
 10
-49.1173
 20
-42.1761
 11
-49
 21
-42.234
  0
LINE
  8
0
 10
-49
 20
-42.234
 11
-48.8912
 21
-42.3066
  0
LINE
  8
0
 10
-48.8912
 20
-42.3066
 11
-48.7929
 21
-42.3929
  0
LINE
  8
0
 10
-48.7929
 20
-42.3929
 11
-48.7066
 21
-42.4912
  0
LINE
  8
0
 10
-48.7066
 20
-42.4912
 11
-48.634
 21
-42.6
  0
LINE
  8
0
 10
-48.634
 20
-42.6
 11
-48.5761
 21
-42.7173
  0
LINE
  8
0
 10
-48.5761
 20
-42.7173
 11
-48.5341
 21
-42.8412
  0
LINE
  8
0
 10
-48.5341
 20
-42.8412
 11
-48.5086
 21
-42.9695
  0
LINE
  8
0
 10
-48.5086
 20
-42.9695
 11
-48.5
 21
-43.1
  0
LINE
  8
0
 10
-48.5
 20
-43.1
 11
-48.5086
 21
-43.2305
  0
LINE
  8
0
 10
-48.5086
 20
-43.2305
 11
-48.5341
 21
-43.3588
  0
LINE
  8
0
 10
-48.5341
 20
-43.3588
 11
-48.5761
 21
-43.4827
  0
LINE
  8
0
 10
-48.5761
 20
-43.4827
 11
-48.634
 21
-43.6
  0
LINE
  8
0
 10
-48.634
 20
-43.6
 11
-48.7066
 21
-43.7088
  0
LINE
  8
0
 10
-48.7066
 20
-43.7088
 11
-48.7929
 21
-43.8071
  0
LINE
  8
0
 10
-48.7929
 20
-43.8071
 11
-48.8912
 21
-43.8934
  0
LINE
  8
0
 10
-48.8912
 20
-43.8934
 11
-49
 21
-43.966
  0
LINE
  8
0
 10
-49
 20
-43.966
 11
-49.1173
 21
-44.0239
  0
LINE
  8
0
 10
-49.1173
 20
-44.0239
 11
-49.2412
 21
-44.0659
  0
LINE
  8
0
 10
-49.2412
 20
-44.0659
 11
-49.3695
 21
-44.0914
  0
LINE
  8
0
 10
-49.3695
 20
-44.0914
 11
-49.5
 21
-44.1
  0
LINE
  8
0
 10
-49.5
 20
-44.1
 11
-49.6305
 21
-44.0914
  0
LINE
  8
0
 10
-49.6305
 20
-44.0914
 11
-49.7588
 21
-44.0659
  0
LINE
  8
0
 10
-49.7588
 20
-44.0659
 11
-49.8827
 21
-44.0239
  0
LINE
  8
0
 10
-49.8827
 20
-44.0239
 11
-50
 21
-43.966
  0
LINE
  8
0
 10
-50
 20
-43.966
 11
-50.1088
 21
-43.8934
  0
LINE
  8
0
 10
-50.1088
 20
-43.8934
 11
-50.2071
 21
-43.8071
  0
LINE
  8
0
 10
-50.2071
 20
-43.8071
 11
-50.2934
 21
-43.7088
  0
LINE
  8
0
 10
-50.2934
 20
-43.7088
 11
-50.366
 21
-43.6
  0
LINE
  8
0
 10
-50.366
 20
-43.6
 11
-50.4239
 21
-43.4827
  0
LINE
  8
0
 10
-50.4239
 20
-43.4827
 11
-50.4659
 21
-43.3588
  0
LINE
  8
0
 10
-50.4659
 20
-43.3588
 11
-50.4914
 21
-43.2305
  0
LINE
  8
0
 10
-50.4914
 20
-43.2305
 11
-50.5
 21
-43.1
  0
LINE
  8
0
 10
-41.25
 20
106
 11
-41.2393
 21
106.163
  0
LINE
  8
0
 10
-41.2393
 20
106.163
 11
-41.2074
 21
106.324
  0
LINE
  8
0
 10
-41.2074
 20
106.324
 11
-41.1549
 21
106.478
  0
LINE
  8
0
 10
-41.1549
 20
106.478
 11
-41.0825
 21
106.625
  0
LINE
  8
0
 10
-41.0825
 20
106.625
 11
-40.9917
 21
106.761
  0
LINE
  8
0
 10
-40.9917
 20
106.761
 11
-40.8839
 21
106.884
  0
LINE
  8
0
 10
-40.8839
 20
106.884
 11
-40.761
 21
106.992
  0
LINE
  8
0
 10
-40.761
 20
106.992
 11
-40.625
 21
107.083
  0
LINE
  8
0
 10
-40.625
 20
107.083
 11
-40.4784
 21
107.155
  0
LINE
  8
0
 10
-40.4784
 20
107.155
 11
-40.3235
 21
107.207
  0
LINE
  8
0
 10
-40.3235
 20
107.207
 11
-40.1632
 21
107.239
  0
LINE
  8
0
 10
-40.1632
 20
107.239
 11
-40
 21
107.25
  0
LINE
  8
0
 10
-40
 20
107.25
 11
-39.8368
 21
107.239
  0
LINE
  8
0
 10
-39.8368
 20
107.239
 11
-39.6765
 21
107.207
  0
LINE
  8
0
 10
-39.6765
 20
107.207
 11
-39.5216
 21
107.155
  0
LINE
  8
0
 10
-39.5216
 20
107.155
 11
-39.375
 21
107.083
  0
LINE
  8
0
 10
-39.375
 20
107.083
 11
-39.239
 21
106.992
  0
LINE
  8
0
 10
-39.239
 20
106.992
 11
-39.1161
 21
106.884
  0
LINE
  8
0
 10
-39.1161
 20
106.884
 11
-39.0083
 21
106.761
  0
LINE
  8
0
 10
-39.0083
 20
106.761
 11
-38.9175
 21
106.625
  0
LINE
  8
0
 10
-38.9175
 20
106.625
 11
-38.8452
 21
106.478
  0
LINE
  8
0
 10
-38.8452
 20
106.478
 11
-38.7926
 21
106.324
  0
LINE
  8
0
 10
-38.7926
 20
106.324
 11
-38.7607
 21
106.163
  0
LINE
  8
0
 10
-38.7607
 20
106.163
 11
-38.75
 21
106
  0
LINE
  8
0
 10
-38.75
 20
106
 11
-38.7607
 21
105.837
  0
LINE
  8
0
 10
-38.7607
 20
105.837
 11
-38.7926
 21
105.676
  0
LINE
  8
0
 10
-38.7926
 20
105.676
 11
-38.8452
 21
105.522
  0
LINE
  8
0
 10
-38.8452
 20
105.522
 11
-38.9175
 21
105.375
  0
LINE
  8
0
 10
-38.9175
 20
105.375
 11
-39.0083
 21
105.239
  0
LINE
  8
0
 10
-39.0083
 20
105.239
 11
-39.1161
 21
105.116
  0
LINE
  8
0
 10
-39.1161
 20
105.116
 11
-39.239
 21
105.008
  0
LINE
  8
0
 10
-39.239
 20
105.008
 11
-39.375
 21
104.917
  0
LINE
  8
0
 10
-39.375
 20
104.917
 11
-39.5216
 21
104.845
  0
LINE
  8
0
 10
-39.5216
 20
104.845
 11
-39.6765
 21
104.793
  0
LINE
  8
0
 10
-39.6765
 20
104.793
 11
-39.8368
 21
104.761
  0
LINE
  8
0
 10
-39.8368
 20
104.761
 11
-40
 21
104.75
  0
LINE
  8
0
 10
-40
 20
104.75
 11
-40.1632
 21
104.761
  0
LINE
  8
0
 10
-40.1632
 20
104.761
 11
-40.3235
 21
104.793
  0
LINE
  8
0
 10
-40.3235
 20
104.793
 11
-40.4784
 21
104.845
  0
LINE
  8
0
 10
-40.4784
 20
104.845
 11
-40.625
 21
104.917
  0
LINE
  8
0
 10
-40.625
 20
104.917
 11
-40.761
 21
105.008
  0
LINE
  8
0
 10
-40.761
 20
105.008
 11
-40.8839
 21
105.116
  0
LINE
  8
0
 10
-40.8839
 20
105.116
 11
-40.9917
 21
105.239
  0
LINE
  8
0
 10
-40.9917
 20
105.239
 11
-41.0825
 21
105.375
  0
LINE
  8
0
 10
-41.0825
 20
105.375
 11
-41.1549
 21
105.522
  0
LINE
  8
0
 10
-41.1549
 20
105.522
 11
-41.2074
 21
105.676
  0
LINE
  8
0
 10
-41.2074
 20
105.676
 11
-41.2393
 21
105.837
  0
LINE
  8
0
 10
-41.2393
 20
105.837
 11
-41.25
 21
106
  0
LINE
  8
0
 10
-32.5
 20
-55.5
 11
-32.5
 21
32.5
  0
LINE
  8
0
 10
-32.5
 20
32.5
 11
8.5
 21
32.5
  0
LINE
  8
0
 10
8.5
 20
32.5
 11
8.5
 21
-55.5
  0
LINE
  8
0
 10
8.5
 20
-55.5
 11
-32.5
 21
-55.5
  0
LINE
  8
0
 10
-31.41
 20
47.66
 11
-31.404
 21
47.7514
  0
LINE
  8
0
 10
-31.404
 20
47.7514
 11
-31.3862
 21
47.8412
  0
LINE
  8
0
 10
-31.3862
 20
47.8412
 11
-31.3567
 21
47.9279
  0
LINE
  8
0
 10
-31.3567
 20
47.9279
 11
-31.3162
 21
48.01
  0
LINE
  8
0
 10
-31.3162
 20
48.01
 11
-31.2654
 21
48.0861
  0
LINE
  8
0
 10
-31.2654
 20
48.0861
 11
-31.205
 21
48.155
  0
LINE
  8
0
 10
-31.205
 20
48.155
 11
-31.1361
 21
48.2153
  0
LINE
  8
0
 10
-31.1361
 20
48.2153
 11
-31.06
 21
48.2662
  0
LINE
  8
0
 10
-31.06
 20
48.2662
 11
-30.9779
 21
48.3067
  0
LINE
  8
0
 10
-30.9779
 20
48.3067
 11
-30.8912
 21
48.3361
  0
LINE
  8
0
 10
-30.8912
 20
48.3361
 11
-30.8014
 21
48.354
  0
LINE
  8
0
 10
-30.8014
 20
48.354
 11
-30.71
 21
48.36
  0
LINE
  8
0
 10
-30.71
 20
48.36
 11
-30.6186
 21
48.354
  0
LINE
  8
0
 10
-30.6186
 20
48.354
 11
-30.5288
 21
48.3361
  0
LINE
  8
0
 10
-30.5288
 20
48.3361
 11
-30.4421
 21
48.3067
  0
LINE
  8
0
 10
-30.4421
 20
48.3067
 11
-30.36
 21
48.2662
  0
LINE
  8
0
 10
-30.36
 20
48.2662
 11
-30.2839
 21
48.2153
  0
LINE
  8
0
 10
-30.2839
 20
48.2153
 11
-30.215
 21
48.155
  0
LINE
  8
0
 10
-30.215
 20
48.155
 11
-30.1547
 21
48.0861
  0
LINE
  8
0
 10
-30.1547
 20
48.0861
 11
-30.1038
 21
48.01
  0
LINE
  8
0
 10
-30.1038
 20
48.01
 11
-30.0633
 21
47.9279
  0
LINE
  8
0
 10
-30.0633
 20
47.9279
 11
-30.0339
 21
47.8412
  0
LINE
  8
0
 10
-30.0339
 20
47.8412
 11
-30.016
 21
47.7514
  0
LINE
  8
0
 10
-30.016
 20
47.7514
 11
-30.01
 21
47.66
  0
LINE
  8
0
 10
-30.01
 20
47.66
 11
-30.016
 21
47.5686
  0
LINE
  8
0
 10
-30.016
 20
47.5686
 11
-30.0339
 21
47.4788
  0
LINE
  8
0
 10
-30.0339
 20
47.4788
 11
-30.0633
 21
47.3921
  0
LINE
  8
0
 10
-30.0633
 20
47.3921
 11
-30.1038
 21
47.31
  0
LINE
  8
0
 10
-30.1038
 20
47.31
 11
-30.1547
 21
47.2339
  0
LINE
  8
0
 10
-30.1547
 20
47.2339
 11
-30.215
 21
47.165
  0
LINE
  8
0
 10
-30.215
 20
47.165
 11
-30.2839
 21
47.1047
  0
LINE
  8
0
 10
-30.2839
 20
47.1047
 11
-30.36
 21
47.0538
  0
LINE
  8
0
 10
-30.36
 20
47.0538
 11
-30.4421
 21
47.0133
  0
LINE
  8
0
 10
-30.4421
 20
47.0133
 11
-30.5288
 21
46.9839
  0
LINE
  8
0
 10
-30.5288
 20
46.9839
 11
-30.6186
 21
46.966
  0
LINE
  8
0
 10
-30.6186
 20
46.966
 11
-30.71
 21
46.96
  0
LINE
  8
0
 10
-30.71
 20
46.96
 11
-30.8014
 21
46.966
  0
LINE
  8
0
 10
-30.8014
 20
46.966
 11
-30.8912
 21
46.9839
  0
LINE
  8
0
 10
-30.8912
 20
46.9839
 11
-30.9779
 21
47.0133
  0
LINE
  8
0
 10
-30.9779
 20
47.0133
 11
-31.06
 21
47.0538
  0
LINE
  8
0
 10
-31.06
 20
47.0538
 11
-31.1361
 21
47.1047
  0
LINE
  8
0
 10
-31.1361
 20
47.1047
 11
-31.205
 21
47.165
  0
LINE
  8
0
 10
-31.205
 20
47.165
 11
-31.2654
 21
47.2339
  0
LINE
  8
0
 10
-31.2654
 20
47.2339
 11
-31.3162
 21
47.31
  0
LINE
  8
0
 10
-31.3162
 20
47.31
 11
-31.3567
 21
47.3921
  0
LINE
  8
0
 10
-31.3567
 20
47.3921
 11
-31.3862
 21
47.4788
  0
LINE
  8
0
 10
-31.3862
 20
47.4788
 11
-31.404
 21
47.5686
  0
LINE
  8
0
 10
-31.404
 20
47.5686
 11
-31.41
 21
47.66
  0
LINE
  8
0
 10
-31.41
 20
60.36
 11
-31.404
 21
60.4514
  0
LINE
  8
0
 10
-31.404
 20
60.4514
 11
-31.3862
 21
60.5412
  0
LINE
  8
0
 10
-31.3862
 20
60.5412
 11
-31.3567
 21
60.6279
  0
LINE
  8
0
 10
-31.3567
 20
60.6279
 11
-31.3162
 21
60.71
  0
LINE
  8
0
 10
-31.3162
 20
60.71
 11
-31.2654
 21
60.7861
  0
LINE
  8
0
 10
-31.2654
 20
60.7861
 11
-31.205
 21
60.855
  0
LINE
  8
0
 10
-31.205
 20
60.855
 11
-31.1361
 21
60.9153
  0
LINE
  8
0
 10
-31.1361
 20
60.9153
 11
-31.06
 21
60.9662
  0
LINE
  8
0
 10
-31.06
 20
60.9662
 11
-30.9779
 21
61.0067
  0
LINE
  8
0
 10
-30.9779
 20
61.0067
 11
-30.8912
 21
61.0361
  0
LINE
  8
0
 10
-30.8912
 20
61.0361
 11
-30.8014
 21
61.054
  0
LINE
  8
0
 10
-30.8014
 20
61.054
 11
-30.71
 21
61.06
  0
LINE
  8
0
 10
-30.71
 20
61.06
 11
-30.6186
 21
61.054
  0
LINE
  8
0
 10
-30.6186
 20
61.054
 11
-30.5288
 21
61.0361
  0
LINE
  8
0
 10
-30.5288
 20
61.0361
 11
-30.4421
 21
61.0067
  0
LINE
  8
0
 10
-30.4421
 20
61.0067
 11
-30.36
 21
60.9662
  0
LINE
  8
0
 10
-30.36
 20
60.9662
 11
-30.2839
 21
60.9153
  0
LINE
  8
0
 10
-30.2839
 20
60.9153
 11
-30.215
 21
60.855
  0
LINE
  8
0
 10
-30.215
 20
60.855
 11
-30.1547
 21
60.7861
  0
LINE
  8
0
 10
-30.1547
 20
60.7861
 11
-30.1038
 21
60.71
  0
LINE
  8
0
 10
-30.1038
 20
60.71
 11
-30.0633
 21
60.6279
  0
LINE
  8
0
 10
-30.0633
 20
60.6279
 11
-30.0339
 21
60.5412
  0
LINE
  8
0
 10
-30.0339
 20
60.5412
 11
-30.016
 21
60.4514
  0
LINE
  8
0
 10
-30.016
 20
60.4514
 11
-30.01
 21
60.36
  0
LINE
  8
0
 10
-30.01
 20
60.36
 11
-30.016
 21
60.2686
  0
LINE
  8
0
 10
-30.016
 20
60.2686
 11
-30.0339
 21
60.1788
  0
LINE
  8
0
 10
-30.0339
 20
60.1788
 11
-30.0633
 21
60.0921
  0
LINE
  8
0
 10
-30.0633
 20
60.0921
 11
-30.1038
 21
60.01
  0
LINE
  8
0
 10
-30.1038
 20
60.01
 11
-30.1547
 21
59.9339
  0
LINE
  8
0
 10
-30.1547
 20
59.9339
 11
-30.215
 21
59.865
  0
LINE
  8
0
 10
-30.215
 20
59.865
 11
-30.2839
 21
59.8046
  0
LINE
  8
0
 10
-30.2839
 20
59.8046
 11
-30.36
 21
59.7538
  0
LINE
  8
0
 10
-30.36
 20
59.7538
 11
-30.4421
 21
59.7133
  0
LINE
  8
0
 10
-30.4421
 20
59.7133
 11
-30.5288
 21
59.6838
  0
LINE
  8
0
 10
-30.5288
 20
59.6838
 11
-30.6186
 21
59.666
  0
LINE
  8
0
 10
-30.6186
 20
59.666
 11
-30.71
 21
59.66
  0
LINE
  8
0
 10
-30.71
 20
59.66
 11
-30.8014
 21
59.666
  0
LINE
  8
0
 10
-30.8014
 20
59.666
 11
-30.8912
 21
59.6838
  0
LINE
  8
0
 10
-30.8912
 20
59.6838
 11
-30.9779
 21
59.7133
  0
LINE
  8
0
 10
-30.9779
 20
59.7133
 11
-31.06
 21
59.7538
  0
LINE
  8
0
 10
-31.06
 20
59.7538
 11
-31.1361
 21
59.8046
  0
LINE
  8
0
 10
-31.1361
 20
59.8046
 11
-31.205
 21
59.865
  0
LINE
  8
0
 10
-31.205
 20
59.865
 11
-31.2654
 21
59.9339
  0
LINE
  8
0
 10
-31.2654
 20
59.9339
 11
-31.3162
 21
60.01
  0
LINE
  8
0
 10
-31.3162
 20
60.01
 11
-31.3567
 21
60.0921
  0
LINE
  8
0
 10
-31.3567
 20
60.0921
 11
-31.3862
 21
60.1788
  0
LINE
  8
0
 10
-31.3862
 20
60.1788
 11
-31.404
 21
60.2686
  0
LINE
  8
0
 10
-31.404
 20
60.2686
 11
-31.41
 21
60.36
  0
LINE
  8
0
 10
-30.44
 20
95.48
 11
-30.44
 21
103.98
  0
LINE
  8
0
 10
-30.44
 20
103.98
 11
-16.24
 21
103.98
  0
LINE
  8
0
 10
-16.24
 20
103.98
 11
-16.24
 21
106.34
  0
LINE
  8
0
 10
-16.24
 20
106.34
 11
-8.74
 21
106.34
  0
LINE
  8
0
 10
-8.74
 20
106.34
 11
-8.74
 21
103.98
  0
LINE
  8
0
 10
-8.74
 20
103.98
 11
-3.04
 21
103.98
  0
LINE
  8
0
 10
-3.04
 20
103.98
 11
-3.04
 21
95.48
  0
LINE
  8
0
 10
-3.04
 20
95.48
 11
-8.58
 21
95.48
  0
LINE
  8
0
 10
-8.58
 20
95.48
 11
-8.58
 21
90.84
  0
LINE
  8
0
 10
-8.58
 20
90.84
 11
-24.9
 21
90.84
  0
LINE
  8
0
 10
-24.9
 20
90.84
 11
-24.9
 21
95.48
  0
LINE
  8
0
 10
-24.9
 20
95.48
 11
-30.44
 21
95.48
  0
LINE
  8
0
 10
-27.6
 20
93.38
 11
-27.594
 21
93.4714
  0
LINE
  8
0
 10
-27.594
 20
93.4714
 11
-27.5761
 21
93.5612
  0
LINE
  8
0
 10
-27.5761
 20
93.5612
 11
-27.5467
 21
93.6479
  0
LINE
  8
0
 10
-27.5467
 20
93.6479
 11
-27.5062
 21
93.73
  0
LINE
  8
0
 10
-27.5062
 20
93.73
 11
-27.4553
 21
93.8061
  0
LINE
  8
0
 10
-27.4553
 20
93.8061
 11
-27.395
 21
93.875
  0
LINE
  8
0
 10
-27.395
 20
93.875
 11
-27.3261
 21
93.9353
  0
LINE
  8
0
 10
-27.3261
 20
93.9353
 11
-27.25
 21
93.9862
  0
LINE
  8
0
 10
-27.25
 20
93.9862
 11
-27.1679
 21
94.0267
  0
LINE
  8
0
 10
-27.1679
 20
94.0267
 11
-27.0812
 21
94.0561
  0
LINE
  8
0
 10
-27.0812
 20
94.0561
 11
-26.9914
 21
94.074
  0
LINE
  8
0
 10
-26.9914
 20
94.074
 11
-26.9
 21
94.08
  0
LINE
  8
0
 10
-26.9
 20
94.08
 11
-26.8086
 21
94.074
  0
LINE
  8
0
 10
-26.8086
 20
94.074
 11
-26.7188
 21
94.0561
  0
LINE
  8
0
 10
-26.7188
 20
94.0561
 11
-26.6321
 21
94.0267
  0
LINE
  8
0
 10
-26.6321
 20
94.0267
 11
-26.55
 21
93.9862
  0
LINE
  8
0
 10
-26.55
 20
93.9862
 11
-26.4739
 21
93.9353
  0
LINE
  8
0
 10
-26.4739
 20
93.9353
 11
-26.405
 21
93.875
  0
LINE
  8
0
 10
-26.405
 20
93.875
 11
-26.3447
 21
93.8061
  0
LINE
  8
0
 10
-26.3447
 20
93.8061
 11
-26.2938
 21
93.73
  0
LINE
  8
0
 10
-26.2938
 20
93.73
 11
-26.2533
 21
93.6479
  0
LINE
  8
0
 10
-26.2533
 20
93.6479
 11
-26.2239
 21
93.5612
  0
LINE
  8
0
 10
-26.2239
 20
93.5612
 11
-26.206
 21
93.4714
  0
LINE
  8
0
 10
-26.206
 20
93.4714
 11
-26.2
 21
93.38
  0
LINE
  8
0
 10
-26.2
 20
93.38
 11
-26.206
 21
93.2886
  0
LINE
  8
0
 10
-26.206
 20
93.2886
 11
-26.2239
 21
93.1988
  0
LINE
  8
0
 10
-26.2239
 20
93.1988
 11
-26.2533
 21
93.1121
  0
LINE
  8
0
 10
-26.2533
 20
93.1121
 11
-26.2938
 21
93.03
  0
LINE
  8
0
 10
-26.2938
 20
93.03
 11
-26.3447
 21
92.9539
  0
LINE
  8
0
 10
-26.3447
 20
92.9539
 11
-26.405
 21
92.885
  0
LINE
  8
0
 10
-26.405
 20
92.885
 11
-26.4739
 21
92.8247
  0
LINE
  8
0
 10
-26.4739
 20
92.8247
 11
-26.55
 21
92.7738
  0
LINE
  8
0
 10
-26.55
 20
92.7738
 11
-26.6321
 21
92.7333
  0
LINE
  8
0
 10
-26.6321
 20
92.7333
 11
-26.7188
 21
92.7039
  0
LINE
  8
0
 10
-26.7188
 20
92.7039
 11
-26.8086
 21
92.686
  0
LINE
  8
0
 10
-26.8086
 20
92.686
 11
-26.9
 21
92.68
  0
LINE
  8
0
 10
-26.9
 20
92.68
 11
-26.9914
 21
92.686
  0
LINE
  8
0
 10
-26.9914
 20
92.686
 11
-27.0812
 21
92.7039
  0
LINE
  8
0
 10
-27.0812
 20
92.7039
 11
-27.1679
 21
92.7333
  0
LINE
  8
0
 10
-27.1679
 20
92.7333
 11
-27.25
 21
92.7738
  0
LINE
  8
0
 10
-27.25
 20
92.7738
 11
-27.3261
 21
92.8247
  0
LINE
  8
0
 10
-27.3261
 20
92.8247
 11
-27.395
 21
92.885
  0
LINE
  8
0
 10
-27.395
 20
92.885
 11
-27.4553
 21
92.9539
  0
LINE
  8
0
 10
-27.4553
 20
92.9539
 11
-27.5062
 21
93.03
  0
LINE
  8
0
 10
-27.5062
 20
93.03
 11
-27.5467
 21
93.1121
  0
LINE
  8
0
 10
-27.5467
 20
93.1121
 11
-27.5761
 21
93.1988
  0
LINE
  8
0
 10
-27.5761
 20
93.1988
 11
-27.594
 21
93.2886
  0
LINE
  8
0
 10
-27.594
 20
93.2886
 11
-27.6
 21
93.38
  0
LINE
  8
0
 10
-27.6
 20
106.08
 11
-27.594
 21
106.171
  0
LINE
  8
0
 10
-27.594
 20
106.171
 11
-27.5761
 21
106.261
  0
LINE
  8
0
 10
-27.5761
 20
106.261
 11
-27.5467
 21
106.348
  0
LINE
  8
0
 10
-27.5467
 20
106.348
 11
-27.5062
 21
106.43
  0
LINE
  8
0
 10
-27.5062
 20
106.43
 11
-27.4553
 21
106.506
  0
LINE
  8
0
 10
-27.4553
 20
106.506
 11
-27.395
 21
106.575
  0
LINE
  8
0
 10
-27.395
 20
106.575
 11
-27.3261
 21
106.635
  0
LINE
  8
0
 10
-27.3261
 20
106.635
 11
-27.25
 21
106.686
  0
LINE
  8
0
 10
-27.25
 20
106.686
 11
-27.1679
 21
106.727
  0
LINE
  8
0
 10
-27.1679
 20
106.727
 11
-27.0812
 21
106.756
  0
LINE
  8
0
 10
-27.0812
 20
106.756
 11
-26.9914
 21
106.774
  0
LINE
  8
0
 10
-26.9914
 20
106.774
 11
-26.9
 21
106.78
  0
LINE
  8
0
 10
-26.9
 20
106.78
 11
-26.8086
 21
106.774
  0
LINE
  8
0
 10
-26.8086
 20
106.774
 11
-26.7188
 21
106.756
  0
LINE
  8
0
 10
-26.7188
 20
106.756
 11
-26.6321
 21
106.727
  0
LINE
  8
0
 10
-26.6321
 20
106.727
 11
-26.55
 21
106.686
  0
LINE
  8
0
 10
-26.55
 20
106.686
 11
-26.4739
 21
106.635
  0
LINE
  8
0
 10
-26.4739
 20
106.635
 11
-26.405
 21
106.575
  0
LINE
  8
0
 10
-26.405
 20
106.575
 11
-26.3447
 21
106.506
  0
LINE
  8
0
 10
-26.3447
 20
106.506
 11
-26.2938
 21
106.43
  0
LINE
  8
0
 10
-26.2938
 20
106.43
 11
-26.2533
 21
106.348
  0
LINE
  8
0
 10
-26.2533
 20
106.348
 11
-26.2239
 21
106.261
  0
LINE
  8
0
 10
-26.2239
 20
106.261
 11
-26.206
 21
106.171
  0
LINE
  8
0
 10
-26.206
 20
106.171
 11
-26.2
 21
106.08
  0
LINE
  8
0
 10
-26.2
 20
106.08
 11
-26.206
 21
105.989
  0
LINE
  8
0
 10
-26.206
 20
105.989
 11
-26.2239
 21
105.899
  0
LINE
  8
0
 10
-26.2239
 20
105.899
 11
-26.2533
 21
105.812
  0
LINE
  8
0
 10
-26.2533
 20
105.812
 11
-26.2938
 21
105.73
  0
LINE
  8
0
 10
-26.2938
 20
105.73
 11
-26.3447
 21
105.654
  0
LINE
  8
0
 10
-26.3447
 20
105.654
 11
-26.405
 21
105.585
  0
LINE
  8
0
 10
-26.405
 20
105.585
 11
-26.4739
 21
105.525
  0
LINE
  8
0
 10
-26.4739
 20
105.525
 11
-26.55
 21
105.474
  0
LINE
  8
0
 10
-26.55
 20
105.474
 11
-26.6321
 21
105.433
  0
LINE
  8
0
 10
-26.6321
 20
105.433
 11
-26.7188
 21
105.404
  0
LINE
  8
0
 10
-26.7188
 20
105.404
 11
-26.8086
 21
105.386
  0
LINE
  8
0
 10
-26.8086
 20
105.386
 11
-26.9
 21
105.38
  0
LINE
  8
0
 10
-26.9
 20
105.38
 11
-26.9914
 21
105.386
  0
LINE
  8
0
 10
-26.9914
 20
105.386
 11
-27.0812
 21
105.404
  0
LINE
  8
0
 10
-27.0812
 20
105.404
 11
-27.1679
 21
105.433
  0
LINE
  8
0
 10
-27.1679
 20
105.433
 11
-27.25
 21
105.474
  0
LINE
  8
0
 10
-27.25
 20
105.474
 11
-27.3261
 21
105.525
  0
LINE
  8
0
 10
-27.3261
 20
105.525
 11
-27.395
 21
105.585
  0
LINE
  8
0
 10
-27.395
 20
105.585
 11
-27.4553
 21
105.654
  0
LINE
  8
0
 10
-27.4553
 20
105.654
 11
-27.5062
 21
105.73
  0
LINE
  8
0
 10
-27.5062
 20
105.73
 11
-27.5467
 21
105.812
  0
LINE
  8
0
 10
-27.5467
 20
105.812
 11
-27.5761
 21
105.899
  0
LINE
  8
0
 10
-27.5761
 20
105.899
 11
-27.594
 21
105.989
  0
LINE
  8
0
 10
-27.594
 20
105.989
 11
-27.6
 21
106.08
  0
LINE
  8
0
 10
-21.16
 20
50.38
 11
-21.16
 21
60.38
  0
LINE
  8
0
 10
-21.16
 20
60.38
 11
-15.66
 21
60.38
  0
LINE
  8
0
 10
-15.66
 20
60.38
 11
-15.66
 21
64.88
  0
LINE
  8
0
 10
-15.66
 20
64.88
 11
-7.66
 21
64.88
  0
LINE
  8
0
 10
-7.66
 20
64.88
 11
-7.66
 21
60.38
  0
LINE
  8
0
 10
-7.66
 20
60.38
 11
-2.16
 21
60.38
  0
LINE
  8
0
 10
-2.16
 20
60.38
 11
-2.16
 21
50.38
  0
LINE
  8
0
 10
-2.16
 20
50.38
 11
-4.41
 21
50.38
  0
LINE
  8
0
 10
-4.41
 20
50.38
 11
-4.41
 21
44.88
  0
LINE
  8
0
 10
-4.41
 20
44.88
 11
-18.91
 21
44.88
  0
LINE
  8
0
 10
-18.91
 20
44.88
 11
-18.91
 21
50.38
  0
LINE
  8
0
 10
-18.91
 20
50.38
 11
-21.16
 21
50.38
  0
LINE
  8
0
 10
-21.16
 20
73.24
 11
-21.16
 21
83.24
  0
LINE
  8
0
 10
-21.16
 20
83.24
 11
-15.66
 21
83.24
  0
LINE
  8
0
 10
-15.66
 20
83.24
 11
-15.66
 21
87.74
  0
LINE
  8
0
 10
-15.66
 20
87.74
 11
-7.66
 21
87.74
  0
LINE
  8
0
 10
-7.66
 20
87.74
 11
-7.66
 21
83.24
  0
LINE
  8
0
 10
-7.66
 20
83.24
 11
-2.16
 21
83.24
  0
LINE
  8
0
 10
-2.16
 20
83.24
 11
-2.16
 21
73.24
  0
LINE
  8
0
 10
-2.16
 20
73.24
 11
-4.41
 21
73.24
  0
LINE
  8
0
 10
-4.41
 20
73.24
 11
-4.41
 21
67.74
  0
LINE
  8
0
 10
-4.41
 20
67.74
 11
-18.91
 21
67.74
  0
LINE
  8
0
 10
-18.91
 20
67.74
 11
-18.91
 21
73.24
  0
LINE
  8
0
 10
-18.91
 20
73.24
 11
-21.16
 21
73.24
  0
LINE
  8
0
 10
-19.41
 20
62.43
 11
-19.404
 21
62.5214
  0
LINE
  8
0
 10
-19.404
 20
62.5214
 11
-19.3861
 21
62.6112
  0
LINE
  8
0
 10
-19.3861
 20
62.6112
 11
-19.3567
 21
62.6979
  0
LINE
  8
0
 10
-19.3567
 20
62.6979
 11
-19.3162
 21
62.78
  0
LINE
  8
0
 10
-19.3162
 20
62.78
 11
-19.2653
 21
62.8561
  0
LINE
  8
0
 10
-19.2653
 20
62.8561
 11
-19.205
 21
62.925
  0
LINE
  8
0
 10
-19.205
 20
62.925
 11
-19.1361
 21
62.9853
  0
LINE
  8
0
 10
-19.1361
 20
62.9853
 11
-19.06
 21
63.0362
  0
LINE
  8
0
 10
-19.06
 20
63.0362
 11
-18.9779
 21
63.0767
  0
LINE
  8
0
 10
-18.9779
 20
63.0767
 11
-18.8912
 21
63.1061
  0
LINE
  8
0
 10
-18.8912
 20
63.1061
 11
-18.8014
 21
63.124
  0
LINE
  8
0
 10
-18.8014
 20
63.124
 11
-18.71
 21
63.13
  0
LINE
  8
0
 10
-18.71
 20
63.13
 11
-18.6186
 21
63.124
  0
LINE
  8
0
 10
-18.6186
 20
63.124
 11
-18.5288
 21
63.1061
  0
LINE
  8
0
 10
-18.5288
 20
63.1061
 11
-18.4421
 21
63.0767
  0
LINE
  8
0
 10
-18.4421
 20
63.0767
 11
-18.36
 21
63.0362
  0
LINE
  8
0
 10
-18.36
 20
63.0362
 11
-18.2839
 21
62.9853
  0
LINE
  8
0
 10
-18.2839
 20
62.9853
 11
-18.215
 21
62.925
  0
LINE
  8
0
 10
-18.215
 20
62.925
 11
-18.1547
 21
62.8561
  0
LINE
  8
0
 10
-18.1547
 20
62.8561
 11
-18.1038
 21
62.78
  0
LINE
  8
0
 10
-18.1038
 20
62.78
 11
-18.0633
 21
62.6979
  0
LINE
  8
0
 10
-18.0633
 20
62.6979
 11
-18.0339
 21
62.6112
  0
LINE
  8
0
 10
-18.0339
 20
62.6112
 11
-18.016
 21
62.5214
  0
LINE
  8
0
 10
-18.016
 20
62.5214
 11
-18.01
 21
62.43
  0
LINE
  8
0
 10
-18.01
 20
62.43
 11
-18.016
 21
62.3386
  0
LINE
  8
0
 10
-18.016
 20
62.3386
 11
-18.0339
 21
62.2488
  0
LINE
  8
0
 10
-18.0339
 20
62.2488
 11
-18.0633
 21
62.1621
  0
LINE
  8
0
 10
-18.0633
 20
62.1621
 11
-18.1038
 21
62.08
  0
LINE
  8
0
 10
-18.1038
 20
62.08
 11
-18.1547
 21
62.0039
  0
LINE
  8
0
 10
-18.1547
 20
62.0039
 11
-18.215
 21
61.935
  0
LINE
  8
0
 10
-18.215
 20
61.935
 11
-18.2839
 21
61.8747
  0
LINE
  8
0
 10
-18.2839
 20
61.8747
 11
-18.36
 21
61.8238
  0
LINE
  8
0
 10
-18.36
 20
61.8238
 11
-18.4421
 21
61.7833
  0
LINE
  8
0
 10
-18.4421
 20
61.7833
 11
-18.5288
 21
61.7539
  0
LINE
  8
0
 10
-18.5288
 20
61.7539
 11
-18.6186
 21
61.736
  0
LINE
  8
0
 10
-18.6186
 20
61.736
 11
-18.71
 21
61.73
  0
LINE
  8
0
 10
-18.71
 20
61.73
 11
-18.8014
 21
61.736
  0
LINE
  8
0
 10
-18.8014
 20
61.736
 11
-18.8912
 21
61.7539
  0
LINE
  8
0
 10
-18.8912
 20
61.7539
 11
-18.9779
 21
61.7833
  0
LINE
  8
0
 10
-18.9779
 20
61.7833
 11
-19.06
 21
61.8238
  0
LINE
  8
0
 10
-19.06
 20
61.8238
 11
-19.1361
 21
61.8747
  0
LINE
  8
0
 10
-19.1361
 20
61.8747
 11
-19.205
 21
61.935
  0
LINE
  8
0
 10
-19.205
 20
61.935
 11
-19.2653
 21
62.0039
  0
LINE
  8
0
 10
-19.2653
 20
62.0039
 11
-19.3162
 21
62.08
  0
LINE
  8
0
 10
-19.3162
 20
62.08
 11
-19.3567
 21
62.1621
  0
LINE
  8
0
 10
-19.3567
 20
62.1621
 11
-19.3861
 21
62.2488
  0
LINE
  8
0
 10
-19.3861
 20
62.2488
 11
-19.404
 21
62.3386
  0
LINE
  8
0
 10
-19.404
 20
62.3386
 11
-19.41
 21
62.43
  0
LINE
  8
0
 10
-19.41
 20
85.29
 11
-19.404
 21
85.3814
  0
LINE
  8
0
 10
-19.404
 20
85.3814
 11
-19.3861
 21
85.4712
  0
LINE
  8
0
 10
-19.3861
 20
85.4712
 11
-19.3567
 21
85.5579
  0
LINE
  8
0
 10
-19.3567
 20
85.5579
 11
-19.3162
 21
85.64
  0
LINE
  8
0
 10
-19.3162
 20
85.64
 11
-19.2653
 21
85.7161
  0
LINE
  8
0
 10
-19.2653
 20
85.7161
 11
-19.205
 21
85.785
  0
LINE
  8
0
 10
-19.205
 20
85.785
 11
-19.1361
 21
85.8453
  0
LINE
  8
0
 10
-19.1361
 20
85.8453
 11
-19.06
 21
85.8962
  0
LINE
  8
0
 10
-19.06
 20
85.8962
 11
-18.9779
 21
85.9367
  0
LINE
  8
0
 10
-18.9779
 20
85.9367
 11
-18.8912
 21
85.9661
  0
LINE
  8
0
 10
-18.8912
 20
85.9661
 11
-18.8014
 21
85.984
  0
LINE
  8
0
 10
-18.8014
 20
85.984
 11
-18.71
 21
85.99
  0
LINE
  8
0
 10
-18.71
 20
85.99
 11
-18.6186
 21
85.984
  0
LINE
  8
0
 10
-18.6186
 20
85.984
 11
-18.5288
 21
85.9661
  0
LINE
  8
0
 10
-18.5288
 20
85.9661
 11
-18.4421
 21
85.9367
  0
LINE
  8
0
 10
-18.4421
 20
85.9367
 11
-18.36
 21
85.8962
  0
LINE
  8
0
 10
-18.36
 20
85.8962
 11
-18.2839
 21
85.8453
  0
LINE
  8
0
 10
-18.2839
 20
85.8453
 11
-18.215
 21
85.785
  0
LINE
  8
0
 10
-18.215
 20
85.785
 11
-18.1547
 21
85.7161
  0
LINE
  8
0
 10
-18.1547
 20
85.7161
 11
-18.1038
 21
85.64
  0
LINE
  8
0
 10
-18.1038
 20
85.64
 11
-18.0633
 21
85.5579
  0
LINE
  8
0
 10
-18.0633
 20
85.5579
 11
-18.0339
 21
85.4712
  0
LINE
  8
0
 10
-18.0339
 20
85.4712
 11
-18.016
 21
85.3814
  0
LINE
  8
0
 10
-18.016
 20
85.3814
 11
-18.01
 21
85.29
  0
LINE
  8
0
 10
-18.01
 20
85.29
 11
-18.016
 21
85.1986
  0
LINE
  8
0
 10
-18.016
 20
85.1986
 11
-18.0339
 21
85.1088
  0
LINE
  8
0
 10
-18.0339
 20
85.1088
 11
-18.0633
 21
85.0221
  0
LINE
  8
0
 10
-18.0633
 20
85.0221
 11
-18.1038
 21
84.94
  0
LINE
  8
0
 10
-18.1038
 20
84.94
 11
-18.1547
 21
84.8639
  0
LINE
  8
0
 10
-18.1547
 20
84.8639
 11
-18.215
 21
84.795
  0
LINE
  8
0
 10
-18.215
 20
84.795
 11
-18.2839
 21
84.7347
  0
LINE
  8
0
 10
-18.2839
 20
84.7347
 11
-18.36
 21
84.6838
  0
LINE
  8
0
 10
-18.36
 20
84.6838
 11
-18.4421
 21
84.6433
  0
LINE
  8
0
 10
-18.4421
 20
84.6433
 11
-18.5288
 21
84.6139
  0
LINE
  8
0
 10
-18.5288
 20
84.6139
 11
-18.6186
 21
84.596
  0
LINE
  8
0
 10
-18.6186
 20
84.596
 11
-18.71
 21
84.59
  0
LINE
  8
0
 10
-18.71
 20
84.59
 11
-18.8014
 21
84.596
  0
LINE
  8
0
 10
-18.8014
 20
84.596
 11
-18.8912
 21
84.6139
  0
LINE
  8
0
 10
-18.8912
 20
84.6139
 11
-18.9779
 21
84.6433
  0
LINE
  8
0
 10
-18.9779
 20
84.6433
 11
-19.06
 21
84.6838
  0
LINE
  8
0
 10
-19.06
 20
84.6838
 11
-19.1361
 21
84.7347
  0
LINE
  8
0
 10
-19.1361
 20
84.7347
 11
-19.205
 21
84.795
  0
LINE
  8
0
 10
-19.205
 20
84.795
 11
-19.2653
 21
84.8639
  0
LINE
  8
0
 10
-19.2653
 20
84.8639
 11
-19.3162
 21
84.94
  0
LINE
  8
0
 10
-19.3162
 20
84.94
 11
-19.3567
 21
85.0221
  0
LINE
  8
0
 10
-19.3567
 20
85.0221
 11
-19.3861
 21
85.1088
  0
LINE
  8
0
 10
-19.3861
 20
85.1088
 11
-19.404
 21
85.1986
  0
LINE
  8
0
 10
-19.404
 20
85.1986
 11
-19.41
 21
85.29
  0
LINE
  8
0
 10
-7.28
 20
93.38
 11
-7.27402
 21
93.4714
  0
LINE
  8
0
 10
-7.27402
 20
93.4714
 11
-7.25616
 21
93.5612
  0
LINE
  8
0
 10
-7.25616
 20
93.5612
 11
-7.22672
 21
93.6479
  0
LINE
  8
0
 10
-7.22672
 20
93.6479
 11
-7.18622
 21
93.73
  0
LINE
  8
0
 10
-7.18622
 20
93.73
 11
-7.13535
 21
93.8061
  0
LINE
  8
0
 10
-7.13535
 20
93.8061
 11
-7.07499
 21
93.875
  0
LINE
  8
0
 10
-7.07499
 20
93.875
 11
-7.00614
 21
93.9353
  0
LINE
  8
0
 10
-7.00614
 20
93.9353
 11
-6.93001
 21
93.9862
  0
LINE
  8
0
 10
-6.93001
 20
93.9862
 11
-6.84789
 21
94.0267
  0
LINE
  8
0
 10
-6.84789
 20
94.0267
 11
-6.76118
 21
94.0561
  0
LINE
  8
0
 10
-6.76118
 20
94.0561
 11
-6.67138
 21
94.074
  0
LINE
  8
0
 10
-6.67138
 20
94.074
 11
-6.58001
 21
94.08
  0
LINE
  8
0
 10
-6.58001
 20
94.08
 11
-6.48864
 21
94.074
  0
LINE
  8
0
 10
-6.48864
 20
94.074
 11
-6.39884
 21
94.0561
  0
LINE
  8
0
 10
-6.39884
 20
94.0561
 11
-6.31212
 21
94.0267
  0
LINE
  8
0
 10
-6.31212
 20
94.0267
 11
-6.23
 21
93.9862
  0
LINE
  8
0
 10
-6.23
 20
93.9862
 11
-6.15388
 21
93.9353
  0
LINE
  8
0
 10
-6.15388
 20
93.9353
 11
-6.08503
 21
93.875
  0
LINE
  8
0
 10
-6.08503
 20
93.875
 11
-6.02466
 21
93.8061
  0
LINE
  8
0
 10
-6.02466
 20
93.8061
 11
-5.97379
 21
93.73
  0
LINE
  8
0
 10
-5.97379
 20
93.73
 11
-5.93329
 21
93.6479
  0
LINE
  8
0
 10
-5.93329
 20
93.6479
 11
-5.90386
 21
93.5612
  0
LINE
  8
0
 10
-5.90386
 20
93.5612
 11
-5.88599
 21
93.4714
  0
LINE
  8
0
 10
-5.88599
 20
93.4714
 11
-5.88001
 21
93.38
  0
LINE
  8
0
 10
-5.88001
 20
93.38
 11
-5.88599
 21
93.2886
  0
LINE
  8
0
 10
-5.88599
 20
93.2886
 11
-5.90386
 21
93.1988
  0
LINE
  8
0
 10
-5.90386
 20
93.1988
 11
-5.93329
 21
93.1121
  0
LINE
  8
0
 10
-5.93329
 20
93.1121
 11
-5.97379
 21
93.03
  0
LINE
  8
0
 10
-5.97379
 20
93.03
 11
-6.02466
 21
92.9539
  0
LINE
  8
0
 10
-6.02466
 20
92.9539
 11
-6.08503
 21
92.885
  0
LINE
  8
0
 10
-6.08503
 20
92.885
 11
-6.15388
 21
92.8247
  0
LINE
  8
0
 10
-6.15388
 20
92.8247
 11
-6.23
 21
92.7738
  0
LINE
  8
0
 10
-6.23
 20
92.7738
 11
-6.31212
 21
92.7333
  0
LINE
  8
0
 10
-6.31212
 20
92.7333
 11
-6.39884
 21
92.7039
  0
LINE
  8
0
 10
-6.39884
 20
92.7039
 11
-6.48864
 21
92.686
  0
LINE
  8
0
 10
-6.48864
 20
92.686
 11
-6.58001
 21
92.68
  0
LINE
  8
0
 10
-6.58001
 20
92.68
 11
-6.67138
 21
92.686
  0
LINE
  8
0
 10
-6.67138
 20
92.686
 11
-6.76118
 21
92.7039
  0
LINE
  8
0
 10
-6.76118
 20
92.7039
 11
-6.84789
 21
92.7333
  0
LINE
  8
0
 10
-6.84789
 20
92.7333
 11
-6.93001
 21
92.7738
  0
LINE
  8
0
 10
-6.93001
 20
92.7738
 11
-7.00614
 21
92.8247
  0
LINE
  8
0
 10
-7.00614
 20
92.8247
 11
-7.07499
 21
92.885
  0
LINE
  8
0
 10
-7.07499
 20
92.885
 11
-7.13535
 21
92.9539
  0
LINE
  8
0
 10
-7.13535
 20
92.9539
 11
-7.18622
 21
93.03
  0
LINE
  8
0
 10
-7.18622
 20
93.03
 11
-7.22672
 21
93.1121
  0
LINE
  8
0
 10
-7.22672
 20
93.1121
 11
-7.25616
 21
93.1988
  0
LINE
  8
0
 10
-7.25616
 20
93.1988
 11
-7.27402
 21
93.2886
  0
LINE
  8
0
 10
-7.27402
 20
93.2886
 11
-7.28
 21
93.38
  0
LINE
  8
0
 10
-7.28
 20
106.08
 11
-7.27402
 21
106.171
  0
LINE
  8
0
 10
-7.27402
 20
106.171
 11
-7.25616
 21
106.261
  0
LINE
  8
0
 10
-7.25616
 20
106.261
 11
-7.22672
 21
106.348
  0
LINE
  8
0
 10
-7.22672
 20
106.348
 11
-7.18622
 21
106.43
  0
LINE
  8
0
 10
-7.18622
 20
106.43
 11
-7.13535
 21
106.506
  0
LINE
  8
0
 10
-7.13535
 20
106.506
 11
-7.07499
 21
106.575
  0
LINE
  8
0
 10
-7.07499
 20
106.575
 11
-7.00614
 21
106.635
  0
LINE
  8
0
 10
-7.00614
 20
106.635
 11
-6.93001
 21
106.686
  0
LINE
  8
0
 10
-6.93001
 20
106.686
 11
-6.84789
 21
106.727
  0
LINE
  8
0
 10
-6.84789
 20
106.727
 11
-6.76118
 21
106.756
  0
LINE
  8
0
 10
-6.76118
 20
106.756
 11
-6.67138
 21
106.774
  0
LINE
  8
0
 10
-6.67138
 20
106.774
 11
-6.58001
 21
106.78
  0
LINE
  8
0
 10
-6.58001
 20
106.78
 11
-6.48864
 21
106.774
  0
LINE
  8
0
 10
-6.48864
 20
106.774
 11
-6.39884
 21
106.756
  0
LINE
  8
0
 10
-6.39884
 20
106.756
 11
-6.31212
 21
106.727
  0
LINE
  8
0
 10
-6.31212
 20
106.727
 11
-6.23
 21
106.686
  0
LINE
  8
0
 10
-6.23
 20
106.686
 11
-6.15388
 21
106.635
  0
LINE
  8
0
 10
-6.15388
 20
106.635
 11
-6.08503
 21
106.575
  0
LINE
  8
0
 10
-6.08503
 20
106.575
 11
-6.02466
 21
106.506
  0
LINE
  8
0
 10
-6.02466
 20
106.506
 11
-5.97379
 21
106.43
  0
LINE
  8
0
 10
-5.97379
 20
106.43
 11
-5.93329
 21
106.348
  0
LINE
  8
0
 10
-5.93329
 20
106.348
 11
-5.90386
 21
106.261
  0
LINE
  8
0
 10
-5.90386
 20
106.261
 11
-5.88599
 21
106.171
  0
LINE
  8
0
 10
-5.88599
 20
106.171
 11
-5.88001
 21
106.08
  0
LINE
  8
0
 10
-5.88001
 20
106.08
 11
-5.88599
 21
105.989
  0
LINE
  8
0
 10
-5.88599
 20
105.989
 11
-5.90386
 21
105.899
  0
LINE
  8
0
 10
-5.90386
 20
105.899
 11
-5.93329
 21
105.812
  0
LINE
  8
0
 10
-5.93329
 20
105.812
 11
-5.97379
 21
105.73
  0
LINE
  8
0
 10
-5.97379
 20
105.73
 11
-6.02466
 21
105.654
  0
LINE
  8
0
 10
-6.02466
 20
105.654
 11
-6.08503
 21
105.585
  0
LINE
  8
0
 10
-6.08503
 20
105.585
 11
-6.15388
 21
105.525
  0
LINE
  8
0
 10
-6.15388
 20
105.525
 11
-6.23
 21
105.474
  0
LINE
  8
0
 10
-6.23
 20
105.474
 11
-6.31212
 21
105.433
  0
LINE
  8
0
 10
-6.31212
 20
105.433
 11
-6.39884
 21
105.404
  0
LINE
  8
0
 10
-6.39884
 20
105.404
 11
-6.48864
 21
105.386
  0
LINE
  8
0
 10
-6.48864
 20
105.386
 11
-6.58001
 21
105.38
  0
LINE
  8
0
 10
-6.58001
 20
105.38
 11
-6.67138
 21
105.386
  0
LINE
  8
0
 10
-6.67138
 20
105.386
 11
-6.76118
 21
105.404
  0
LINE
  8
0
 10
-6.76118
 20
105.404
 11
-6.84789
 21
105.433
  0
LINE
  8
0
 10
-6.84789
 20
105.433
 11
-6.93001
 21
105.474
  0
LINE
  8
0
 10
-6.93001
 20
105.474
 11
-7.00614
 21
105.525
  0
LINE
  8
0
 10
-7.00614
 20
105.525
 11
-7.07499
 21
105.585
  0
LINE
  8
0
 10
-7.07499
 20
105.585
 11
-7.13535
 21
105.654
  0
LINE
  8
0
 10
-7.13535
 20
105.654
 11
-7.18622
 21
105.73
  0
LINE
  8
0
 10
-7.18622
 20
105.73
 11
-7.22672
 21
105.812
  0
LINE
  8
0
 10
-7.22672
 20
105.812
 11
-7.25616
 21
105.899
  0
LINE
  8
0
 10
-7.25616
 20
105.899
 11
-7.27402
 21
105.989
  0
LINE
  8
0
 10
-7.27402
 20
105.989
 11
-7.28
 21
106.08
  0
LINE
  8
0
 10
-5.31
 20
62.43
 11
-5.30401
 21
62.5214
  0
LINE
  8
0
 10
-5.30401
 20
62.5214
 11
-5.28615
 21
62.6112
  0
LINE
  8
0
 10
-5.28615
 20
62.6112
 11
-5.25672
 21
62.6979
  0
LINE
  8
0
 10
-5.25672
 20
62.6979
 11
-5.21622
 21
62.78
  0
LINE
  8
0
 10
-5.21622
 20
62.78
 11
-5.16535
 21
62.8561
  0
LINE
  8
0
 10
-5.16535
 20
62.8561
 11
-5.10498
 21
62.925
  0
LINE
  8
0
 10
-5.10498
 20
62.925
 11
-5.03613
 21
62.9853
  0
LINE
  8
0
 10
-5.03613
 20
62.9853
 11
-4.96
 21
63.0362
  0
LINE
  8
0
 10
-4.96
 20
63.0362
 11
-4.87788
 21
63.0767
  0
LINE
  8
0
 10
-4.87788
 20
63.0767
 11
-4.79117
 21
63.1061
  0
LINE
  8
0
 10
-4.79117
 20
63.1061
 11
-4.70137
 21
63.124
  0
LINE
  8
0
 10
-4.70137
 20
63.124
 11
-4.61
 21
63.13
  0
LINE
  8
0
 10
-4.61
 20
63.13
 11
-4.51863
 21
63.124
  0
LINE
  8
0
 10
-4.51863
 20
63.124
 11
-4.42883
 21
63.1061
  0
LINE
  8
0
 10
-4.42883
 20
63.1061
 11
-4.34212
 21
63.0767
  0
LINE
  8
0
 10
-4.34212
 20
63.0767
 11
-4.26
 21
63.0362
  0
LINE
  8
0
 10
-4.26
 20
63.0362
 11
-4.18387
 21
62.9853
  0
LINE
  8
0
 10
-4.18387
 20
62.9853
 11
-4.11503
 21
62.925
  0
LINE
  8
0
 10
-4.11503
 20
62.925
 11
-4.05465
 21
62.8561
  0
LINE
  8
0
 10
-4.05465
 20
62.8561
 11
-4.00378
 21
62.78
  0
LINE
  8
0
 10
-4.00378
 20
62.78
 11
-3.96328
 21
62.6979
  0
LINE
  8
0
 10
-3.96328
 20
62.6979
 11
-3.93385
 21
62.6112
  0
LINE
  8
0
 10
-3.93385
 20
62.6112
 11
-3.91599
 21
62.5214
  0
LINE
  8
0
 10
-3.91599
 20
62.5214
 11
-3.91
 21
62.43
  0
LINE
  8
0
 10
-3.91
 20
62.43
 11
-3.91599
 21
62.3386
  0
LINE
  8
0
 10
-3.91599
 20
62.3386
 11
-3.93385
 21
62.2488
  0
LINE
  8
0
 10
-3.93385
 20
62.2488
 11
-3.96328
 21
62.1621
  0
LINE
  8
0
 10
-3.96328
 20
62.1621
 11
-4.00378
 21
62.08
  0
LINE
  8
0
 10
-4.00378
 20
62.08
 11
-4.05465
 21
62.0039
  0
LINE
  8
0
 10
-4.05465
 20
62.0039
 11
-4.11503
 21
61.935
  0
LINE
  8
0
 10
-4.11503
 20
61.935
 11
-4.18387
 21
61.8747
  0
LINE
  8
0
 10
-4.18387
 20
61.8747
 11
-4.26
 21
61.8238
  0
LINE
  8
0
 10
-4.26
 20
61.8238
 11
-4.34212
 21
61.7833
  0
LINE
  8
0
 10
-4.34212
 20
61.7833
 11
-4.42883
 21
61.7539
  0
LINE
  8
0
 10
-4.42883
 20
61.7539
 11
-4.51863
 21
61.736
  0
LINE
  8
0
 10
-4.51863
 20
61.736
 11
-4.61
 21
61.73
  0
LINE
  8
0
 10
-4.61
 20
61.73
 11
-4.70137
 21
61.736
  0
LINE
  8
0
 10
-4.70137
 20
61.736
 11
-4.79117
 21
61.7539
  0
LINE
  8
0
 10
-4.79117
 20
61.7539
 11
-4.87788
 21
61.7833
  0
LINE
  8
0
 10
-4.87788
 20
61.7833
 11
-4.96
 21
61.8238
  0
LINE
  8
0
 10
-4.96
 20
61.8238
 11
-5.03613
 21
61.8747
  0
LINE
  8
0
 10
-5.03613
 20
61.8747
 11
-5.10498
 21
61.935
  0
LINE
  8
0
 10
-5.10498
 20
61.935
 11
-5.16535
 21
62.0039
  0
LINE
  8
0
 10
-5.16535
 20
62.0039
 11
-5.21622
 21
62.08
  0
LINE
  8
0
 10
-5.21622
 20
62.08
 11
-5.25672
 21
62.1621
  0
LINE
  8
0
 10
-5.25672
 20
62.1621
 11
-5.28615
 21
62.2488
  0
LINE
  8
0
 10
-5.28615
 20
62.2488
 11
-5.30401
 21
62.3386
  0
LINE
  8
0
 10
-5.30401
 20
62.3386
 11
-5.31
 21
62.43
  0
LINE
  8
0
 10
-5.31
 20
85.29
 11
-5.30401
 21
85.3814
  0
LINE
  8
0
 10
-5.30401
 20
85.3814
 11
-5.28615
 21
85.4712
  0
LINE
  8
0
 10
-5.28615
 20
85.4712
 11
-5.25672
 21
85.5579
  0
LINE
  8
0
 10
-5.25672
 20
85.5579
 11
-5.21622
 21
85.64
  0
LINE
  8
0
 10
-5.21622
 20
85.64
 11
-5.16535
 21
85.7161
  0
LINE
  8
0
 10
-5.16535
 20
85.7161
 11
-5.10498
 21
85.785
  0
LINE
  8
0
 10
-5.10498
 20
85.785
 11
-5.03613
 21
85.8453
  0
LINE
  8
0
 10
-5.03613
 20
85.8453
 11
-4.96
 21
85.8962
  0
LINE
  8
0
 10
-4.96
 20
85.8962
 11
-4.87788
 21
85.9367
  0
LINE
  8
0
 10
-4.87788
 20
85.9367
 11
-4.79117
 21
85.9661
  0
LINE
  8
0
 10
-4.79117
 20
85.9661
 11
-4.70137
 21
85.984
  0
LINE
  8
0
 10
-4.70137
 20
85.984
 11
-4.61
 21
85.99
  0
LINE
  8
0
 10
-4.61
 20
85.99
 11
-4.51863
 21
85.984
  0
LINE
  8
0
 10
-4.51863
 20
85.984
 11
-4.42883
 21
85.9661
  0
LINE
  8
0
 10
-4.42883
 20
85.9661
 11
-4.34212
 21
85.9367
  0
LINE
  8
0
 10
-4.34212
 20
85.9367
 11
-4.26
 21
85.8962
  0
LINE
  8
0
 10
-4.26
 20
85.8962
 11
-4.18387
 21
85.8453
  0
LINE
  8
0
 10
-4.18387
 20
85.8453
 11
-4.11503
 21
85.785
  0
LINE
  8
0
 10
-4.11503
 20
85.785
 11
-4.05465
 21
85.7161
  0
LINE
  8
0
 10
-4.05465
 20
85.7161
 11
-4.00378
 21
85.64
  0
LINE
  8
0
 10
-4.00378
 20
85.64
 11
-3.96328
 21
85.5579
  0
LINE
  8
0
 10
-3.96328
 20
85.5579
 11
-3.93385
 21
85.4712
  0
LINE
  8
0
 10
-3.93385
 20
85.4712
 11
-3.91599
 21
85.3814
  0
LINE
  8
0
 10
-3.91599
 20
85.3814
 11
-3.91
 21
85.29
  0
LINE
  8
0
 10
-3.91
 20
85.29
 11
-3.91599
 21
85.1986
  0
LINE
  8
0
 10
-3.91599
 20
85.1986
 11
-3.93385
 21
85.1088
  0
LINE
  8
0
 10
-3.93385
 20
85.1088
 11
-3.96328
 21
85.0221
  0
LINE
  8
0
 10
-3.96328
 20
85.0221
 11
-4.00378
 21
84.94
  0
LINE
  8
0
 10
-4.00378
 20
84.94
 11
-4.05465
 21
84.8639
  0
LINE
  8
0
 10
-4.05465
 20
84.8639
 11
-4.11503
 21
84.795
  0
LINE
  8
0
 10
-4.11503
 20
84.795
 11
-4.18387
 21
84.7347
  0
LINE
  8
0
 10
-4.18387
 20
84.7347
 11
-4.26
 21
84.6838
  0
LINE
  8
0
 10
-4.26
 20
84.6838
 11
-4.34212
 21
84.6433
  0
LINE
  8
0
 10
-4.34212
 20
84.6433
 11
-4.42883
 21
84.6139
  0
LINE
  8
0
 10
-4.42883
 20
84.6139
 11
-4.51863
 21
84.596
  0
LINE
  8
0
 10
-4.51863
 20
84.596
 11
-4.61
 21
84.59
  0
LINE
  8
0
 10
-4.61
 20
84.59
 11
-4.70137
 21
84.596
  0
LINE
  8
0
 10
-4.70137
 20
84.596
 11
-4.79117
 21
84.6139
  0
LINE
  8
0
 10
-4.79117
 20
84.6139
 11
-4.87788
 21
84.6433
  0
LINE
  8
0
 10
-4.87788
 20
84.6433
 11
-4.96
 21
84.6838
  0
LINE
  8
0
 10
-4.96
 20
84.6838
 11
-5.03613
 21
84.7347
  0
LINE
  8
0
 10
-5.03613
 20
84.7347
 11
-5.10498
 21
84.795
  0
LINE
  8
0
 10
-5.10498
 20
84.795
 11
-5.16535
 21
84.8639
  0
LINE
  8
0
 10
-5.16535
 20
84.8639
 11
-5.21622
 21
84.94
  0
LINE
  8
0
 10
-5.21622
 20
84.94
 11
-5.25672
 21
85.0221
  0
LINE
  8
0
 10
-5.25672
 20
85.0221
 11
-5.28615
 21
85.1088
  0
LINE
  8
0
 10
-5.28615
 20
85.1088
 11
-5.30401
 21
85.1986
  0
LINE
  8
0
 10
-5.30401
 20
85.1986
 11
-5.31
 21
85.29
  0
LINE
  8
0
 10
1.31
 20
92.94
 11
1.31
 21
101.44
  0
LINE
  8
0
 10
1.31
 20
101.44
 11
28.71
 21
101.44
  0
LINE
  8
0
 10
28.71
 20
101.44
 11
28.71
 21
92.94
  0
LINE
  8
0
 10
28.71
 20
92.94
 11
23.17
 21
92.94
  0
LINE
  8
0
 10
23.17
 20
92.94
 11
23.17
 21
88.3
  0
LINE
  8
0
 10
23.17
 20
88.3
 11
6.85
 21
88.3
  0
LINE
  8
0
 10
6.85
 20
88.3
 11
6.85
 21
92.94
  0
LINE
  8
0
 10
6.85
 20
92.94
 11
1.31
 21
92.94
  0
LINE
  8
0
 10
4.15
 20
90.84
 11
4.156
 21
90.9314
  0
LINE
  8
0
 10
4.156
 20
90.9314
 11
4.17385
 21
91.0212
  0
LINE
  8
0
 10
4.17385
 20
91.0212
 11
4.20329
 21
91.1079
  0
LINE
  8
0
 10
4.20329
 20
91.1079
 11
4.24378
 21
91.19
  0
LINE
  8
0
 10
4.24378
 20
91.19
 11
4.29466
 21
91.2661
  0
LINE
  8
0
 10
4.29466
 20
91.2661
 11
4.35504
 21
91.335
  0
LINE
  8
0
 10
4.35504
 20
91.335
 11
4.42387
 21
91.3953
  0
LINE
  8
0
 10
4.42387
 20
91.3953
 11
4.50001
 21
91.4462
  0
LINE
  8
0
 10
4.50001
 20
91.4462
 11
4.58213
 21
91.4867
  0
LINE
  8
0
 10
4.58213
 20
91.4867
 11
4.66883
 21
91.5161
  0
LINE
  8
0
 10
4.66883
 20
91.5161
 11
4.75865
 21
91.534
  0
LINE
  8
0
 10
4.75865
 20
91.534
 11
4.85
 21
91.54
  0
LINE
  8
0
 10
4.85
 20
91.54
 11
4.94135
 21
91.534
  0
LINE
  8
0
 10
4.94135
 20
91.534
 11
5.03117
 21
91.5161
  0
LINE
  8
0
 10
5.03117
 20
91.5161
 11
5.11787
 21
91.4867
  0
LINE
  8
0
 10
5.11787
 20
91.4867
 11
5.19999
 21
91.4462
  0
LINE
  8
0
 10
5.19999
 20
91.4462
 11
5.27613
 21
91.3953
  0
LINE
  8
0
 10
5.27613
 20
91.3953
 11
5.34496
 21
91.335
  0
LINE
  8
0
 10
5.34496
 20
91.335
 11
5.40534
 21
91.2661
  0
LINE
  8
0
 10
5.40534
 20
91.2661
 11
5.45622
 21
91.19
  0
LINE
  8
0
 10
5.45622
 20
91.19
 11
5.49671
 21
91.1079
  0
LINE
  8
0
 10
5.49671
 20
91.1079
 11
5.52615
 21
91.0212
  0
LINE
  8
0
 10
5.52615
 20
91.0212
 11
5.544
 21
90.9314
  0
LINE
  8
0
 10
5.544
 20
90.9314
 11
5.55
 21
90.84
  0
LINE
  8
0
 10
5.55
 20
90.84
 11
5.544
 21
90.7486
  0
LINE
  8
0
 10
5.544
 20
90.7486
 11
5.52615
 21
90.6588
  0
LINE
  8
0
 10
5.52615
 20
90.6588
 11
5.49671
 21
90.5721
  0
LINE
  8
0
 10
5.49671
 20
90.5721
 11
5.45622
 21
90.49
  0
LINE
  8
0
 10
5.45622
 20
90.49
 11
5.40534
 21
90.4139
  0
LINE
  8
0
 10
5.40534
 20
90.4139
 11
5.34496
 21
90.345
  0
LINE
  8
0
 10
5.34496
 20
90.345
 11
5.27613
 21
90.2847
  0
LINE
  8
0
 10
5.27613
 20
90.2847
 11
5.19999
 21
90.2338
  0
LINE
  8
0
 10
5.19999
 20
90.2338
 11
5.11787
 21
90.1933
  0
LINE
  8
0
 10
5.11787
 20
90.1933
 11
5.03117
 21
90.1639
  0
LINE
  8
0
 10
5.03117
 20
90.1639
 11
4.94135
 21
90.146
  0
LINE
  8
0
 10
4.94135
 20
90.146
 11
4.85
 21
90.14
  0
LINE
  8
0
 10
4.85
 20
90.14
 11
4.75865
 21
90.146
  0
LINE
  8
0
 10
4.75865
 20
90.146
 11
4.66883
 21
90.1639
  0
LINE
  8
0
 10
4.66883
 20
90.1639
 11
4.58213
 21
90.1933
  0
LINE
  8
0
 10
4.58213
 20
90.1933
 11
4.50001
 21
90.2338
  0
LINE
  8
0
 10
4.50001
 20
90.2338
 11
4.42387
 21
90.2847
  0
LINE
  8
0
 10
4.42387
 20
90.2847
 11
4.35504
 21
90.345
  0
LINE
  8
0
 10
4.35504
 20
90.345
 11
4.29466
 21
90.4139
  0
LINE
  8
0
 10
4.29466
 20
90.4139
 11
4.24378
 21
90.49
  0
LINE
  8
0
 10
4.24378
 20
90.49
 11
4.20329
 21
90.5721
  0
LINE
  8
0
 10
4.20329
 20
90.5721
 11
4.17385
 21
90.6588
  0
LINE
  8
0
 10
4.17385
 20
90.6588
 11
4.156
 21
90.7486
  0
LINE
  8
0
 10
4.156
 20
90.7486
 11
4.15
 21
90.84
  0
LINE
  8
0
 10
4.15
 20
103.54
 11
4.156
 21
103.631
  0
LINE
  8
0
 10
4.156
 20
103.631
 11
4.17385
 21
103.721
  0
LINE
  8
0
 10
4.17385
 20
103.721
 11
4.20329
 21
103.808
  0
LINE
  8
0
 10
4.20329
 20
103.808
 11
4.24378
 21
103.89
  0
LINE
  8
0
 10
4.24378
 20
103.89
 11
4.29466
 21
103.966
  0
LINE
  8
0
 10
4.29466
 20
103.966
 11
4.35504
 21
104.035
  0
LINE
  8
0
 10
4.35504
 20
104.035
 11
4.42387
 21
104.095
  0
LINE
  8
0
 10
4.42387
 20
104.095
 11
4.50001
 21
104.146
  0
LINE
  8
0
 10
4.50001
 20
104.146
 11
4.58213
 21
104.187
  0
LINE
  8
0
 10
4.58213
 20
104.187
 11
4.66883
 21
104.216
  0
LINE
  8
0
 10
4.66883
 20
104.216
 11
4.75865
 21
104.234
  0
LINE
  8
0
 10
4.75865
 20
104.234
 11
4.85
 21
104.24
  0
LINE
  8
0
 10
4.85
 20
104.24
 11
4.94135
 21
104.234
  0
LINE
  8
0
 10
4.94135
 20
104.234
 11
5.03117
 21
104.216
  0
LINE
  8
0
 10
5.03117
 20
104.216
 11
5.11787
 21
104.187
  0
LINE
  8
0
 10
5.11787
 20
104.187
 11
5.19999
 21
104.146
  0
LINE
  8
0
 10
5.19999
 20
104.146
 11
5.27613
 21
104.095
  0
LINE
  8
0
 10
5.27613
 20
104.095
 11
5.34496
 21
104.035
  0
LINE
  8
0
 10
5.34496
 20
104.035
 11
5.40534
 21
103.966
  0
LINE
  8
0
 10
5.40534
 20
103.966
 11
5.45622
 21
103.89
  0
LINE
  8
0
 10
5.45622
 20
103.89
 11
5.49671
 21
103.808
  0
LINE
  8
0
 10
5.49671
 20
103.808
 11
5.52615
 21
103.721
  0
LINE
  8
0
 10
5.52615
 20
103.721
 11
5.544
 21
103.631
  0
LINE
  8
0
 10
5.544
 20
103.631
 11
5.55
 21
103.54
  0
LINE
  8
0
 10
5.55
 20
103.54
 11
5.544
 21
103.449
  0
LINE
  8
0
 10
5.544
 20
103.449
 11
5.52615
 21
103.359
  0
LINE
  8
0
 10
5.52615
 20
103.359
 11
5.49671
 21
103.272
  0
LINE
  8
0
 10
5.49671
 20
103.272
 11
5.45622
 21
103.19
  0
LINE
  8
0
 10
5.45622
 20
103.19
 11
5.40534
 21
103.114
  0
LINE
  8
0
 10
5.40534
 20
103.114
 11
5.34496
 21
103.045
  0
LINE
  8
0
 10
5.34496
 20
103.045
 11
5.27613
 21
102.985
  0
LINE
  8
0
 10
5.27613
 20
102.985
 11
5.19999
 21
102.934
  0
LINE
  8
0
 10
5.19999
 20
102.934
 11
5.11787
 21
102.893
  0
LINE
  8
0
 10
5.11787
 20
102.893
 11
5.03117
 21
102.864
  0
LINE
  8
0
 10
5.03117
 20
102.864
 11
4.94135
 21
102.846
  0
LINE
  8
0
 10
4.94135
 20
102.846
 11
4.85
 21
102.84
  0
LINE
  8
0
 10
4.85
 20
102.84
 11
4.75865
 21
102.846
  0
LINE
  8
0
 10
4.75865
 20
102.846
 11
4.66883
 21
102.864
  0
LINE
  8
0
 10
4.66883
 20
102.864
 11
4.58213
 21
102.893
  0
LINE
  8
0
 10
4.58213
 20
102.893
 11
4.50001
 21
102.934
  0
LINE
  8
0
 10
4.50001
 20
102.934
 11
4.42387
 21
102.985
  0
LINE
  8
0
 10
4.42387
 20
102.985
 11
4.35504
 21
103.045
  0
LINE
  8
0
 10
4.35504
 20
103.045
 11
4.29466
 21
103.114
  0
LINE
  8
0
 10
4.29466
 20
103.114
 11
4.24378
 21
103.19
  0
LINE
  8
0
 10
4.24378
 20
103.19
 11
4.20329
 21
103.272
  0
LINE
  8
0
 10
4.20329
 20
103.272
 11
4.17385
 21
103.359
  0
LINE
  8
0
 10
4.17385
 20
103.359
 11
4.156
 21
103.449
  0
LINE
  8
0
 10
4.156
 20
103.449
 11
4.15
 21
103.54
  0
LINE
  8
0
 10
6.4
 20
45.32
 11
6.4
 21
53.42
  0
LINE
  8
0
 10
6.4
 20
53.42
 11
28.72
 21
53.42
  0
LINE
  8
0
 10
28.72
 20
53.42
 11
28.72
 21
45.32
  0
LINE
  8
0
 10
28.72
 20
45.32
 11
6.4
 21
45.32
  0
LINE
  8
0
 10
9.24
 20
55.48
 11
9.246
 21
55.5714
  0
LINE
  8
0
 10
9.246
 20
55.5714
 11
9.26385
 21
55.6612
  0
LINE
  8
0
 10
9.26385
 20
55.6612
 11
9.29329
 21
55.7479
  0
LINE
  8
0
 10
9.29329
 20
55.7479
 11
9.33378
 21
55.83
  0
LINE
  8
0
 10
9.33378
 20
55.83
 11
9.38466
 21
55.9061
  0
LINE
  8
0
 10
9.38466
 20
55.9061
 11
9.44504
 21
55.975
  0
LINE
  8
0
 10
9.44504
 20
55.975
 11
9.51387
 21
56.0353
  0
LINE
  8
0
 10
9.51387
 20
56.0353
 11
9.59001
 21
56.0862
  0
LINE
  8
0
 10
9.59001
 20
56.0862
 11
9.67213
 21
56.1267
  0
LINE
  8
0
 10
9.67213
 20
56.1267
 11
9.75883
 21
56.1561
  0
LINE
  8
0
 10
9.75883
 20
56.1561
 11
9.84865
 21
56.174
  0
LINE
  8
0
 10
9.84865
 20
56.174
 11
9.94
 21
56.18
  0
LINE
  8
0
 10
9.94
 20
56.18
 11
10.0314
 21
56.174
  0
LINE
  8
0
 10
10.0314
 20
56.174
 11
10.1212
 21
56.1561
  0
LINE
  8
0
 10
10.1212
 20
56.1561
 11
10.2079
 21
56.1267
  0
LINE
  8
0
 10
10.2079
 20
56.1267
 11
10.29
 21
56.0862
  0
LINE
  8
0
 10
10.29
 20
56.0862
 11
10.3661
 21
56.0353
  0
LINE
  8
0
 10
10.3661
 20
56.0353
 11
10.435
 21
55.975
  0
LINE
  8
0
 10
10.435
 20
55.975
 11
10.4953
 21
55.9061
  0
LINE
  8
0
 10
10.4953
 20
55.9061
 11
10.5462
 21
55.83
  0
LINE
  8
0
 10
10.5462
 20
55.83
 11
10.5867
 21
55.7479
  0
LINE
  8
0
 10
10.5867
 20
55.7479
 11
10.6161
 21
55.6612
  0
LINE
  8
0
 10
10.6161
 20
55.6612
 11
10.634
 21
55.5714
  0
LINE
  8
0
 10
10.634
 20
55.5714
 11
10.64
 21
55.48
  0
LINE
  8
0
 10
10.64
 20
55.48
 11
10.634
 21
55.3886
  0
LINE
  8
0
 10
10.634
 20
55.3886
 11
10.6161
 21
55.2988
  0
LINE
  8
0
 10
10.6161
 20
55.2988
 11
10.5867
 21
55.2121
  0
LINE
  8
0
 10
10.5867
 20
55.2121
 11
10.5462
 21
55.13
  0
LINE
  8
0
 10
10.5462
 20
55.13
 11
10.4953
 21
55.0539
  0
LINE
  8
0
 10
10.4953
 20
55.0539
 11
10.435
 21
54.985
  0
LINE
  8
0
 10
10.435
 20
54.985
 11
10.3661
 21
54.9247
  0
LINE
  8
0
 10
10.3661
 20
54.9247
 11
10.29
 21
54.8738
  0
LINE
  8
0
 10
10.29
 20
54.8738
 11
10.2079
 21
54.8333
  0
LINE
  8
0
 10
10.2079
 20
54.8333
 11
10.1212
 21
54.8039
  0
LINE
  8
0
 10
10.1212
 20
54.8039
 11
10.0314
 21
54.786
  0
LINE
  8
0
 10
10.0314
 20
54.786
 11
9.94
 21
54.78
  0
LINE
  8
0
 10
9.94
 20
54.78
 11
9.84865
 21
54.786
  0
LINE
  8
0
 10
9.84865
 20
54.786
 11
9.75883
 21
54.8039
  0
LINE
  8
0
 10
9.75883
 20
54.8039
 11
9.67213
 21
54.8333
  0
LINE
  8
0
 10
9.67213
 20
54.8333
 11
9.59001
 21
54.8738
  0
LINE
  8
0
 10
9.59001
 20
54.8738
 11
9.51387
 21
54.9247
  0
LINE
  8
0
 10
9.51387
 20
54.9247
 11
9.44504
 21
54.985
  0
LINE
  8
0
 10
9.44504
 20
54.985
 11
9.38466
 21
55.0539
  0
LINE
  8
0
 10
9.38466
 20
55.0539
 11
9.33378
 21
55.13
  0
LINE
  8
0
 10
9.33378
 20
55.13
 11
9.29329
 21
55.2121
  0
LINE
  8
0
 10
9.29329
 20
55.2121
 11
9.26385
 21
55.2988
  0
LINE
  8
0
 10
9.26385
 20
55.2988
 11
9.246
 21
55.3886
  0
LINE
  8
0
 10
9.246
 20
55.3886
 11
9.24
 21
55.48
  0
LINE
  8
0
 10
11.83
 20
72.3
 11
11.83
 21
75.8
  0
LINE
  8
0
 10
11.83
 20
75.8
 11
12.085
 21
75.8
  0
LINE
  8
0
 10
12.085
 20
75.8
 11
12.085
 21
80.4
  0
LINE
  8
0
 10
12.085
 20
80.4
 11
28.085
 21
80.4
  0
LINE
  8
0
 10
28.085
 20
80.4
 11
28.085
 21
75.8
  0
LINE
  8
0
 10
28.085
 20
75.8
 11
28.34
 21
75.8
  0
LINE
  8
0
 10
28.34
 20
75.8
 11
28.34
 21
72.3
  0
LINE
  8
0
 10
28.34
 20
72.3
 11
11.83
 21
72.3
  0
LINE
  8
0
 10
13.67
 20
70.24
 11
13.676
 21
70.3314
  0
LINE
  8
0
 10
13.676
 20
70.3314
 11
13.6939
 21
70.4212
  0
LINE
  8
0
 10
13.6939
 20
70.4212
 11
13.7233
 21
70.5079
  0
LINE
  8
0
 10
13.7233
 20
70.5079
 11
13.7638
 21
70.59
  0
LINE
  8
0
 10
13.7638
 20
70.59
 11
13.8147
 21
70.6661
  0
LINE
  8
0
 10
13.8147
 20
70.6661
 11
13.875
 21
70.735
  0
LINE
  8
0
 10
13.875
 20
70.735
 11
13.9439
 21
70.7953
  0
LINE
  8
0
 10
13.9439
 20
70.7953
 11
14.02
 21
70.8462
  0
LINE
  8
0
 10
14.02
 20
70.8462
 11
14.1021
 21
70.8867
  0
LINE
  8
0
 10
14.1021
 20
70.8867
 11
14.1888
 21
70.9161
  0
LINE
  8
0
 10
14.1888
 20
70.9161
 11
14.2786
 21
70.934
  0
LINE
  8
0
 10
14.2786
 20
70.934
 11
14.37
 21
70.94
  0
LINE
  8
0
 10
14.37
 20
70.94
 11
14.4614
 21
70.934
  0
LINE
  8
0
 10
14.4614
 20
70.934
 11
14.5512
 21
70.9161
  0
LINE
  8
0
 10
14.5512
 20
70.9161
 11
14.6379
 21
70.8867
  0
LINE
  8
0
 10
14.6379
 20
70.8867
 11
14.72
 21
70.8462
  0
LINE
  8
0
 10
14.72
 20
70.8462
 11
14.7961
 21
70.7953
  0
LINE
  8
0
 10
14.7961
 20
70.7953
 11
14.865
 21
70.735
  0
LINE
  8
0
 10
14.865
 20
70.735
 11
14.9253
 21
70.6661
  0
LINE
  8
0
 10
14.9253
 20
70.6661
 11
14.9762
 21
70.59
  0
LINE
  8
0
 10
14.9762
 20
70.59
 11
15.0167
 21
70.5079
  0
LINE
  8
0
 10
15.0167
 20
70.5079
 11
15.0461
 21
70.4212
  0
LINE
  8
0
 10
15.0461
 20
70.4212
 11
15.064
 21
70.3314
  0
LINE
  8
0
 10
15.064
 20
70.3314
 11
15.07
 21
70.24
  0
LINE
  8
0
 10
15.07
 20
70.24
 11
15.064
 21
70.1486
  0
LINE
  8
0
 10
15.064
 20
70.1486
 11
15.0461
 21
70.0588
  0
LINE
  8
0
 10
15.0461
 20
70.0588
 11
15.0167
 21
69.9721
  0
LINE
  8
0
 10
15.0167
 20
69.9721
 11
14.9762
 21
69.89
  0
LINE
  8
0
 10
14.9762
 20
69.89
 11
14.9253
 21
69.8139
  0
LINE
  8
0
 10
14.9253
 20
69.8139
 11
14.865
 21
69.745
  0
LINE
  8
0
 10
14.865
 20
69.745
 11
14.7961
 21
69.6847
  0
LINE
  8
0
 10
14.7961
 20
69.6847
 11
14.72
 21
69.6338
  0
LINE
  8
0
 10
14.72
 20
69.6338
 11
14.6379
 21
69.5933
  0
LINE
  8
0
 10
14.6379
 20
69.5933
 11
14.5512
 21
69.5639
  0
LINE
  8
0
 10
14.5512
 20
69.5639
 11
14.4614
 21
69.546
  0
LINE
  8
0
 10
14.4614
 20
69.546
 11
14.37
 21
69.54
  0
LINE
  8
0
 10
14.37
 20
69.54
 11
14.2786
 21
69.546
  0
LINE
  8
0
 10
14.2786
 20
69.546
 11
14.1888
 21
69.5639
  0
LINE
  8
0
 10
14.1888
 20
69.5639
 11
14.1021
 21
69.5933
  0
LINE
  8
0
 10
14.1021
 20
69.5933
 11
14.02
 21
69.6338
  0
LINE
  8
0
 10
14.02
 20
69.6338
 11
13.9439
 21
69.6847
  0
LINE
  8
0
 10
13.9439
 20
69.6847
 11
13.875
 21
69.745
  0
LINE
  8
0
 10
13.875
 20
69.745
 11
13.8147
 21
69.8139
  0
LINE
  8
0
 10
13.8147
 20
69.8139
 11
13.7638
 21
69.89
  0
LINE
  8
0
 10
13.7638
 20
69.89
 11
13.7233
 21
69.9721
  0
LINE
  8
0
 10
13.7233
 20
69.9721
 11
13.6939
 21
70.0588
  0
LINE
  8
0
 10
13.6939
 20
70.0588
 11
13.676
 21
70.1486
  0
LINE
  8
0
 10
13.676
 20
70.1486
 11
13.67
 21
70.24
  0
LINE
  8
0
 10
24.47
 20
90.84
 11
24.476
 21
90.9314
  0
LINE
  8
0
 10
24.476
 20
90.9314
 11
24.4938
 21
91.0212
  0
LINE
  8
0
 10
24.4938
 20
91.0212
 11
24.5233
 21
91.1079
  0
LINE
  8
0
 10
24.5233
 20
91.1079
 11
24.5638
 21
91.19
  0
LINE
  8
0
 10
24.5638
 20
91.19
 11
24.6146
 21
91.2661
  0
LINE
  8
0
 10
24.6146
 20
91.2661
 11
24.675
 21
91.335
  0
LINE
  8
0
 10
24.675
 20
91.335
 11
24.7439
 21
91.3953
  0
LINE
  8
0
 10
24.7439
 20
91.3953
 11
24.82
 21
91.4462
  0
LINE
  8
0
 10
24.82
 20
91.4462
 11
24.9021
 21
91.4867
  0
LINE
  8
0
 10
24.9021
 20
91.4867
 11
24.9888
 21
91.5161
  0
LINE
  8
0
 10
24.9888
 20
91.5161
 11
25.0786
 21
91.534
  0
LINE
  8
0
 10
25.0786
 20
91.534
 11
25.17
 21
91.54
  0
LINE
  8
0
 10
25.17
 20
91.54
 11
25.2614
 21
91.534
  0
LINE
  8
0
 10
25.2614
 20
91.534
 11
25.3512
 21
91.5161
  0
LINE
  8
0
 10
25.3512
 20
91.5161
 11
25.4379
 21
91.4867
  0
LINE
  8
0
 10
25.4379
 20
91.4867
 11
25.52
 21
91.4462
  0
LINE
  8
0
 10
25.52
 20
91.4462
 11
25.5961
 21
91.3953
  0
LINE
  8
0
 10
25.5961
 20
91.3953
 11
25.665
 21
91.335
  0
LINE
  8
0
 10
25.665
 20
91.335
 11
25.7253
 21
91.2661
  0
LINE
  8
0
 10
25.7253
 20
91.2661
 11
25.7762
 21
91.19
  0
LINE
  8
0
 10
25.7762
 20
91.19
 11
25.8167
 21
91.1079
  0
LINE
  8
0
 10
25.8167
 20
91.1079
 11
25.8461
 21
91.0212
  0
LINE
  8
0
 10
25.8461
 20
91.0212
 11
25.864
 21
90.9314
  0
LINE
  8
0
 10
25.864
 20
90.9314
 11
25.87
 21
90.84
  0
LINE
  8
0
 10
25.87
 20
90.84
 11
25.864
 21
90.7486
  0
LINE
  8
0
 10
25.864
 20
90.7486
 11
25.8461
 21
90.6588
  0
LINE
  8
0
 10
25.8461
 20
90.6588
 11
25.8167
 21
90.5721
  0
LINE
  8
0
 10
25.8167
 20
90.5721
 11
25.7762
 21
90.49
  0
LINE
  8
0
 10
25.7762
 20
90.49
 11
25.7253
 21
90.4139
  0
LINE
  8
0
 10
25.7253
 20
90.4139
 11
25.665
 21
90.345
  0
LINE
  8
0
 10
25.665
 20
90.345
 11
25.5961
 21
90.2847
  0
LINE
  8
0
 10
25.5961
 20
90.2847
 11
25.52
 21
90.2338
  0
LINE
  8
0
 10
25.52
 20
90.2338
 11
25.4379
 21
90.1933
  0
LINE
  8
0
 10
25.4379
 20
90.1933
 11
25.3512
 21
90.1639
  0
LINE
  8
0
 10
25.3512
 20
90.1639
 11
25.2614
 21
90.146
  0
LINE
  8
0
 10
25.2614
 20
90.146
 11
25.17
 21
90.14
  0
LINE
  8
0
 10
25.17
 20
90.14
 11
25.0786
 21
90.146
  0
LINE
  8
0
 10
25.0786
 20
90.146
 11
24.9888
 21
90.1639
  0
LINE
  8
0
 10
24.9888
 20
90.1639
 11
24.9021
 21
90.1933
  0
LINE
  8
0
 10
24.9021
 20
90.1933
 11
24.82
 21
90.2338
  0
LINE
  8
0
 10
24.82
 20
90.2338
 11
24.7439
 21
90.2847
  0
LINE
  8
0
 10
24.7439
 20
90.2847
 11
24.675
 21
90.345
  0
LINE
  8
0
 10
24.675
 20
90.345
 11
24.6146
 21
90.4139
  0
LINE
  8
0
 10
24.6146
 20
90.4139
 11
24.5638
 21
90.49
  0
LINE
  8
0
 10
24.5638
 20
90.49
 11
24.5233
 21
90.5721
  0
LINE
  8
0
 10
24.5233
 20
90.5721
 11
24.4938
 21
90.6588
  0
LINE
  8
0
 10
24.4938
 20
90.6588
 11
24.476
 21
90.7486
  0
LINE
  8
0
 10
24.476
 20
90.7486
 11
24.47
 21
90.84
  0
LINE
  8
0
 10
24.47
 20
103.54
 11
24.476
 21
103.631
  0
LINE
  8
0
 10
24.476
 20
103.631
 11
24.4938
 21
103.721
  0
LINE
  8
0
 10
24.4938
 20
103.721
 11
24.5233
 21
103.808
  0
LINE
  8
0
 10
24.5233
 20
103.808
 11
24.5638
 21
103.89
  0
LINE
  8
0
 10
24.5638
 20
103.89
 11
24.6146
 21
103.966
  0
LINE
  8
0
 10
24.6146
 20
103.966
 11
24.675
 21
104.035
  0
LINE
  8
0
 10
24.675
 20
104.035
 11
24.7439
 21
104.095
  0
LINE
  8
0
 10
24.7439
 20
104.095
 11
24.82
 21
104.146
  0
LINE
  8
0
 10
24.82
 20
104.146
 11
24.9021
 21
104.187
  0
LINE
  8
0
 10
24.9021
 20
104.187
 11
24.9888
 21
104.216
  0
LINE
  8
0
 10
24.9888
 20
104.216
 11
25.0786
 21
104.234
  0
LINE
  8
0
 10
25.0786
 20
104.234
 11
25.17
 21
104.24
  0
LINE
  8
0
 10
25.17
 20
104.24
 11
25.2614
 21
104.234
  0
LINE
  8
0
 10
25.2614
 20
104.234
 11
25.3512
 21
104.216
  0
LINE
  8
0
 10
25.3512
 20
104.216
 11
25.4379
 21
104.187
  0
LINE
  8
0
 10
25.4379
 20
104.187
 11
25.52
 21
104.146
  0
LINE
  8
0
 10
25.52
 20
104.146
 11
25.5961
 21
104.095
  0
LINE
  8
0
 10
25.5961
 20
104.095
 11
25.665
 21
104.035
  0
LINE
  8
0
 10
25.665
 20
104.035
 11
25.7253
 21
103.966
  0
LINE
  8
0
 10
25.7253
 20
103.966
 11
25.7762
 21
103.89
  0
LINE
  8
0
 10
25.7762
 20
103.89
 11
25.8167
 21
103.808
  0
LINE
  8
0
 10
25.8167
 20
103.808
 11
25.8461
 21
103.721
  0
LINE
  8
0
 10
25.8461
 20
103.721
 11
25.864
 21
103.631
  0
LINE
  8
0
 10
25.864
 20
103.631
 11
25.87
 21
103.54
  0
LINE
  8
0
 10
25.87
 20
103.54
 11
25.864
 21
103.449
  0
LINE
  8
0
 10
25.864
 20
103.449
 11
25.8461
 21
103.359
  0
LINE
  8
0
 10
25.8461
 20
103.359
 11
25.8167
 21
103.272
  0
LINE
  8
0
 10
25.8167
 20
103.272
 11
25.7762
 21
103.19
  0
LINE
  8
0
 10
25.7762
 20
103.19
 11
25.7253
 21
103.114
  0
LINE
  8
0
 10
25.7253
 20
103.114
 11
25.665
 21
103.045
  0
LINE
  8
0
 10
25.665
 20
103.045
 11
25.5961
 21
102.985
  0
LINE
  8
0
 10
25.5961
 20
102.985
 11
25.52
 21
102.934
  0
LINE
  8
0
 10
25.52
 20
102.934
 11
25.4379
 21
102.893
  0
LINE
  8
0
 10
25.4379
 20
102.893
 11
25.3512
 21
102.864
  0
LINE
  8
0
 10
25.3512
 20
102.864
 11
25.2614
 21
102.846
  0
LINE
  8
0
 10
25.2614
 20
102.846
 11
25.17
 21
102.84
  0
LINE
  8
0
 10
25.17
 20
102.84
 11
25.0786
 21
102.846
  0
LINE
  8
0
 10
25.0786
 20
102.846
 11
24.9888
 21
102.864
  0
LINE
  8
0
 10
24.9888
 20
102.864
 11
24.9021
 21
102.893
  0
LINE
  8
0
 10
24.9021
 20
102.893
 11
24.82
 21
102.934
  0
LINE
  8
0
 10
24.82
 20
102.934
 11
24.7439
 21
102.985
  0
LINE
  8
0
 10
24.7439
 20
102.985
 11
24.675
 21
103.045
  0
LINE
  8
0
 10
24.675
 20
103.045
 11
24.6146
 21
103.114
  0
LINE
  8
0
 10
24.6146
 20
103.114
 11
24.5638
 21
103.19
  0
LINE
  8
0
 10
24.5638
 20
103.19
 11
24.5233
 21
103.272
  0
LINE
  8
0
 10
24.5233
 20
103.272
 11
24.4938
 21
103.359
  0
LINE
  8
0
 10
24.4938
 20
103.359
 11
24.476
 21
103.449
  0
LINE
  8
0
 10
24.476
 20
103.449
 11
24.47
 21
103.54
  0
LINE
  8
0
 10
24.48
 20
55.48
 11
24.486
 21
55.5714
  0
LINE
  8
0
 10
24.486
 20
55.5714
 11
24.5038
 21
55.6612
  0
LINE
  8
0
 10
24.5038
 20
55.6612
 11
24.5333
 21
55.7479
  0
LINE
  8
0
 10
24.5333
 20
55.7479
 11
24.5738
 21
55.83
  0
LINE
  8
0
 10
24.5738
 20
55.83
 11
24.6246
 21
55.9061
  0
LINE
  8
0
 10
24.6246
 20
55.9061
 11
24.685
 21
55.975
  0
LINE
  8
0
 10
24.685
 20
55.975
 11
24.7539
 21
56.0353
  0
LINE
  8
0
 10
24.7539
 20
56.0353
 11
24.83
 21
56.0862
  0
LINE
  8
0
 10
24.83
 20
56.0862
 11
24.9121
 21
56.1267
  0
LINE
  8
0
 10
24.9121
 20
56.1267
 11
24.9988
 21
56.1561
  0
LINE
  8
0
 10
24.9988
 20
56.1561
 11
25.0886
 21
56.174
  0
LINE
  8
0
 10
25.0886
 20
56.174
 11
25.18
 21
56.18
  0
LINE
  8
0
 10
25.18
 20
56.18
 11
25.2714
 21
56.174
  0
LINE
  8
0
 10
25.2714
 20
56.174
 11
25.3612
 21
56.1561
  0
LINE
  8
0
 10
25.3612
 20
56.1561
 11
25.4479
 21
56.1267
  0
LINE
  8
0
 10
25.4479
 20
56.1267
 11
25.53
 21
56.0862
  0
LINE
  8
0
 10
25.53
 20
56.0862
 11
25.6061
 21
56.0353
  0
LINE
  8
0
 10
25.6061
 20
56.0353
 11
25.675
 21
55.975
  0
LINE
  8
0
 10
25.675
 20
55.975
 11
25.7353
 21
55.9061
  0
LINE
  8
0
 10
25.7353
 20
55.9061
 11
25.7862
 21
55.83
  0
LINE
  8
0
 10
25.7862
 20
55.83
 11
25.8267
 21
55.7479
  0
LINE
  8
0
 10
25.8267
 20
55.7479
 11
25.8561
 21
55.6612
  0
LINE
  8
0
 10
25.8561
 20
55.6612
 11
25.874
 21
55.5714
  0
LINE
  8
0
 10
25.874
 20
55.5714
 11
25.88
 21
55.48
  0
LINE
  8
0
 10
25.88
 20
55.48
 11
25.874
 21
55.3886
  0
LINE
  8
0
 10
25.874
 20
55.3886
 11
25.8561
 21
55.2988
  0
LINE
  8
0
 10
25.8561
 20
55.2988
 11
25.8267
 21
55.2121
  0
LINE
  8
0
 10
25.8267
 20
55.2121
 11
25.7862
 21
55.13
  0
LINE
  8
0
 10
25.7862
 20
55.13
 11
25.7353
 21
55.0539
  0
LINE
  8
0
 10
25.7353
 20
55.0539
 11
25.675
 21
54.985
  0
LINE
  8
0
 10
25.675
 20
54.985
 11
25.6061
 21
54.9247
  0
LINE
  8
0
 10
25.6061
 20
54.9247
 11
25.53
 21
54.8738
  0
LINE
  8
0
 10
25.53
 20
54.8738
 11
25.4479
 21
54.8333
  0
LINE
  8
0
 10
25.4479
 20
54.8333
 11
25.3612
 21
54.8039
  0
LINE
  8
0
 10
25.3612
 20
54.8039
 11
25.2714
 21
54.786
  0
LINE
  8
0
 10
25.2714
 20
54.786
 11
25.18
 21
54.78
  0
LINE
  8
0
 10
25.18
 20
54.78
 11
25.0886
 21
54.786
  0
LINE
  8
0
 10
25.0886
 20
54.786
 11
24.9988
 21
54.8039
  0
LINE
  8
0
 10
24.9988
 20
54.8039
 11
24.9121
 21
54.8333
  0
LINE
  8
0
 10
24.9121
 20
54.8333
 11
24.83
 21
54.8738
  0
LINE
  8
0
 10
24.83
 20
54.8738
 11
24.7539
 21
54.9247
  0
LINE
  8
0
 10
24.7539
 20
54.9247
 11
24.685
 21
54.985
  0
LINE
  8
0
 10
24.685
 20
54.985
 11
24.6246
 21
55.0539
  0
LINE
  8
0
 10
24.6246
 20
55.0539
 11
24.5738
 21
55.13
  0
LINE
  8
0
 10
24.5738
 20
55.13
 11
24.5333
 21
55.2121
  0
LINE
  8
0
 10
24.5333
 20
55.2121
 11
24.5038
 21
55.2988
  0
LINE
  8
0
 10
24.5038
 20
55.2988
 11
24.486
 21
55.3886
  0
LINE
  8
0
 10
24.486
 20
55.3886
 11
24.48
 21
55.48
  0
LINE
  8
0
 10
25.1
 20
70.24
 11
25.106
 21
70.3314
  0
LINE
  8
0
 10
25.106
 20
70.3314
 11
25.1238
 21
70.4212
  0
LINE
  8
0
 10
25.1238
 20
70.4212
 11
25.1533
 21
70.5079
  0
LINE
  8
0
 10
25.1533
 20
70.5079
 11
25.1938
 21
70.59
  0
LINE
  8
0
 10
25.1938
 20
70.59
 11
25.2446
 21
70.6661
  0
LINE
  8
0
 10
25.2446
 20
70.6661
 11
25.305
 21
70.735
  0
LINE
  8
0
 10
25.305
 20
70.735
 11
25.3739
 21
70.7953
  0
LINE
  8
0
 10
25.3739
 20
70.7953
 11
25.45
 21
70.8462
  0
LINE
  8
0
 10
25.45
 20
70.8462
 11
25.5321
 21
70.8867
  0
LINE
  8
0
 10
25.5321
 20
70.8867
 11
25.6188
 21
70.9161
  0
LINE
  8
0
 10
25.6188
 20
70.9161
 11
25.7086
 21
70.934
  0
LINE
  8
0
 10
25.7086
 20
70.934
 11
25.8
 21
70.94
  0
LINE
  8
0
 10
25.8
 20
70.94
 11
25.8914
 21
70.934
  0
LINE
  8
0
 10
25.8914
 20
70.934
 11
25.9812
 21
70.9161
  0
LINE
  8
0
 10
25.9812
 20
70.9161
 11
26.0679
 21
70.8867
  0
LINE
  8
0
 10
26.0679
 20
70.8867
 11
26.15
 21
70.8462
  0
LINE
  8
0
 10
26.15
 20
70.8462
 11
26.2261
 21
70.7953
  0
LINE
  8
0
 10
26.2261
 20
70.7953
 11
26.295
 21
70.735
  0
LINE
  8
0
 10
26.295
 20
70.735
 11
26.3553
 21
70.6661
  0
LINE
  8
0
 10
26.3553
 20
70.6661
 11
26.4062
 21
70.59
  0
LINE
  8
0
 10
26.4062
 20
70.59
 11
26.4467
 21
70.5079
  0
LINE
  8
0
 10
26.4467
 20
70.5079
 11
26.4761
 21
70.4212
  0
LINE
  8
0
 10
26.4761
 20
70.4212
 11
26.494
 21
70.3314
  0
LINE
  8
0
 10
26.494
 20
70.3314
 11
26.5
 21
70.24
  0
LINE
  8
0
 10
26.5
 20
70.24
 11
26.494
 21
70.1486
  0
LINE
  8
0
 10
26.494
 20
70.1486
 11
26.4761
 21
70.0588
  0
LINE
  8
0
 10
26.4761
 20
70.0588
 11
26.4467
 21
69.9721
  0
LINE
  8
0
 10
26.4467
 20
69.9721
 11
26.4062
 21
69.89
  0
LINE
  8
0
 10
26.4062
 20
69.89
 11
26.3553
 21
69.8139
  0
LINE
  8
0
 10
26.3553
 20
69.8139
 11
26.295
 21
69.745
  0
LINE
  8
0
 10
26.295
 20
69.745
 11
26.2261
 21
69.6847
  0
LINE
  8
0
 10
26.2261
 20
69.6847
 11
26.15
 21
69.6338
  0
LINE
  8
0
 10
26.15
 20
69.6338
 11
26.0679
 21
69.5933
  0
LINE
  8
0
 10
26.0679
 20
69.5933
 11
25.9812
 21
69.5639
  0
LINE
  8
0
 10
25.9812
 20
69.5639
 11
25.8914
 21
69.546
  0
LINE
  8
0
 10
25.8914
 20
69.546
 11
25.8
 21
69.54
  0
LINE
  8
0
 10
25.8
 20
69.54
 11
25.7086
 21
69.546
  0
LINE
  8
0
 10
25.7086
 20
69.546
 11
25.6188
 21
69.5639
  0
LINE
  8
0
 10
25.6188
 20
69.5639
 11
25.5321
 21
69.5933
  0
LINE
  8
0
 10
25.5321
 20
69.5933
 11
25.45
 21
69.6338
  0
LINE
  8
0
 10
25.45
 20
69.6338
 11
25.3739
 21
69.6847
  0
LINE
  8
0
 10
25.3739
 20
69.6847
 11
25.305
 21
69.745
  0
LINE
  8
0
 10
25.305
 20
69.745
 11
25.2446
 21
69.8139
  0
LINE
  8
0
 10
25.2446
 20
69.8139
 11
25.1938
 21
69.89
  0
LINE
  8
0
 10
25.1938
 20
69.89
 11
25.1533
 21
69.9721
  0
LINE
  8
0
 10
25.1533
 20
69.9721
 11
25.1238
 21
70.0588
  0
LINE
  8
0
 10
25.1238
 20
70.0588
 11
25.106
 21
70.1486
  0
LINE
  8
0
 10
25.106
 20
70.1486
 11
25.1
 21
70.24
  0
LINE
  8
0
 10
38.3
 20
-66.1
 11
38.3137
 21
-65.8912
  0
LINE
  8
0
 10
38.3137
 20
-65.8912
 11
38.3545
 21
-65.6859
  0
LINE
  8
0
 10
38.3545
 20
-65.6859
 11
38.4218
 21
-65.4877
  0
LINE
  8
0
 10
38.4218
 20
-65.4877
 11
38.5144
 21
-65.3
  0
LINE
  8
0
 10
38.5144
 20
-65.3
 11
38.6306
 21
-65.126
  0
LINE
  8
0
 10
38.6306
 20
-65.126
 11
38.7686
 21
-64.9686
  0
LINE
  8
0
 10
38.7686
 20
-64.9686
 11
38.926
 21
-64.8306
  0
LINE
  8
0
 10
38.926
 20
-64.8306
 11
39.1
 21
-64.7144
  0
LINE
  8
0
 10
39.1
 20
-64.7144
 11
39.2877
 21
-64.6218
  0
LINE
  8
0
 10
39.2877
 20
-64.6218
 11
39.4859
 21
-64.5545
  0
LINE
  8
0
 10
39.4859
 20
-64.5545
 11
39.6912
 21
-64.5137
  0
LINE
  8
0
 10
39.6912
 20
-64.5137
 11
39.9
 21
-64.5
  0
LINE
  8
0
 10
39.9
 20
-64.5
 11
40.1088
 21
-64.5137
  0
LINE
  8
0
 10
40.1088
 20
-64.5137
 11
40.3141
 21
-64.5545
  0
LINE
  8
0
 10
40.3141
 20
-64.5545
 11
40.5123
 21
-64.6218
  0
LINE
  8
0
 10
40.5123
 20
-64.6218
 11
40.7
 21
-64.7144
  0
LINE
  8
0
 10
40.7
 20
-64.7144
 11
40.874
 21
-64.8306
  0
LINE
  8
0
 10
40.874
 20
-64.8306
 11
41.0314
 21
-64.9686
  0
LINE
  8
0
 10
41.0314
 20
-64.9686
 11
41.1694
 21
-65.126
  0
LINE
  8
0
 10
41.1694
 20
-65.126
 11
41.2856
 21
-65.3
  0
LINE
  8
0
 10
41.2856
 20
-65.3
 11
41.3782
 21
-65.4877
  0
LINE
  8
0
 10
41.3782
 20
-65.4877
 11
41.4455
 21
-65.6859
  0
LINE
  8
0
 10
41.4455
 20
-65.6859
 11
41.4863
 21
-65.8912
  0
LINE
  8
0
 10
41.4863
 20
-65.8912
 11
41.5
 21
-66.1
  0
LINE
  8
0
 10
41.5
 20
-66.1
 11
41.4863
 21
-66.3088
  0
LINE
  8
0
 10
41.4863
 20
-66.3088
 11
41.4455
 21
-66.5141
  0
LINE
  8
0
 10
41.4455
 20
-66.5141
 11
41.3782
 21
-66.7123
  0
LINE
  8
0
 10
41.3782
 20
-66.7123
 11
41.2856
 21
-66.9
  0
LINE
  8
0
 10
41.2856
 20
-66.9
 11
41.1694
 21
-67.074
  0
LINE
  8
0
 10
41.1694
 20
-67.074
 11
41.0314
 21
-67.2314
  0
LINE
  8
0
 10
41.0314
 20
-67.2314
 11
40.874
 21
-67.3694
  0
LINE
  8
0
 10
40.874
 20
-67.3694
 11
40.7
 21
-67.4856
  0
LINE
  8
0
 10
40.7
 20
-67.4856
 11
40.5123
 21
-67.5782
  0
LINE
  8
0
 10
40.5123
 20
-67.5782
 11
40.3141
 21
-67.6455
  0
LINE
  8
0
 10
40.3141
 20
-67.6455
 11
40.1088
 21
-67.6863
  0
LINE
  8
0
 10
40.1088
 20
-67.6863
 11
39.9
 21
-67.7
  0
LINE
  8
0
 10
39.9
 20
-67.7
 11
39.6912
 21
-67.6863
  0
LINE
  8
0
 10
39.6912
 20
-67.6863
 11
39.4859
 21
-67.6455
  0
LINE
  8
0
 10
39.4859
 20
-67.6455
 11
39.2877
 21
-67.5782
  0
LINE
  8
0
 10
39.2877
 20
-67.5782
 11
39.1
 21
-67.4856
  0
LINE
  8
0
 10
39.1
 20
-67.4856
 11
38.926
 21
-67.3694
  0
LINE
  8
0
 10
38.926
 20
-67.3694
 11
38.7686
 21
-67.2314
  0
LINE
  8
0
 10
38.7686
 20
-67.2314
 11
38.6306
 21
-67.074
  0
LINE
  8
0
 10
38.6306
 20
-67.074
 11
38.5144
 21
-66.9
  0
LINE
  8
0
 10
38.5144
 20
-66.9
 11
38.4218
 21
-66.7123
  0
LINE
  8
0
 10
38.4218
 20
-66.7123
 11
38.3545
 21
-66.5141
  0
LINE
  8
0
 10
38.3545
 20
-66.5141
 11
38.3137
 21
-66.3088
  0
LINE
  8
0
 10
38.3137
 20
-66.3088
 11
38.3
 21
-66.1
  0
LINE
  8
0
 10
38.3
 20
21.9
 11
38.3137
 21
22.1088
  0
LINE
  8
0
 10
38.3137
 20
22.1088
 11
38.3545
 21
22.3141
  0
LINE
  8
0
 10
38.3545
 20
22.3141
 11
38.4218
 21
22.5123
  0
LINE
  8
0
 10
38.4218
 20
22.5123
 11
38.5144
 21
22.7
  0
LINE
  8
0
 10
38.5144
 20
22.7
 11
38.6306
 21
22.874
  0
LINE
  8
0
 10
38.6306
 20
22.874
 11
38.7686
 21
23.0314
  0
LINE
  8
0
 10
38.7686
 20
23.0314
 11
38.926
 21
23.1694
  0
LINE
  8
0
 10
38.926
 20
23.1694
 11
39.1
 21
23.2856
  0
LINE
  8
0
 10
39.1
 20
23.2856
 11
39.2877
 21
23.3782
  0
LINE
  8
0
 10
39.2877
 20
23.3782
 11
39.4859
 21
23.4455
  0
LINE
  8
0
 10
39.4859
 20
23.4455
 11
39.6912
 21
23.4863
  0
LINE
  8
0
 10
39.6912
 20
23.4863
 11
39.9
 21
23.5
  0
LINE
  8
0
 10
39.9
 20
23.5
 11
40.1088
 21
23.4863
  0
LINE
  8
0
 10
40.1088
 20
23.4863
 11
40.3141
 21
23.4455
  0
LINE
  8
0
 10
40.3141
 20
23.4455
 11
40.5123
 21
23.3782
  0
LINE
  8
0
 10
40.5123
 20
23.3782
 11
40.7
 21
23.2856
  0
LINE
  8
0
 10
40.7
 20
23.2856
 11
40.874
 21
23.1694
  0
LINE
  8
0
 10
40.874
 20
23.1694
 11
41.0314
 21
23.0314
  0
LINE
  8
0
 10
41.0314
 20
23.0314
 11
41.1694
 21
22.874
  0
LINE
  8
0
 10
41.1694
 20
22.874
 11
41.2856
 21
22.7
  0
LINE
  8
0
 10
41.2856
 20
22.7
 11
41.3782
 21
22.5123
  0
LINE
  8
0
 10
41.3782
 20
22.5123
 11
41.4455
 21
22.3141
  0
LINE
  8
0
 10
41.4455
 20
22.3141
 11
41.4863
 21
22.1088
  0
LINE
  8
0
 10
41.4863
 20
22.1088
 11
41.5
 21
21.9
  0
LINE
  8
0
 10
41.5
 20
21.9
 11
41.4863
 21
21.6912
  0
LINE
  8
0
 10
41.4863
 20
21.6912
 11
41.4455
 21
21.4859
  0
LINE
  8
0
 10
41.4455
 20
21.4859
 11
41.3782
 21
21.2877
  0
LINE
  8
0
 10
41.3782
 20
21.2877
 11
41.2856
 21
21.1
  0
LINE
  8
0
 10
41.2856
 20
21.1
 11
41.1694
 21
20.926
  0
LINE
  8
0
 10
41.1694
 20
20.926
 11
41.0314
 21
20.7686
  0
LINE
  8
0
 10
41.0314
 20
20.7686
 11
40.874
 21
20.6306
  0
LINE
  8
0
 10
40.874
 20
20.6306
 11
40.7
 21
20.5144
  0
LINE
  8
0
 10
40.7
 20
20.5144
 11
40.5123
 21
20.4218
  0
LINE
  8
0
 10
40.5123
 20
20.4218
 11
40.3141
 21
20.3545
  0
LINE
  8
0
 10
40.3141
 20
20.3545
 11
40.1088
 21
20.3137
  0
LINE
  8
0
 10
40.1088
 20
20.3137
 11
39.9
 21
20.3
  0
LINE
  8
0
 10
39.9
 20
20.3
 11
39.6912
 21
20.3137
  0
LINE
  8
0
 10
39.6912
 20
20.3137
 11
39.4859
 21
20.3545
  0
LINE
  8
0
 10
39.4859
 20
20.3545
 11
39.2877
 21
20.4218
  0
LINE
  8
0
 10
39.2877
 20
20.4218
 11
39.1
 21
20.5144
  0
LINE
  8
0
 10
39.1
 20
20.5144
 11
38.926
 21
20.6306
  0
LINE
  8
0
 10
38.926
 20
20.6306
 11
38.7686
 21
20.7686
  0
LINE
  8
0
 10
38.7686
 20
20.7686
 11
38.6306
 21
20.926
  0
LINE
  8
0
 10
38.6306
 20
20.926
 11
38.5144
 21
21.1
  0
LINE
  8
0
 10
38.5144
 20
21.1
 11
38.4218
 21
21.2877
  0
LINE
  8
0
 10
38.4218
 20
21.2877
 11
38.3545
 21
21.4859
  0
LINE
  8
0
 10
38.3545
 20
21.4859
 11
38.3137
 21
21.6912
  0
LINE
  8
0
 10
38.3137
 20
21.6912
 11
38.3
 21
21.9
  0
LINE
  8
0
 10
38.3
 20
109.9
 11
38.3137
 21
110.109
  0
LINE
  8
0
 10
38.3137
 20
110.109
 11
38.3545
 21
110.314
  0
LINE
  8
0
 10
38.3545
 20
110.314
 11
38.4218
 21
110.512
  0
LINE
  8
0
 10
38.4218
 20
110.512
 11
38.5144
 21
110.7
  0
LINE
  8
0
 10
38.5144
 20
110.7
 11
38.6306
 21
110.874
  0
LINE
  8
0
 10
38.6306
 20
110.874
 11
38.7686
 21
111.031
  0
LINE
  8
0
 10
38.7686
 20
111.031
 11
38.926
 21
111.169
  0
LINE
  8
0
 10
38.926
 20
111.169
 11
39.1
 21
111.286
  0
LINE
  8
0
 10
39.1
 20
111.286
 11
39.2877
 21
111.378
  0
LINE
  8
0
 10
39.2877
 20
111.378
 11
39.4859
 21
111.445
  0
LINE
  8
0
 10
39.4859
 20
111.445
 11
39.6912
 21
111.486
  0
LINE
  8
0
 10
39.6912
 20
111.486
 11
39.9
 21
111.5
  0
LINE
  8
0
 10
39.9
 20
111.5
 11
40.1088
 21
111.486
  0
LINE
  8
0
 10
40.1088
 20
111.486
 11
40.3141
 21
111.445
  0
LINE
  8
0
 10
40.3141
 20
111.445
 11
40.5123
 21
111.378
  0
LINE
  8
0
 10
40.5123
 20
111.378
 11
40.7
 21
111.286
  0
LINE
  8
0
 10
40.7
 20
111.286
 11
40.874
 21
111.169
  0
LINE
  8
0
 10
40.874
 20
111.169
 11
41.0314
 21
111.031
  0
LINE
  8
0
 10
41.0314
 20
111.031
 11
41.1694
 21
110.874
  0
LINE
  8
0
 10
41.1694
 20
110.874
 11
41.2856
 21
110.7
  0
LINE
  8
0
 10
41.2856
 20
110.7
 11
41.3782
 21
110.512
  0
LINE
  8
0
 10
41.3782
 20
110.512
 11
41.4455
 21
110.314
  0
LINE
  8
0
 10
41.4455
 20
110.314
 11
41.4863
 21
110.109
  0
LINE
  8
0
 10
41.4863
 20
110.109
 11
41.5
 21
109.9
  0
LINE
  8
0
 10
41.5
 20
109.9
 11
41.4863
 21
109.691
  0
LINE
  8
0
 10
41.4863
 20
109.691
 11
41.4455
 21
109.486
  0
LINE
  8
0
 10
41.4455
 20
109.486
 11
41.3782
 21
109.288
  0
LINE
  8
0
 10
41.3782
 20
109.288
 11
41.2856
 21
109.1
  0
LINE
  8
0
 10
41.2856
 20
109.1
 11
41.1694
 21
108.926
  0
LINE
  8
0
 10
41.1694
 20
108.926
 11
41.0314
 21
108.769
  0
LINE
  8
0
 10
41.0314
 20
108.769
 11
40.874
 21
108.631
  0
LINE
  8
0
 10
40.874
 20
108.631
 11
40.7
 21
108.514
  0
LINE
  8
0
 10
40.7
 20
108.514
 11
40.5123
 21
108.422
  0
LINE
  8
0
 10
40.5123
 20
108.422
 11
40.3141
 21
108.355
  0
LINE
  8
0
 10
40.3141
 20
108.355
 11
40.1088
 21
108.314
  0
LINE
  8
0
 10
40.1088
 20
108.314
 11
39.9
 21
108.3
  0
LINE
  8
0
 10
39.9
 20
108.3
 11
39.6912
 21
108.314
  0
LINE
  8
0
 10
39.6912
 20
108.314
 11
39.4859
 21
108.355
  0
LINE
  8
0
 10
39.4859
 20
108.355
 11
39.2877
 21
108.422
  0
LINE
  8
0
 10
39.2877
 20
108.422
 11
39.1
 21
108.514
  0
LINE
  8
0
 10
39.1
 20
108.514
 11
38.926
 21
108.631
  0
LINE
  8
0
 10
38.926
 20
108.631
 11
38.7686
 21
108.769
  0
LINE
  8
0
 10
38.7686
 20
108.769
 11
38.6306
 21
108.926
  0
LINE
  8
0
 10
38.6306
 20
108.926
 11
38.5144
 21
109.1
  0
LINE
  8
0
 10
38.5144
 20
109.1
 11
38.4218
 21
109.288
  0
LINE
  8
0
 10
38.4218
 20
109.288
 11
38.3545
 21
109.486
  0
LINE
  8
0
 10
38.3545
 20
109.486
 11
38.3137
 21
109.691
  0
LINE
  8
0
 10
38.3137
 20
109.691
 11
38.3
 21
109.9
  0
ENDSEC
  0
SECTION
  2
OBJECTS
  0
DICTIONARY
  0
ENDSEC
  0
EOF
