<?xml version="1.0" standalone="no"?>
<!DOCTYPE svg PUBLIC "-//W3C//DTD SVG 1.1//EN" "http://www.w3.org/Graphics/SVG/1.1/DTD/svg11.dtd">
<svg width="111mm" height="191mm" viewBox="-64 -117 111 191" xmlns="http://www.w3.org/2000/svg" version="1.1">
<title>OpenSCAD Model</title>
<path d="
M -63.0389,66.8 L -63.0386,66.813 L -63.0314,67.1061 L -63.0305,67.1191 L -63.0089,67.4115 L -62.973,67.7025
 L -62.9714,67.7154 L -62.9213,68.0043 L -62.9191,68.0172 L -62.8548,68.3032 L -62.852,68.3159 L -62.7738,68.5985
 L -62.7703,68.6111 L -62.6783,68.8895 L -62.6742,68.9018 L -62.5687,69.1754 L -62.564,69.1875 L -62.4452,69.4556
 L -62.4399,69.4675 L -62.3081,69.7294 L -62.3023,69.741 L -62.1577,69.9961 L -62.1513,70.0075 L -62.1444,70.0185
 L -61.9875,70.2662 L -61.8187,70.5059 L -61.8112,70.5165 L -61.8032,70.5268 L -61.6228,70.7579 L -61.4313,70.98
 L -61.4227,70.9898 L -61.2206,71.2022 L -61.2116,71.2116 L -60.9992,71.4138 L -60.9898,71.4228 L -60.7678,71.6143
 L -60.7579,71.6228 L -60.7477,71.6308 L -60.5165,71.8112 L -60.2768,71.98 L -60.2662,71.9875 L -60.0185,72.1444
 L -60.0075,72.1513 L -59.7523,72.2958 L -59.741,72.3023 L -59.4791,72.4341 L -59.4675,72.4399 L -59.1994,72.5588
 L -59.1875,72.564 L -58.914,72.6696 L -58.9018,72.6742 L -58.6234,72.7662 L -58.6111,72.7703 L -58.3285,72.8485
 L -58.3159,72.852 L -58.0299,72.9162 L -58.0172,72.9191 L -57.7283,72.9692 L -57.7154,72.9714 L -57.4244,73.0073
 L -57.4115,73.0089 L -57.1191,73.0305 L -57.1061,73.0314 L -56.813,73.0386 L -56.8,73.0389 L 40.6,73.0389
 L 40.613,73.0386 L 40.9061,73.0314 L 41.1985,73.0099 L 41.2115,73.0089 L 41.5025,72.973 L 41.5154,72.9714
 L 41.5283,72.9692 L 41.8172,72.9191 L 42.1032,72.8548 L 42.1159,72.852 L 42.1285,72.8485 L 42.4111,72.7703
 L 42.6895,72.6783 L 42.7018,72.6742 L 42.714,72.6696 L 42.9875,72.564 L 42.9994,72.5588 L 43.2675,72.4399
 L 43.5294,72.3081 L 43.541,72.3023 L 43.5523,72.2958 L 43.8075,72.1513 L 44.0552,71.9945 L 44.0662,71.9875
 L 44.3059,71.8187 L 44.3165,71.8112 L 44.5477,71.6308 L 44.5579,71.6228 L 44.78,71.4313 L 44.7898,71.4228
 L 45.0022,71.2206 L 45.0116,71.2116 L 45.2138,70.9992 L 45.2228,70.9898 L 45.4143,70.7678 L 45.4228,70.7579
 L 45.6032,70.5268 L 45.6112,70.5165 L 45.78,70.2768 L 45.7875,70.2662 L 45.9444,70.0185 L 45.9513,70.0075
 L 46.0958,69.7523 L 46.1023,69.741 L 46.1081,69.7294 L 46.2399,69.4675 L 46.2452,69.4556 L 46.364,69.1875
 L 46.4696,68.914 L 46.4742,68.9018 L 46.5662,68.6234 L 46.5703,68.6111 L 46.6485,68.3285 L 46.652,68.3159
 L 46.6548,68.3032 L 46.7191,68.0172 L 46.7692,67.7283 L 46.7714,67.7154 L 46.8073,67.4244 L 46.8089,67.4115
 L 46.8305,67.1191 L 46.8314,67.1061 L 46.8386,66.813 L 46.8389,66.8 L 46.8389,-110.6 L 46.8386,-110.613
 L 46.8314,-110.906 L 46.8099,-111.199 L 46.8089,-111.212 L 46.8073,-111.224 L 46.7714,-111.515 L 46.7213,-111.804
 L 46.7191,-111.817 L 46.6548,-112.103 L 46.652,-112.116 L 46.5738,-112.399 L 46.5703,-112.411 L 46.4783,-112.689
 L 46.4742,-112.702 L 46.3687,-112.975 L 46.364,-112.988 L 46.2452,-113.256 L 46.2399,-113.267 L 46.1081,-113.529
 L 46.1023,-113.541 L 45.9577,-113.796 L 45.9513,-113.807 L 45.7945,-114.055 L 45.7875,-114.066 L 45.6187,-114.306
 L 45.6112,-114.317 L 45.4308,-114.548 L 45.4228,-114.558 L 45.2313,-114.78 L 45.2228,-114.79 L 45.0206,-115.002
 L 45.0116,-115.012 L 44.7992,-115.214 L 44.7898,-115.223 L 44.78,-115.231 L 44.5579,-115.423 L 44.3268,-115.603
 L 44.3165,-115.611 L 44.0768,-115.78 L 44.0662,-115.787 L 44.0552,-115.794 L 43.8075,-115.951 L 43.5523,-116.096
 L 43.541,-116.102 L 43.2791,-116.234 L 43.2675,-116.24 L 42.9994,-116.359 L 42.9875,-116.364 L 42.9754,-116.369
 L 42.7018,-116.474 L 42.4234,-116.566 L 42.4111,-116.57 L 42.1285,-116.648 L 42.1159,-116.652 L 41.8299,-116.716
 L 41.8172,-116.719 L 41.5283,-116.769 L 41.5154,-116.771 L 41.2244,-116.807 L 41.2115,-116.809 L 40.9191,-116.83
 L 40.9061,-116.831 L 40.613,-116.839 L 40.6,-116.839 L -56.8,-116.839 L -56.813,-116.839 L -57.1061,-116.831
 L -57.1191,-116.83 L -57.4115,-116.809 L -57.4244,-116.807 L -57.7154,-116.771 L -58.0043,-116.721 L -58.0172,-116.719
 L -58.3032,-116.655 L -58.3159,-116.652 L -58.5985,-116.574 L -58.6111,-116.57 L -58.8895,-116.478 L -58.9018,-116.474
 L -59.1754,-116.369 L -59.1875,-116.364 L -59.4556,-116.245 L -59.4675,-116.24 L -59.7294,-116.108 L -59.741,-116.102
 L -59.9961,-115.958 L -60.0075,-115.951 L -60.0185,-115.944 L -60.2662,-115.787 L -60.5059,-115.619 L -60.5165,-115.611
 L -60.7477,-115.431 L -60.7579,-115.423 L -60.98,-115.231 L -60.9898,-115.223 L -61.2022,-115.021 L -61.2116,-115.012
 L -61.2206,-115.002 L -61.4227,-114.79 L -61.6143,-114.568 L -61.6228,-114.558 L -61.8032,-114.327 L -61.8112,-114.317
 L -61.8187,-114.306 L -61.9875,-114.066 L -62.1444,-113.818 L -62.1513,-113.807 L -62.2958,-113.552 L -62.3023,-113.541
 L -62.3081,-113.529 L -62.4399,-113.267 L -62.5588,-112.999 L -62.564,-112.988 L -62.6696,-112.714 L -62.6742,-112.702
 L -62.6783,-112.689 L -62.7703,-112.411 L -62.8485,-112.128 L -62.852,-112.116 L -62.9162,-111.83 L -62.9191,-111.817
 L -62.9692,-111.528 L -62.9714,-111.515 L -63.0073,-111.224 L -63.0089,-111.212 L -63.0305,-110.919 L -63.0314,-110.906
 L -63.0386,-110.613 L -63.0389,-110.6 z
M -57.7,66.1 L -57.6863,65.8912 L -57.6455,65.6859 L -57.5782,65.4877 L -57.4856,65.3 L -57.3694,65.126
 L -57.2314,64.9686 L -57.074,64.8306 L -56.9,64.7144 L -56.7123,64.6218 L -56.5141,64.5545 L -56.3088,64.5137
 L -56.1,64.5 L -55.8912,64.5137 L -55.6859,64.5545 L -55.4877,64.6218 L -55.3,64.7144 L -55.126,64.8306
 L -54.9686,64.9686 L -54.8306,65.126 L -54.7144,65.3 L -54.6218,65.4877 L -54.5545,65.6859 L -54.5137,65.8912
 L -54.5,66.1 L -54.5137,66.3088 L -54.5545,66.5141 L -54.6218,66.7123 L -54.7144,66.9 L -54.8306,67.074
 L -54.9686,67.2314 L -55.126,67.3694 L -55.3,67.4856 L -55.4877,67.5782 L -55.6859,67.6455 L -55.8912,67.6863
 L -56.1,67.7 L -56.3088,67.6863 L -56.5141,67.6455 L -56.7123,67.5782 L -56.9,67.4856 L -57.074,67.3694
 L -57.2314,67.2314 L -57.3694,67.074 L -57.4856,66.9 L -57.5782,66.7123 L -57.6455,66.5141 L -57.6863,66.3088
 z
M -57.7,-21.9 L -57.6863,-22.1088 L -57.6455,-22.3141 L -57.5782,-22.5123 L -57.4856,-22.7 L -57.3694,-22.874
 L -57.2314,-23.0314 L -57.074,-23.1694 L -56.9,-23.2856 L -56.7123,-23.3782 L -56.5141,-23.4455 L -56.3088,-23.4863
 L -56.1,-23.5 L -55.8912,-23.4863 L -55.6859,-23.4455 L -55.4877,-23.3782 L -55.3,-23.2856 L -55.126,-23.1694
 L -54.9686,-23.0314 L -54.8306,-22.874 L -54.7144,-22.7 L -54.6218,-22.5123 L -54.5545,-22.3141 L -54.5137,-22.1088
 L -54.5,-21.9 L -54.5137,-21.6912 L -54.5545,-21.4859 L -54.6218,-21.2877 L -54.7144,-21.1 L -54.8306,-20.926
 L -54.9686,-20.7686 L -55.126,-20.6306 L -55.3,-20.5144 L -55.4877,-20.4218 L -55.6859,-20.3545 L -55.8912,-20.3137
 L -56.1,-20.3 L -56.3088,-20.3137 L -56.5141,-20.3545 L -56.7123,-20.4218 L -56.9,-20.5144 L -57.074,-20.6306
 L -57.2314,-20.7686 L -57.3694,-20.926 L -57.4856,-21.1 L -57.5782,-21.2877 L -57.6455,-21.4859 L -57.6863,-21.6912
 z
M -57.7,-109.9 L -57.6863,-110.109 L -57.6455,-110.314 L -57.5782,-110.512 L -57.4856,-110.7 L -57.3694,-110.874
 L -57.2314,-111.031 L -57.074,-111.169 L -56.9,-111.286 L -56.7123,-111.378 L -56.5141,-111.445 L -56.3088,-111.486
 L -56.1,-111.5 L -55.8912,-111.486 L -55.6859,-111.445 L -55.4877,-111.378 L -55.3,-111.286 L -55.126,-111.169
 L -54.9686,-111.031 L -54.8306,-110.874 L -54.7144,-110.7 L -54.6218,-110.512 L -54.5545,-110.314 L -54.5137,-110.109
 L -54.5,-109.9 L -54.5137,-109.691 L -54.5545,-109.486 L -54.6218,-109.288 L -54.7144,-109.1 L -54.8306,-108.926
 L -54.9686,-108.769 L -55.126,-108.631 L -55.3,-108.514 L -55.4877,-108.422 L -55.6859,-108.355 L -55.8912,-108.314
 L -56.1,-108.3 L -56.3088,-108.314 L -56.5141,-108.355 L -56.7123,-108.422 L -56.9,-108.514 L -57.074,-108.631
 L -57.2314,-108.769 L -57.3694,-108.926 L -57.4856,-109.1 L -57.5782,-109.288 L -57.6455,-109.486 L -57.6863,-109.691
 z
M -53.57,-49.76 L -53.57,-58.26 L -28.17,-58.26 L -28.17,-49.76 L -34.62,-49.76 L -34.62,-45.12
 L -47.12,-45.12 L -47.12,-49.76 z
M -53.46,-64 L -53.46,-89 L -28.46,-89 L -28.46,-64 z
M -51.73,-47.66 L -51.724,-47.7514 L -51.7061,-47.8412 L -51.6767,-47.9279 L -51.6362,-48.01 L -51.5853,-48.0861
 L -51.525,-48.155 L -51.4561,-48.2153 L -51.38,-48.2662 L -51.2979,-48.3067 L -51.2112,-48.3361 L -51.1214,-48.354
 L -51.03,-48.36 L -50.9386,-48.354 L -50.8488,-48.3361 L -50.7621,-48.3067 L -50.68,-48.2662 L -50.6039,-48.2153
 L -50.535,-48.155 L -50.4747,-48.0861 L -50.4238,-48.01 L -50.3833,-47.9279 L -50.3539,-47.8412 L -50.336,-47.7514
 L -50.33,-47.66 L -50.336,-47.5686 L -50.3539,-47.4788 L -50.3833,-47.3921 L -50.4238,-47.31 L -50.4747,-47.2339
 L -50.535,-47.165 L -50.6039,-47.1047 L -50.68,-47.0538 L -50.7621,-47.0133 L -50.8488,-46.9839 L -50.9386,-46.966
 L -51.03,-46.96 L -51.1214,-46.966 L -51.2112,-46.9839 L -51.2979,-47.0133 L -51.38,-47.0538 L -51.4561,-47.1047
 L -51.525,-47.165 L -51.5853,-47.2339 L -51.6362,-47.31 L -51.6767,-47.3921 L -51.7061,-47.4788 L -51.724,-47.5686
 z
M -51.73,-60.36 L -51.724,-60.4514 L -51.7061,-60.5412 L -51.6767,-60.6279 L -51.6362,-60.71 L -51.5853,-60.7861
 L -51.525,-60.855 L -51.4561,-60.9153 L -51.38,-60.9662 L -51.2979,-61.0067 L -51.2112,-61.0361 L -51.1214,-61.054
 L -51.03,-61.06 L -50.9386,-61.054 L -50.8488,-61.0361 L -50.7621,-61.0067 L -50.68,-60.9662 L -50.6039,-60.9153
 L -50.535,-60.855 L -50.4747,-60.7861 L -50.4238,-60.71 L -50.3833,-60.6279 L -50.3539,-60.5412 L -50.336,-60.4514
 L -50.33,-60.36 L -50.336,-60.2686 L -50.3539,-60.1788 L -50.3833,-60.0921 L -50.4238,-60.01 L -50.4747,-59.9339
 L -50.535,-59.865 L -50.6039,-59.8046 L -50.68,-59.7538 L -50.7621,-59.7133 L -50.8488,-59.6838 L -50.9386,-59.666
 L -51.03,-59.66 L -51.1214,-59.666 L -51.2112,-59.6838 L -51.2979,-59.7133 L -51.38,-59.7538 L -51.4561,-59.8046
 L -51.525,-59.865 L -51.5853,-59.9339 L -51.6362,-60.01 L -51.6767,-60.0921 L -51.7061,-60.1788 L -51.724,-60.2686
 z
M -51,-13.9 L -50.9872,-14.0958 L -50.9489,-14.2882 L -50.8858,-14.474 L -50.799,-14.65 L -50.69,-14.8131
 L -50.5607,-14.9607 L -50.4131,-15.09 L -50.25,-15.199 L -50.074,-15.2858 L -49.8882,-15.3489 L -49.6958,-15.3872
 L -49.5,-15.4 L -49.3042,-15.3872 L -49.1118,-15.3489 L -48.926,-15.2858 L -48.75,-15.199 L -48.5869,-15.09
 L -48.4393,-14.9607 L -48.31,-14.8131 L -48.201,-14.65 L -48.1142,-14.474 L -48.0511,-14.2882 L -48.0128,-14.0958
 L -48,-13.9 L -48.0128,-13.7042 L -48.0511,-13.5118 L -48.1142,-13.326 L -48.201,-13.15 L -48.31,-12.9869
 L -48.4393,-12.8393 L -48.5869,-12.71 L -48.75,-12.601 L -48.926,-12.5142 L -49.1118,-12.4511 L -49.3042,-12.4128
 L -49.5,-12.4 L -49.6958,-12.4128 L -49.8882,-12.4511 L -50.074,-12.5142 L -50.25,-12.601 L -50.4131,-12.71
 L -50.5607,-12.8393 L -50.69,-12.9869 L -50.799,-13.15 L -50.8858,-13.326 L -50.9489,-13.5118 L -50.9872,-13.7042
 z
M -50.5,43.1 L -50.4914,42.9695 L -50.4659,42.8412 L -50.4239,42.7173 L -50.366,42.6 L -50.2934,42.4912
 L -50.2071,42.3929 L -50.1088,42.3066 L -50,42.234 L -49.8827,42.1761 L -49.7588,42.1341 L -49.6305,42.1086
 L -49.5,42.1 L -49.3695,42.1086 L -49.2412,42.1341 L -49.1173,42.1761 L -49,42.234 L -48.8912,42.3066
 L -48.7929,42.3929 L -48.7066,42.4912 L -48.634,42.6 L -48.5761,42.7173 L -48.5341,42.8412 L -48.5086,42.9695
 L -48.5,43.1 L -48.5086,43.2305 L -48.5341,43.3588 L -48.5761,43.4827 L -48.634,43.6 L -48.7066,43.7088
 L -48.7929,43.8071 L -48.8912,43.8934 L -49,43.966 L -49.1173,44.0239 L -49.2412,44.0659 L -49.3695,44.0914
 L -49.5,44.1 L -49.6305,44.0914 L -49.7588,44.0659 L -49.8827,44.0239 L -50,43.966 L -50.1088,43.8934
 L -50.2071,43.8071 L -50.2934,43.7088 L -50.366,43.6 L -50.4239,43.4827 L -50.4659,43.3588 L -50.4914,43.2305
 z
M -41.25,-106 L -41.2393,-106.163 L -41.2074,-106.324 L -41.1549,-106.478 L -41.0825,-106.625 L -40.9917,-106.761
 L -40.8839,-106.884 L -40.761,-106.992 L -40.625,-107.083 L -40.4784,-107.155 L -40.3235,-107.207 L -40.1632,-107.239
 L -40,-107.25 L -39.8368,-107.239 L -39.6765,-107.207 L -39.5216,-107.155 L -39.375,-107.083 L -39.239,-106.992
 L -39.1161,-106.884 L -39.0083,-106.761 L -38.9175,-106.625 L -38.8452,-106.478 L -38.7926,-106.324 L -38.7607,-106.163
 L -38.75,-106 L -38.7607,-105.837 L -38.7926,-105.676 L -38.8452,-105.522 L -38.9175,-105.375 L -39.0083,-105.239
 L -39.1161,-105.116 L -39.239,-105.008 L -39.375,-104.917 L -39.5216,-104.845 L -39.6765,-104.793 L -39.8368,-104.761
 L -40,-104.75 L -40.1632,-104.761 L -40.3235,-104.793 L -40.4784,-104.845 L -40.625,-104.917 L -40.761,-105.008
 L -40.8839,-105.116 L -40.9917,-105.239 L -41.0825,-105.375 L -41.1549,-105.522 L -41.2074,-105.676 L -41.2393,-105.837
 z
M -32.5,55.5 L -32.5,-32.5 L 8.5,-32.5 L 8.5,55.5 z
M -31.41,-47.66 L -31.404,-47.7514 L -31.3862,-47.8412 L -31.3567,-47.9279 L -31.3162,-48.01 L -31.2654,-48.0861
 L -31.205,-48.155 L -31.1361,-48.2153 L -31.06,-48.2662 L -30.9779,-48.3067 L -30.8912,-48.3361 L -30.8014,-48.354
 L -30.71,-48.36 L -30.6186,-48.354 L -30.5288,-48.3361 L -30.4421,-48.3067 L -30.36,-48.2662 L -30.2839,-48.2153
 L -30.215,-48.155 L -30.1547,-48.0861 L -30.1038,-48.01 L -30.0633,-47.9279 L -30.0339,-47.8412 L -30.016,-47.7514
 L -30.01,-47.66 L -30.016,-47.5686 L -30.0339,-47.4788 L -30.0633,-47.3921 L -30.1038,-47.31 L -30.1547,-47.2339
 L -30.215,-47.165 L -30.2839,-47.1047 L -30.36,-47.0538 L -30.4421,-47.0133 L -30.5288,-46.9839 L -30.6186,-46.966
 L -30.71,-46.96 L -30.8014,-46.966 L -30.8912,-46.9839 L -30.9779,-47.0133 L -31.06,-47.0538 L -31.1361,-47.1047
 L -31.205,-47.165 L -31.2654,-47.2339 L -31.3162,-47.31 L -31.3567,-47.3921 L -31.3862,-47.4788 L -31.404,-47.5686
 z
M -31.41,-60.36 L -31.404,-60.4514 L -31.3862,-60.5412 L -31.3567,-60.6279 L -31.3162,-60.71 L -31.2654,-60.7861
 L -31.205,-60.855 L -31.1361,-60.9153 L -31.06,-60.9662 L -30.9779,-61.0067 L -30.8912,-61.0361 L -30.8014,-61.054
 L -30.71,-61.06 L -30.6186,-61.054 L -30.5288,-61.0361 L -30.4421,-61.0067 L -30.36,-60.9662 L -30.2839,-60.9153
 L -30.215,-60.855 L -30.1547,-60.7861 L -30.1038,-60.71 L -30.0633,-60.6279 L -30.0339,-60.5412 L -30.016,-60.4514
 L -30.01,-60.36 L -30.016,-60.2686 L -30.0339,-60.1788 L -30.0633,-60.0921 L -30.1038,-60.01 L -30.1547,-59.9339
 L -30.215,-59.865 L -30.2839,-59.8046 L -30.36,-59.7538 L -30.4421,-59.7133 L -30.5288,-59.6838 L -30.6186,-59.666
 L -30.71,-59.66 L -30.8014,-59.666 L -30.8912,-59.6838 L -30.9779,-59.7133 L -31.06,-59.7538 L -31.1361,-59.8046
 L -31.205,-59.865 L -31.2654,-59.9339 L -31.3162,-60.01 L -31.3567,-60.0921 L -31.3862,-60.1788 L -31.404,-60.2686
 z
M -30.44,-95.48 L -30.44,-103.98 L -16.24,-103.98 L -16.24,-106.34 L -8.74,-106.34 L -8.74,-103.98
 L -3.04,-103.98 L -3.04,-95.48 L -8.58,-95.48 L -8.58,-90.84 L -24.9,-90.84 L -24.9,-95.48
 z
M -27.6,-93.38 L -27.594,-93.4714 L -27.5761,-93.5612 L -27.5467,-93.6479 L -27.5062,-93.73 L -27.4553,-93.8061
 L -27.395,-93.875 L -27.3261,-93.9353 L -27.25,-93.9862 L -27.1679,-94.0267 L -27.0812,-94.0561 L -26.9914,-94.074
 L -26.9,-94.08 L -26.8086,-94.074 L -26.7188,-94.0561 L -26.6321,-94.0267 L -26.55,-93.9862 L -26.4739,-93.9353
 L -26.405,-93.875 L -26.3447,-93.8061 L -26.2938,-93.73 L -26.2533,-93.6479 L -26.2239,-93.5612 L -26.206,-93.4714
 L -26.2,-93.38 L -26.206,-93.2886 L -26.2239,-93.1988 L -26.2533,-93.1121 L -26.2938,-93.03 L -26.3447,-92.9539
 L -26.405,-92.885 L -26.4739,-92.8247 L -26.55,-92.7738 L -26.6321,-92.7333 L -26.7188,-92.7039 L -26.8086,-92.686
 L -26.9,-92.68 L -26.9914,-92.686 L -27.0812,-92.7039 L -27.1679,-92.7333 L -27.25,-92.7738 L -27.3261,-92.8247
 L -27.395,-92.885 L -27.4553,-92.9539 L -27.5062,-93.03 L -27.5467,-93.1121 L -27.5761,-93.1988 L -27.594,-93.2886
 z
M -27.6,-106.08 L -27.594,-106.171 L -27.5761,-106.261 L -27.5467,-106.348 L -27.5062,-106.43 L -27.4553,-106.506
 L -27.395,-106.575 L -27.3261,-106.635 L -27.25,-106.686 L -27.1679,-106.727 L -27.0812,-106.756 L -26.9914,-106.774
 L -26.9,-106.78 L -26.8086,-106.774 L -26.7188,-106.756 L -26.6321,-106.727 L -26.55,-106.686 L -26.4739,-106.635
 L -26.405,-106.575 L -26.3447,-106.506 L -26.2938,-106.43 L -26.2533,-106.348 L -26.2239,-106.261 L -26.206,-106.171
 L -26.2,-106.08 L -26.206,-105.989 L -26.2239,-105.899 L -26.2533,-105.812 L -26.2938,-105.73 L -26.3447,-105.654
 L -26.405,-105.585 L -26.4739,-105.525 L -26.55,-105.474 L -26.6321,-105.433 L -26.7188,-105.404 L -26.8086,-105.386
 L -26.9,-105.38 L -26.9914,-105.386 L -27.0812,-105.404 L -27.1679,-105.433 L -27.25,-105.474 L -27.3261,-105.525
 L -27.395,-105.585 L -27.4553,-105.654 L -27.5062,-105.73 L -27.5467,-105.812 L -27.5761,-105.899 L -27.594,-105.989
 z
M -21.16,-50.38 L -21.16,-60.38 L -15.66,-60.38 L -15.66,-64.88 L -7.66,-64.88 L -7.66,-60.38
 L -2.16,-60.38 L -2.16,-50.38 L -4.41,-50.38 L -4.41,-44.88 L -18.91,-44.88 L -18.91,-50.38
 z
M -21.16,-73.24 L -21.16,-83.24 L -15.66,-83.24 L -15.66,-87.74 L -7.66,-87.74 L -7.66,-83.24
 L -2.16,-83.24 L -2.16,-73.24 L -4.41,-73.24 L -4.41,-67.74 L -18.91,-67.74 L -18.91,-73.24
 z
M -19.41,-62.43 L -19.404,-62.5214 L -19.3861,-62.6112 L -19.3567,-62.6979 L -19.3162,-62.78 L -19.2653,-62.8561
 L -19.205,-62.925 L -19.1361,-62.9853 L -19.06,-63.0362 L -18.9779,-63.0767 L -18.8912,-63.1061 L -18.8014,-63.124
 L -18.71,-63.13 L -18.6186,-63.124 L -18.5288,-63.1061 L -18.4421,-63.0767 L -18.36,-63.0362 L -18.2839,-62.9853
 L -18.215,-62.925 L -18.1547,-62.8561 L -18.1038,-62.78 L -18.0633,-62.6979 L -18.0339,-62.6112 L -18.016,-62.5214
 L -18.01,-62.43 L -18.016,-62.3386 L -18.0339,-62.2488 L -18.0633,-62.1621 L -18.1038,-62.08 L -18.1547,-62.0039
 L -18.215,-61.935 L -18.2839,-61.8747 L -18.36,-61.8238 L -18.4421,-61.7833 L -18.5288,-61.7539 L -18.6186,-61.736
 L -18.71,-61.73 L -18.8014,-61.736 L -18.8912,-61.7539 L -18.9779,-61.7833 L -19.06,-61.8238 L -19.1361,-61.8747
 L -19.205,-61.935 L -19.2653,-62.0039 L -19.3162,-62.08 L -19.3567,-62.1621 L -19.3861,-62.2488 L -19.404,-62.3386
 z
M -19.41,-85.29 L -19.404,-85.3814 L -19.3861,-85.4712 L -19.3567,-85.5579 L -19.3162,-85.64 L -19.2653,-85.7161
 L -19.205,-85.785 L -19.1361,-85.8453 L -19.06,-85.8962 L -18.9779,-85.9367 L -18.8912,-85.9661 L -18.8014,-85.984
 L -18.71,-85.99 L -18.6186,-85.984 L -18.5288,-85.9661 L -18.4421,-85.9367 L -18.36,-85.8962 L -18.2839,-85.8453
 L -18.215,-85.785 L -18.1547,-85.7161 L -18.1038,-85.64 L -18.0633,-85.5579 L -18.0339,-85.4712 L -18.016,-85.3814
 L -18.01,-85.29 L -18.016,-85.1986 L -18.0339,-85.1088 L -18.0633,-85.0221 L -18.1038,-84.94 L -18.1547,-84.8639
 L -18.215,-84.795 L -18.2839,-84.7347 L -18.36,-84.6838 L -18.4421,-84.6433 L -18.5288,-84.6139 L -18.6186,-84.596
 L -18.71,-84.59 L -18.8014,-84.596 L -18.8912,-84.6139 L -18.9779,-84.6433 L -19.06,-84.6838 L -19.1361,-84.7347
 L -19.205,-84.795 L -19.2653,-84.8639 L -19.3162,-84.94 L -19.3567,-85.0221 L -19.3861,-85.1088 L -19.404,-85.1986
 z
M -7.28,-93.38 L -7.27402,-93.4714 L -7.25616,-93.5612 L -7.22672,-93.6479 L -7.18622,-93.73 L -7.13535,-93.8061
 L -7.07499,-93.875 L -7.00614,-93.9353 L -6.93001,-93.9862 L -6.84789,-94.0267 L -6.76118,-94.0561 L -6.67138,-94.074
 L -6.58001,-94.08 L -6.48864,-94.074 L -6.39884,-94.0561 L -6.31212,-94.0267 L -6.23,-93.9862 L -6.15388,-93.9353
 L -6.08503,-93.875 L -6.02466,-93.8061 L -5.97379,-93.73 L -5.93329,-93.6479 L -5.90386,-93.5612 L -5.88599,-93.4714
 L -5.88001,-93.38 L -5.88599,-93.2886 L -5.90386,-93.1988 L -5.93329,-93.1121 L -5.97379,-93.03 L -6.02466,-92.9539
 L -6.08503,-92.885 L -6.15388,-92.8247 L -6.23,-92.7738 L -6.31212,-92.7333 L -6.39884,-92.7039 L -6.48864,-92.686
 L -6.58001,-92.68 L -6.67138,-92.686 L -6.76118,-92.7039 L -6.84789,-92.7333 L -6.93001,-92.7738 L -7.00614,-92.8247
 L -7.07499,-92.885 L -7.13535,-92.9539 L -7.18622,-93.03 L -7.22672,-93.1121 L -7.25616,-93.1988 L -7.27402,-93.2886
 z
M -7.28,-106.08 L -7.27402,-106.171 L -7.25616,-106.261 L -7.22672,-106.348 L -7.18622,-106.43 L -7.13535,-106.506
 L -7.07499,-106.575 L -7.00614,-106.635 L -6.93001,-106.686 L -6.84789,-106.727 L -6.76118,-106.756 L -6.67138,-106.774
 L -6.58001,-106.78 L -6.48864,-106.774 L -6.39884,-106.756 L -6.31212,-106.727 L -6.23,-106.686 L -6.15388,-106.635
 L -6.08503,-106.575 L -6.02466,-106.506 L -5.97379,-106.43 L -5.93329,-106.348 L -5.90386,-106.261 L -5.88599,-106.171
 L -5.88001,-106.08 L -5.88599,-105.989 L -5.90386,-105.899 L -5.93329,-105.812 L -5.97379,-105.73 L -6.02466,-105.654
 L -6.08503,-105.585 L -6.15388,-105.525 L -6.23,-105.474 L -6.31212,-105.433 L -6.39884,-105.404 L -6.48864,-105.386
 L -6.58001,-105.38 L -6.67138,-105.386 L -6.76118,-105.404 L -6.84789,-105.433 L -6.93001,-105.474 L -7.00614,-105.525
 L -7.07499,-105.585 L -7.13535,-105.654 L -7.18622,-105.73 L -7.22672,-105.812 L -7.25616,-105.899 L -7.27402,-105.989
 z
M -5.31,-62.43 L -5.30401,-62.5214 L -5.28615,-62.6112 L -5.25672,-62.6979 L -5.21622,-62.78 L -5.16535,-62.8561
 L -5.10498,-62.925 L -5.03613,-62.9853 L -4.96,-63.0362 L -4.87788,-63.0767 L -4.79117,-63.1061 L -4.70137,-63.124
 L -4.61,-63.13 L -4.51863,-63.124 L -4.42883,-63.1061 L -4.34212,-63.0767 L -4.26,-63.0362 L -4.18387,-62.9853
 L -4.11503,-62.925 L -4.05465,-62.8561 L -4.00378,-62.78 L -3.96328,-62.6979 L -3.93385,-62.6112 L -3.91599,-62.5214
 L -3.91,-62.43 L -3.91599,-62.3386 L -3.93385,-62.2488 L -3.96328,-62.1621 L -4.00378,-62.08 L -4.05465,-62.0039
 L -4.11503,-61.935 L -4.18387,-61.8747 L -4.26,-61.8238 L -4.34212,-61.7833 L -4.42883,-61.7539 L -4.51863,-61.736
 L -4.61,-61.73 L -4.70137,-61.736 L -4.79117,-61.7539 L -4.87788,-61.7833 L -4.96,-61.8238 L -5.03613,-61.8747
 L -5.10498,-61.935 L -5.16535,-62.0039 L -5.21622,-62.08 L -5.25672,-62.1621 L -5.28615,-62.2488 L -5.30401,-62.3386
 z
M -5.31,-85.29 L -5.30401,-85.3814 L -5.28615,-85.4712 L -5.25672,-85.5579 L -5.21622,-85.64 L -5.16535,-85.7161
 L -5.10498,-85.785 L -5.03613,-85.8453 L -4.96,-85.8962 L -4.87788,-85.9367 L -4.79117,-85.9661 L -4.70137,-85.984
 L -4.61,-85.99 L -4.51863,-85.984 L -4.42883,-85.9661 L -4.34212,-85.9367 L -4.26,-85.8962 L -4.18387,-85.8453
 L -4.11503,-85.785 L -4.05465,-85.7161 L -4.00378,-85.64 L -3.96328,-85.5579 L -3.93385,-85.4712 L -3.91599,-85.3814
 L -3.91,-85.29 L -3.91599,-85.1986 L -3.93385,-85.1088 L -3.96328,-85.0221 L -4.00378,-84.94 L -4.05465,-84.8639
 L -4.11503,-84.795 L -4.18387,-84.7347 L -4.26,-84.6838 L -4.34212,-84.6433 L -4.42883,-84.6139 L -4.51863,-84.596
 L -4.61,-84.59 L -4.70137,-84.596 L -4.79117,-84.6139 L -4.87788,-84.6433 L -4.96,-84.6838 L -5.03613,-84.7347
 L -5.10498,-84.795 L -5.16535,-84.8639 L -5.21622,-84.94 L -5.25672,-85.0221 L -5.28615,-85.1088 L -5.30401,-85.1986
 z
M 1.31,-92.94 L 1.31,-101.44 L 28.71,-101.44 L 28.71,-92.94 L 23.17,-92.94 L 23.17,-88.3
 L 6.85,-88.3 L 6.85,-92.94 z
M 4.15,-90.84 L 4.156,-90.9314 L 4.17385,-91.0212 L 4.20329,-91.1079 L 4.24378,-91.19 L 4.29466,-91.2661
 L 4.35504,-91.335 L 4.42387,-91.3953 L 4.50001,-91.4462 L 4.58213,-91.4867 L 4.66883,-91.5161 L 4.75865,-91.534
 L 4.85,-91.54 L 4.94135,-91.534 L 5.03117,-91.5161 L 5.11787,-91.4867 L 5.19999,-91.4462 L 5.27613,-91.3953
 L 5.34496,-91.335 L 5.40534,-91.2661 L 5.45622,-91.19 L 5.49671,-91.1079 L 5.52615,-91.0212 L 5.544,-90.9314
 L 5.55,-90.84 L 5.544,-90.7486 L 5.52615,-90.6588 L 5.49671,-90.5721 L 5.45622,-90.49 L 5.40534,-90.4139
 L 5.34496,-90.345 L 5.27613,-90.2847 L 5.19999,-90.2338 L 5.11787,-90.1933 L 5.03117,-90.1639 L 4.94135,-90.146
 L 4.85,-90.14 L 4.75865,-90.146 L 4.66883,-90.1639 L 4.58213,-90.1933 L 4.50001,-90.2338 L 4.42387,-90.2847
 L 4.35504,-90.345 L 4.29466,-90.4139 L 4.24378,-90.49 L 4.20329,-90.5721 L 4.17385,-90.6588 L 4.156,-90.7486
 z
M 4.15,-103.54 L 4.156,-103.631 L 4.17385,-103.721 L 4.20329,-103.808 L 4.24378,-103.89 L 4.29466,-103.966
 L 4.35504,-104.035 L 4.42387,-104.095 L 4.50001,-104.146 L 4.58213,-104.187 L 4.66883,-104.216 L 4.75865,-104.234
 L 4.85,-104.24 L 4.94135,-104.234 L 5.03117,-104.216 L 5.11787,-104.187 L 5.19999,-104.146 L 5.27613,-104.095
 L 5.34496,-104.035 L 5.40534,-103.966 L 5.45622,-103.89 L 5.49671,-103.808 L 5.52615,-103.721 L 5.544,-103.631
 L 5.55,-103.54 L 5.544,-103.449 L 5.52615,-103.359 L 5.49671,-103.272 L 5.45622,-103.19 L 5.40534,-103.114
 L 5.34496,-103.045 L 5.27613,-102.985 L 5.19999,-102.934 L 5.11787,-102.893 L 5.03117,-102.864 L 4.94135,-102.846
 L 4.85,-102.84 L 4.75865,-102.846 L 4.66883,-102.864 L 4.58213,-102.893 L 4.50001,-102.934 L 4.42387,-102.985
 L 4.35504,-103.045 L 4.29466,-103.114 L 4.24378,-103.19 L 4.20329,-103.272 L 4.17385,-103.359 L 4.156,-103.449
 z
M 6.4,-45.32 L 6.4,-53.42 L 28.72,-53.42 L 28.72,-45.32 z
M 9.24,-55.48 L 9.246,-55.5714 L 9.26385,-55.6612 L 9.29329,-55.7479 L 9.33378,-55.83 L 9.38466,-55.9061
 L 9.44504,-55.975 L 9.51387,-56.0353 L 9.59001,-56.0862 L 9.67213,-56.1267 L 9.75883,-56.1561 L 9.84865,-56.174
 L 9.94,-56.18 L 10.0314,-56.174 L 10.1212,-56.1561 L 10.2079,-56.1267 L 10.29,-56.0862 L 10.3661,-56.0353
 L 10.435,-55.975 L 10.4953,-55.9061 L 10.5462,-55.83 L 10.5867,-55.7479 L 10.6161,-55.6612 L 10.634,-55.5714
 L 10.64,-55.48 L 10.634,-55.3886 L 10.6161,-55.2988 L 10.5867,-55.2121 L 10.5462,-55.13 L 10.4953,-55.0539
 L 10.435,-54.985 L 10.3661,-54.9247 L 10.29,-54.8738 L 10.2079,-54.8333 L 10.1212,-54.8039 L 10.0314,-54.786
 L 9.94,-54.78 L 9.84865,-54.786 L 9.75883,-54.8039 L 9.67213,-54.8333 L 9.59001,-54.8738 L 9.51387,-54.9247
 L 9.44504,-54.985 L 9.38466,-55.0539 L 9.33378,-55.13 L 9.29329,-55.2121 L 9.26385,-55.2988 L 9.246,-55.3886
 z
M 11.83,-72.3 L 11.83,-75.8 L 12.085,-75.8 L 12.085,-80.4 L 28.085,-80.4 L 28.085,-75.8
 L 28.34,-75.8 L 28.34,-72.3 z
M 13.67,-70.24 L 13.676,-70.3314 L 13.6939,-70.4212 L 13.7233,-70.5079 L 13.7638,-70.59 L 13.8147,-70.6661
 L 13.875,-70.735 L 13.9439,-70.7953 L 14.02,-70.8462 L 14.1021,-70.8867 L 14.1888,-70.9161 L 14.2786,-70.934
 L 14.37,-70.94 L 14.4614,-70.934 L 14.5512,-70.9161 L 14.6379,-70.8867 L 14.72,-70.8462 L 14.7961,-70.7953
 L 14.865,-70.735 L 14.9253,-70.6661 L 14.9762,-70.59 L 15.0167,-70.5079 L 15.0461,-70.4212 L 15.064,-70.3314
 L 15.07,-70.24 L 15.064,-70.1486 L 15.0461,-70.0588 L 15.0167,-69.9721 L 14.9762,-69.89 L 14.9253,-69.8139
 L 14.865,-69.745 L 14.7961,-69.6847 L 14.72,-69.6338 L 14.6379,-69.5933 L 14.5512,-69.5639 L 14.4614,-69.546
 L 14.37,-69.54 L 14.2786,-69.546 L 14.1888,-69.5639 L 14.1021,-69.5933 L 14.02,-69.6338 L 13.9439,-69.6847
 L 13.875,-69.745 L 13.8147,-69.8139 L 13.7638,-69.89 L 13.7233,-69.9721 L 13.6939,-70.0588 L 13.676,-70.1486
 z
M 24.47,-90.84 L 24.476,-90.9314 L 24.4938,-91.0212 L 24.5233,-91.1079 L 24.5638,-91.19 L 24.6146,-91.2661
 L 24.675,-91.335 L 24.7439,-91.3953 L 24.82,-91.4462 L 24.9021,-91.4867 L 24.9888,-91.5161 L 25.0786,-91.534
 L 25.17,-91.54 L 25.2614,-91.534 L 25.3512,-91.5161 L 25.4379,-91.4867 L 25.52,-91.4462 L 25.5961,-91.3953
 L 25.665,-91.335 L 25.7253,-91.2661 L 25.7762,-91.19 L 25.8167,-91.1079 L 25.8461,-91.0212 L 25.864,-90.9314
 L 25.87,-90.84 L 25.864,-90.7486 L 25.8461,-90.6588 L 25.8167,-90.5721 L 25.7762,-90.49 L 25.7253,-90.4139
 L 25.665,-90.345 L 25.5961,-90.2847 L 25.52,-90.2338 L 25.4379,-90.1933 L 25.3512,-90.1639 L 25.2614,-90.146
 L 25.17,-90.14 L 25.0786,-90.146 L 24.9888,-90.1639 L 24.9021,-90.1933 L 24.82,-90.2338 L 24.7439,-90.2847
 L 24.675,-90.345 L 24.6146,-90.4139 L 24.5638,-90.49 L 24.5233,-90.5721 L 24.4938,-90.6588 L 24.476,-90.7486
 z
M 24.47,-103.54 L 24.476,-103.631 L 24.4938,-103.721 L 24.5233,-103.808 L 24.5638,-103.89 L 24.6146,-103.966
 L 24.675,-104.035 L 24.7439,-104.095 L 24.82,-104.146 L 24.9021,-104.187 L 24.9888,-104.216 L 25.0786,-104.234
 L 25.17,-104.24 L 25.2614,-104.234 L 25.3512,-104.216 L 25.4379,-104.187 L 25.52,-104.146 L 25.5961,-104.095
 L 25.665,-104.035 L 25.7253,-103.966 L 25.7762,-103.89 L 25.8167,-103.808 L 25.8461,-103.721 L 25.864,-103.631
 L 25.87,-103.54 L 25.864,-103.449 L 25.8461,-103.359 L 25.8167,-103.272 L 25.7762,-103.19 L 25.7253,-103.114
 L 25.665,-103.045 L 25.5961,-102.985 L 25.52,-102.934 L 25.4379,-102.893 L 25.3512,-102.864 L 25.2614,-102.846
 L 25.17,-102.84 L 25.0786,-102.846 L 24.9888,-102.864 L 24.9021,-102.893 L 24.82,-102.934 L 24.7439,-102.985
 L 24.675,-103.045 L 24.6146,-103.114 L 24.5638,-103.19 L 24.5233,-103.272 L 24.4938,-103.359 L 24.476,-103.449
 z
M 24.48,-55.48 L 24.486,-55.5714 L 24.5038,-55.6612 L 24.5333,-55.7479 L 24.5738,-55.83 L 24.6246,-55.9061
 L 24.685,-55.975 L 24.7539,-56.0353 L 24.83,-56.0862 L 24.9121,-56.1267 L 24.9988,-56.1561 L 25.0886,-56.174
 L 25.18,-56.18 L 25.2714,-56.174 L 25.3612,-56.1561 L 25.4479,-56.1267 L 25.53,-56.0862 L 25.6061,-56.0353
 L 25.675,-55.975 L 25.7353,-55.9061 L 25.7862,-55.83 L 25.8267,-55.7479 L 25.8561,-55.6612 L 25.874,-55.5714
 L 25.88,-55.48 L 25.874,-55.3886 L 25.8561,-55.2988 L 25.8267,-55.2121 L 25.7862,-55.13 L 25.7353,-55.0539
 L 25.675,-54.985 L 25.6061,-54.9247 L 25.53,-54.8738 L 25.4479,-54.8333 L 25.3612,-54.8039 L 25.2714,-54.786
 L 25.18,-54.78 L 25.0886,-54.786 L 24.9988,-54.8039 L 24.9121,-54.8333 L 24.83,-54.8738 L 24.7539,-54.9247
 L 24.685,-54.985 L 24.6246,-55.0539 L 24.5738,-55.13 L 24.5333,-55.2121 L 24.5038,-55.2988 L 24.486,-55.3886
 z
M 25.1,-70.24 L 25.106,-70.3314 L 25.1238,-70.4212 L 25.1533,-70.5079 L 25.1938,-70.59 L 25.2446,-70.6661
 L 25.305,-70.735 L 25.3739,-70.7953 L 25.45,-70.8462 L 25.5321,-70.8867 L 25.6188,-70.9161 L 25.7086,-70.934
 L 25.8,-70.94 L 25.8914,-70.934 L 25.9812,-70.9161 L 26.0679,-70.8867 L 26.15,-70.8462 L 26.2261,-70.7953
 L 26.295,-70.735 L 26.3553,-70.6661 L 26.4062,-70.59 L 26.4467,-70.5079 L 26.4761,-70.4212 L 26.494,-70.3314
 L 26.5,-70.24 L 26.494,-70.1486 L 26.4761,-70.0588 L 26.4467,-69.9721 L 26.4062,-69.89 L 26.3553,-69.8139
 L 26.295,-69.745 L 26.2261,-69.6847 L 26.15,-69.6338 L 26.0679,-69.5933 L 25.9812,-69.5639 L 25.8914,-69.546
 L 25.8,-69.54 L 25.7086,-69.546 L 25.6188,-69.5639 L 25.5321,-69.5933 L 25.45,-69.6338 L 25.3739,-69.6847
 L 25.305,-69.745 L 25.2446,-69.8139 L 25.1938,-69.89 L 25.1533,-69.9721 L 25.1238,-70.0588 L 25.106,-70.1486
 z
M 38.3,66.1 L 38.3137,65.8912 L 38.3545,65.6859 L 38.4218,65.4877 L 38.5144,65.3 L 38.6306,65.126
 L 38.7686,64.9686 L 38.926,64.8306 L 39.1,64.7144 L 39.2877,64.6218 L 39.4859,64.5545 L 39.6912,64.5137
 L 39.9,64.5 L 40.1088,64.5137 L 40.3141,64.5545 L 40.5123,64.6218 L 40.7,64.7144 L 40.874,64.8306
 L 41.0314,64.9686 L 41.1694,65.126 L 41.2856,65.3 L 41.3782,65.4877 L 41.4455,65.6859 L 41.4863,65.8912
 L 41.5,66.1 L 41.4863,66.3088 L 41.4455,66.5141 L 41.3782,66.7123 L 41.2856,66.9 L 41.1694,67.074
 L 41.0314,67.2314 L 40.874,67.3694 L 40.7,67.4856 L 40.5123,67.5782 L 40.3141,67.6455 L 40.1088,67.6863
 L 39.9,67.7 L 39.6912,67.6863 L 39.4859,67.6455 L 39.2877,67.5782 L 39.1,67.4856 L 38.926,67.3694
 L 38.7686,67.2314 L 38.6306,67.074 L 38.5144,66.9 L 38.4218,66.7123 L 38.3545,66.5141 L 38.3137,66.3088
 z
M 38.3,-21.9 L 38.3137,-22.1088 L 38.3545,-22.3141 L 38.4218,-22.5123 L 38.5144,-22.7 L 38.6306,-22.874
 L 38.7686,-23.0314 L 38.926,-23.1694 L 39.1,-23.2856 L 39.2877,-23.3782 L 39.4859,-23.4455 L 39.6912,-23.4863
 L 39.9,-23.5 L 40.1088,-23.4863 L 40.3141,-23.4455 L 40.5123,-23.3782 L 40.7,-23.2856 L 40.874,-23.1694
 L 41.0314,-23.0314 L 41.1694,-22.874 L 41.2856,-22.7 L 41.3782,-22.5123 L 41.4455,-22.3141 L 41.4863,-22.1088
 L 41.5,-21.9 L 41.4863,-21.6912 L 41.4455,-21.4859 L 41.3782,-21.2877 L 41.2856,-21.1 L 41.1694,-20.926
 L 41.0314,-20.7686 L 40.874,-20.6306 L 40.7,-20.5144 L 40.5123,-20.4218 L 40.3141,-20.3545 L 40.1088,-20.3137
 L 39.9,-20.3 L 39.6912,-20.3137 L 39.4859,-20.3545 L 39.2877,-20.4218 L 39.1,-20.5144 L 38.926,-20.6306
 L 38.7686,-20.7686 L 38.6306,-20.926 L 38.5144,-21.1 L 38.4218,-21.2877 L 38.3545,-21.4859 L 38.3137,-21.6912
 z
M 38.3,-109.9 L 38.3137,-110.109 L 38.3545,-110.314 L 38.4218,-110.512 L 38.5144,-110.7 L 38.6306,-110.874
 L 38.7686,-111.031 L 38.926,-111.169 L 39.1,-111.286 L 39.2877,-111.378 L 39.4859,-111.445 L 39.6912,-111.486
 L 39.9,-111.5 L 40.1088,-111.486 L 40.3141,-111.445 L 40.5123,-111.378 L 40.7,-111.286 L 40.874,-111.169
 L 41.0314,-111.031 L 41.1694,-110.874 L 41.2856,-110.7 L 41.3782,-110.512 L 41.4455,-110.314 L 41.4863,-110.109
 L 41.5,-109.9 L 41.4863,-109.691 L 41.4455,-109.486 L 41.3782,-109.288 L 41.2856,-109.1 L 41.1694,-108.926
 L 41.0314,-108.769 L 40.874,-108.631 L 40.7,-108.514 L 40.5123,-108.422 L 40.3141,-108.355 L 40.1088,-108.314
 L 39.9,-108.3 L 39.6912,-108.314 L 39.4859,-108.355 L 39.2877,-108.422 L 39.1,-108.514 L 38.926,-108.631
 L 38.7686,-108.769 L 38.6306,-108.926 L 38.5144,-109.1 L 38.4218,-109.288 L 38.3545,-109.486 L 38.3137,-109.691
 z
" stroke="black" fill="lightgray" stroke-width="0.5"/>
</svg>
